<svg width="960" height="1275" viewBox="0 0 960 1275" fill="none" xmlns="http://www.w3.org/2000/svg">
<g clip-path="url(#clip0_132_1891)">
<rect width="960" height="1275" fill="#F8F5FF"/>
<path d="M-199.539 1332.89L386.615 255.155L697.47 361.288L284.226 1396.34L122.014 1467.33L-199.539 1332.89Z" fill="#F4EFFF"/>
<rect x="377.995" y="253" width="321.091" height="133.608" rx="30" fill="white"/>
<path d="M479.954 326.447H471.892L470.558 330.304H466.295L473.574 310.033H478.301L485.58 330.304H481.288L479.954 326.447ZM478.852 323.199L475.923 314.731L472.994 323.199H478.852ZM494.448 330.565C493.134 330.565 491.954 330.333 490.91 329.869C489.866 329.386 489.035 328.738 488.416 327.926C487.817 327.114 487.488 326.215 487.43 325.229H491.519C491.597 325.848 491.896 326.36 492.418 326.766C492.96 327.172 493.627 327.375 494.419 327.375C495.193 327.375 495.792 327.221 496.217 326.911C496.662 326.602 496.884 326.206 496.884 325.722C496.884 325.2 496.614 324.814 496.072 324.562C495.55 324.292 494.709 324.002 493.549 323.692C492.351 323.402 491.365 323.103 490.591 322.793C489.837 322.484 489.18 322.01 488.619 321.372C488.078 320.734 487.807 319.874 487.807 318.791C487.807 317.902 488.059 317.09 488.561 316.355C489.083 315.621 489.818 315.041 490.765 314.615C491.732 314.19 492.863 313.977 494.158 313.977C496.072 313.977 497.6 314.461 498.74 315.427C499.881 316.375 500.509 317.66 500.625 319.284H496.739C496.681 318.646 496.411 318.144 495.927 317.776C495.463 317.39 494.835 317.196 494.042 317.196C493.308 317.196 492.737 317.332 492.331 317.602C491.945 317.873 491.751 318.25 491.751 318.733C491.751 319.275 492.022 319.69 492.563 319.98C493.105 320.251 493.946 320.531 495.086 320.821C496.246 321.111 497.203 321.411 497.957 321.72C498.711 322.03 499.359 322.513 499.9 323.17C500.461 323.808 500.751 324.659 500.77 325.722C500.77 326.65 500.509 327.482 499.987 328.216C499.485 328.951 498.75 329.531 497.783 329.956C496.836 330.362 495.724 330.565 494.448 330.565ZM510.251 330.565C508.936 330.565 507.757 330.333 506.713 329.869C505.669 329.386 504.838 328.738 504.219 327.926C503.62 327.114 503.291 326.215 503.233 325.229H507.322C507.399 325.848 507.699 326.36 508.221 326.766C508.762 327.172 509.429 327.375 510.222 327.375C510.995 327.375 511.595 327.221 512.02 326.911C512.465 326.602 512.687 326.206 512.687 325.722C512.687 325.2 512.416 324.814 511.875 324.562C511.353 324.292 510.512 324.002 509.352 323.692C508.153 323.402 507.167 323.103 506.394 322.793C505.64 322.484 504.983 322.01 504.422 321.372C503.881 320.734 503.61 319.874 503.61 318.791C503.61 317.902 503.861 317.09 504.364 316.355C504.886 315.621 505.621 315.041 506.568 314.615C507.535 314.19 508.666 313.977 509.961 313.977C511.875 313.977 513.402 314.461 514.543 315.427C515.684 316.375 516.312 317.66 516.428 319.284H512.542C512.484 318.646 512.213 318.144 511.73 317.776C511.266 317.39 510.638 317.196 509.845 317.196C509.11 317.196 508.54 317.332 508.134 317.602C507.747 317.873 507.554 318.25 507.554 318.733C507.554 319.275 507.825 319.69 508.366 319.98C508.907 320.251 509.748 320.531 510.889 320.821C512.049 321.111 513.006 321.411 513.76 321.72C514.514 322.03 515.162 322.513 515.703 323.17C516.264 323.808 516.554 324.659 516.573 325.722C516.573 326.65 516.312 327.482 515.79 328.216C515.287 328.951 514.553 329.531 513.586 329.956C512.639 330.362 511.527 330.565 510.251 330.565ZM527.04 330.565C525.493 330.565 524.101 330.227 522.864 329.55C521.626 328.854 520.65 327.878 519.935 326.621C519.239 325.365 518.891 323.915 518.891 322.271C518.891 320.628 519.248 319.178 519.964 317.921C520.698 316.665 521.694 315.698 522.951 315.021C524.207 314.325 525.609 313.977 527.156 313.977C528.702 313.977 530.104 314.325 531.361 315.021C532.617 315.698 533.603 316.665 534.319 317.921C535.053 319.178 535.421 320.628 535.421 322.271C535.421 323.915 535.044 325.365 534.29 326.621C533.555 327.878 532.55 328.854 531.274 329.55C530.017 330.227 528.606 330.565 527.04 330.565ZM527.04 327.027C527.774 327.027 528.461 326.853 529.099 326.505C529.756 326.138 530.278 325.597 530.665 324.881C531.051 324.166 531.245 323.296 531.245 322.271C531.245 320.744 530.839 319.574 530.027 318.762C529.234 317.931 528.258 317.515 527.098 317.515C525.938 317.515 524.961 317.931 524.169 318.762C523.395 319.574 523.009 320.744 523.009 322.271C523.009 323.799 523.386 324.978 524.14 325.809C524.913 326.621 525.88 327.027 527.04 327.027ZM537.355 322.271C537.355 320.609 537.693 319.159 538.37 317.921C539.047 316.665 539.984 315.698 541.183 315.021C542.382 314.325 543.754 313.977 545.301 313.977C547.292 313.977 548.936 314.48 550.231 315.485C551.546 316.471 552.425 317.863 552.87 319.661H548.491C548.259 318.965 547.863 318.424 547.302 318.037C546.761 317.631 546.084 317.428 545.272 317.428C544.112 317.428 543.194 317.854 542.517 318.704C541.84 319.536 541.502 320.725 541.502 322.271C541.502 323.799 541.84 324.988 542.517 325.838C543.194 326.67 544.112 327.085 545.272 327.085C546.915 327.085 547.988 326.351 548.491 324.881H552.87C552.425 326.621 551.546 328.004 550.231 329.028C548.916 330.053 547.273 330.565 545.301 330.565C543.754 330.565 542.382 330.227 541.183 329.55C539.984 328.854 539.047 327.888 538.37 326.65C537.693 325.394 537.355 323.934 537.355 322.271ZM557.903 312.324C557.188 312.324 556.589 312.102 556.105 311.657C555.641 311.193 555.409 310.623 555.409 309.946C555.409 309.27 555.641 308.709 556.105 308.264C556.589 307.8 557.188 307.568 557.903 307.568C558.619 307.568 559.208 307.8 559.672 308.264C560.156 308.709 560.397 309.27 560.397 309.946C560.397 310.623 560.156 311.193 559.672 311.657C559.208 312.102 558.619 312.324 557.903 312.324ZM559.904 314.238V330.304H555.844V314.238H559.904ZM562.872 322.213C562.872 320.589 563.191 319.149 563.829 317.892C564.486 316.636 565.366 315.669 566.468 314.992C567.589 314.316 568.836 313.977 570.209 313.977C571.407 313.977 572.451 314.219 573.341 314.702C574.249 315.186 574.974 315.795 575.516 316.529V314.238H579.605V330.304H575.516V327.955C574.994 328.709 574.269 329.338 573.341 329.84C572.432 330.324 571.378 330.565 570.18 330.565C568.826 330.565 567.589 330.217 566.468 329.521C565.366 328.825 564.486 327.849 563.829 326.592C563.191 325.316 562.872 323.857 562.872 322.213ZM575.516 322.271C575.516 321.285 575.322 320.444 574.936 319.748C574.549 319.033 574.027 318.492 573.37 318.124C572.712 317.738 572.007 317.544 571.253 317.544C570.499 317.544 569.803 317.728 569.165 318.095C568.527 318.463 568.005 319.004 567.599 319.719C567.212 320.415 567.019 321.247 567.019 322.213C567.019 323.18 567.212 324.031 567.599 324.765C568.005 325.481 568.527 326.032 569.165 326.418C569.822 326.805 570.518 326.998 571.253 326.998C572.007 326.998 572.712 326.815 573.37 326.447C574.027 326.061 574.549 325.519 574.936 324.823C575.322 324.108 575.516 323.257 575.516 322.271ZM588.297 317.573V325.345C588.297 325.887 588.423 326.283 588.674 326.534C588.945 326.766 589.389 326.882 590.008 326.882H591.893V330.304H589.341C585.919 330.304 584.208 328.642 584.208 325.316V317.573H582.294V314.238H584.208V310.265H588.297V314.238H591.893V317.573H588.297ZM609.748 321.923C609.748 322.503 609.709 323.025 609.632 323.489H597.887C597.984 324.649 598.39 325.558 599.105 326.215C599.82 326.873 600.7 327.201 601.744 327.201C603.252 327.201 604.325 326.554 604.963 325.258H609.342C608.878 326.805 607.989 328.081 606.674 329.086C605.359 330.072 603.745 330.565 601.831 330.565C600.284 330.565 598.892 330.227 597.655 329.55C596.437 328.854 595.48 327.878 594.784 326.621C594.107 325.365 593.769 323.915 593.769 322.271C593.769 320.609 594.107 319.149 594.784 317.892C595.461 316.636 596.408 315.669 597.626 314.992C598.844 314.316 600.246 313.977 601.831 313.977C603.358 313.977 604.721 314.306 605.92 314.963C607.138 315.621 608.076 316.558 608.733 317.776C609.41 318.975 609.748 320.357 609.748 321.923ZM605.543 320.763C605.524 319.719 605.147 318.888 604.412 318.269C603.677 317.631 602.778 317.312 601.715 317.312C600.71 317.312 599.859 317.622 599.163 318.24C598.486 318.84 598.071 319.681 597.916 320.763H605.543Z" fill="#332B2B"/>
<path d="M614.065 527.166C626.011 509.572 636.59 470.799 633.215 466.24C629.839 461.68 615.536 458.458 615.536 458.458C615.536 458.458 634.135 455.794 632.907 452.131C631.679 448.468 616.787 446.367 616.787 446.367C616.787 446.367 626.112 440.583 623.37 438.092C620.627 435.602 555.55 429.748 540.51 435.173C525.47 440.594 505.516 451.501 516.873 473.661C516.873 473.661 510.099 474.073 507.664 478.874C500.579 492.846 497.294 546.42 533.881 551.543C568.501 556.39 604.652 541.028 614.065 527.166Z" fill="#1E1609"/>
<path d="M530.264 533.213L528.793 612.776L555.86 693.018L586.361 614.732L581.811 534.171L530.264 533.213Z" fill="#FCBEA5"/>
<path d="M548.295 565.557L585.835 605.406L583.417 562.584L548.295 565.557Z" fill="#1E1609"/>
<path d="M534.421 549.898C534.421 549.898 552.076 580.803 590.439 580.809C604.751 580.812 617.536 572.54 620.847 537.796C622.664 518.736 622.69 480.851 582.835 474.129C542.98 467.407 512.441 516.24 534.421 549.898Z" fill="#FCBEA5"/>
<path d="M527.422 481.299C540.036 444.775 611.983 446.157 617.805 478.103C617.805 478.103 623.786 501.81 577.439 505.185C555.671 506.77 568.511 486.363 568.511 486.363C568.511 486.363 556.84 495.14 548.296 492.699C562.297 504.024 560.277 519.903 540.608 520.823C540.608 520.823 513.691 505.165 527.422 481.299Z" fill="#1E1609"/>
<path d="M576.315 530.006C576.362 531.587 575.12 532.908 573.538 532.954C571.956 533.001 570.636 531.759 570.589 530.177C570.543 528.595 571.785 527.275 573.367 527.228C574.949 527.182 576.269 528.424 576.315 530.006Z" fill="#1E1609"/>
<path d="M607.149 529.087C607.196 530.669 605.954 531.989 604.372 532.036C602.79 532.082 601.47 530.84 601.423 529.258C601.377 527.676 602.619 526.356 604.201 526.309C605.782 526.263 607.103 527.505 607.149 529.087Z" fill="#1E1609"/>
<path d="M588.238 530.092C589.132 532.493 590.211 534.742 591.14 537.067L593.976 543.957C594.446 545.164 594.861 546.076 595.488 547.329C595.9 548.052 595.993 549.291 595.572 550.217C595.154 551.204 594.399 551.677 593.746 552.057C592.397 552.763 591.044 552.966 589.718 553.047C588.397 553.079 587.042 552.975 585.834 552.458C588.328 552.176 590.827 551.355 592.527 550.151C592.89 549.834 593.198 549.486 593.215 549.265C593.221 549.036 593.276 548.885 593.012 548.525C592.44 547.567 591.773 546.2 591.297 545.074C590.336 542.68 589.555 540.256 588.989 537.76C588.455 535.27 587.945 532.702 588.238 530.092Z" fill="#1E1609"/>
<path d="M573.429 563.784C572.094 564.861 570.501 564.742 569.209 564.185C567.947 563.566 566.823 562.423 566.789 560.705C568.475 560.797 569.427 561.123 570.431 561.552C571.4 562.045 572.268 562.562 573.429 563.784Z" fill="#1E1609"/>
<path d="M555.113 523.702C554.468 535.132 544.679 543.874 533.249 543.229C521.82 542.585 513.078 532.795 513.722 521.366C514.366 509.936 524.156 501.194 535.585 501.839C547.015 502.483 555.757 512.273 555.113 523.702Z" fill="#FCBEA5"/>
<path d="M533.104 535.237C529.937 534.74 526.84 533.44 524.275 531.182C522.989 530.056 521.95 528.538 521.34 526.808C520.713 525.09 520.771 523.082 521.152 521.439C521.825 518.104 523.845 514.819 526.887 513.057C529.867 511.26 533.623 511.008 536.549 512.363C533.353 512.212 530.381 513.17 528.161 514.929C525.961 516.708 524.527 519.242 523.984 522.063C523.207 524.785 524.045 527.357 525.897 529.612C527.795 531.812 530.358 533.626 533.104 535.237Z" fill="#1E1609"/>
<path d="M578.526 517.447C578.526 519.313 572.188 520.825 568.432 520.825C564.676 520.825 563.385 519.313 563.385 517.447C563.385 515.58 567.973 514.068 571.726 514.068C575.482 514.068 578.526 515.58 578.526 517.447Z" fill="#1E1609"/>
<path d="M598.429 517.447C598.429 519.313 604.768 520.825 608.524 520.825C612.279 520.825 613.571 519.313 613.571 517.447C613.571 515.58 608.982 514.068 605.229 514.068C601.471 514.068 598.429 515.58 598.429 517.447Z" fill="#1E1609"/>
<path d="M509.698 606.7C509.698 606.7 420.381 619.738 402.009 633.515C383.637 647.293 347.734 734.744 347.734 734.744L420.482 765.204C420.482 765.204 418.125 837.743 419.193 897.839L654.871 896.321L645.929 763.236L719.037 720.696C719.037 720.696 667.389 633.303 661.265 626.068C655.141 618.832 598.426 606.546 598.426 606.546L509.698 606.7Z" fill="#5F42A9"/>
<path d="M645.186 737.257C649.557 733.852 654.175 730.964 658.876 728.259C663.581 725.554 668.37 723.032 673.258 720.716C678.137 718.382 683.123 716.269 688.19 714.331C693.258 712.395 698.415 710.645 703.823 709.417C699.454 712.827 694.84 715.718 690.135 718.423C685.43 721.122 680.641 723.653 675.748 725.958C670.863 728.282 665.88 730.398 660.812 732.334C655.745 734.267 650.59 736.02 645.186 737.257Z" fill="#1E1609"/>
<path d="M356.193 715.019C362.428 715.727 368.488 716.981 374.49 718.427C380.501 719.837 386.413 721.573 392.302 723.372C398.159 725.273 403.995 727.244 409.727 729.537C415.471 731.795 421.154 734.25 426.663 737.257C420.426 736.555 414.363 735.304 408.363 733.859C402.353 732.445 396.443 730.709 390.554 728.904C384.7 726.994 378.864 725.024 373.132 722.731C367.388 720.47 361.705 718.017 356.193 715.019Z" fill="#1E1609"/>
<path d="M442.681 664.831C442.004 673.454 440.768 681.955 439.334 690.412C437.935 698.878 436.208 707.269 434.415 715.645C432.517 723.998 430.546 732.337 428.244 740.603C425.98 748.875 423.513 757.106 420.483 765.209C421.154 756.583 422.387 748.082 423.821 739.625C425.22 731.161 426.95 722.768 428.749 714.392C430.656 706.039 432.627 697.7 434.928 689.437C437.195 681.165 439.656 672.937 442.681 664.831Z" fill="#1E1609"/>
<path d="M645.369 664.831C646.498 673.042 647.082 681.244 647.476 689.443C647.909 697.642 648.025 705.838 648.1 714.032C648.063 722.228 647.99 730.418 647.627 738.615C647.302 746.814 646.803 754.999 645.935 763.238C644.388 755.089 643.625 746.872 643.099 738.67C642.542 730.465 642.368 722.254 642.301 714.046C642.342 705.838 642.473 697.63 642.966 689.428C643.422 681.223 644.095 673.021 645.369 664.831Z" fill="#1E1609"/>
<path d="M548.861 897.113L419.192 897.96C419.192 897.96 397.665 951.03 409.124 1021.69C420.582 1092.35 513.882 1450.87 513.882 1450.87L604.381 1437.55L548.861 897.113Z" fill="black"/>
<path d="M419.194 897.962L654.872 896.444C654.872 896.444 655.209 1120.48 636.111 1187.32C617.014 1254.16 508.114 1429.26 508.114 1429.26L433.97 1369.85L542.533 1154.86L419.194 897.962Z" fill="black"/>
<path d="M472.498 1293.55C477.452 1282.22 482.749 1271.08 487.872 1259.84C493.122 1248.67 498.416 1237.53 503.797 1226.42C514.533 1204.19 525.518 1182.1 536.664 1160.08L536.356 1161.48L535.334 1127.68L534.614 1093.87C534.4 1082.6 534.307 1071.32 534.243 1060.05C534.295 1048.76 534.173 1037.49 534.397 1026.2C535.427 1037.45 536.109 1048.7 536.968 1059.95C537.711 1071.2 538.425 1082.45 539.017 1093.71L540.715 1127.49L542.111 1161.27C542.132 1161.77 542.024 1162.24 541.818 1162.65L541.804 1162.68C530.705 1184.72 519.444 1206.67 507.933 1228.51C502.189 1239.43 496.364 1250.31 490.49 1261.17C484.491 1271.96 478.666 1282.84 472.498 1293.55Z" fill="#F8F5FF"/>
<path d="M411.86 923.361C432.118 921.846 452.383 920.696 472.656 919.918C492.926 919.059 513.205 918.543 533.483 918.09C553.765 917.745 574.047 917.475 594.337 917.541C614.625 917.527 634.918 917.887 655.22 918.621C634.962 920.145 614.697 921.297 594.424 922.069C574.154 922.925 553.875 923.445 533.597 923.889C513.315 924.226 493.033 924.498 472.743 924.429C452.458 924.446 432.162 924.086 411.86 923.361Z" fill="#F8F5FF"/>
<path d="M539.241 1161.38C542.283 1161.1 545.139 1161.39 547.951 1161.81C550.752 1162.27 553.483 1162.94 556.153 1163.81C558.823 1164.67 561.433 1165.72 563.972 1166.99C566.5 1168.29 568.985 1169.73 571.278 1171.76C568.233 1172.05 565.377 1171.76 562.565 1171.33C559.764 1170.87 557.033 1170.2 554.365 1169.33C551.695 1168.46 549.089 1167.4 546.549 1166.14C544.021 1164.83 541.537 1163.39 539.241 1161.38Z" fill="#F8F5FF"/>
<path d="M640.359 693.817L680.713 693.504C683.642 693.481 685.999 691.089 685.975 688.161L685.494 626.491C685.47 623.563 683.079 621.206 680.15 621.229L639.796 621.543C636.867 621.566 634.511 623.957 634.534 626.886L635.016 688.555C635.039 691.484 637.43 693.838 640.359 693.817Z" fill="#1E1609"/>
<path d="M645.585 693.775L685.939 693.461C688.868 693.438 691.225 691.047 691.201 688.118L690.72 626.449C690.696 623.52 688.305 621.163 685.376 621.187L645.019 621.5C642.09 621.523 639.734 623.915 639.757 626.843L640.239 688.513C640.265 691.444 642.656 693.798 645.585 693.775Z" fill="#FAFAFA"/>
<path d="M646.721 645.543L659.248 645.444C661.242 645.43 662.844 643.801 662.829 641.807L662.731 629.278C662.716 627.284 661.088 625.682 659.094 625.696L646.567 625.795C644.573 625.81 642.971 627.441 642.986 629.432L643.085 641.958C643.099 643.955 644.73 645.557 646.721 645.543Z" fill="#E8E8E8"/>
<path d="M660.432 632.288C660.22 634.421 658.319 635.98 656.186 635.768C654.053 635.556 652.494 633.655 652.706 631.522C652.918 629.389 654.819 627.83 656.952 628.042C659.086 628.254 660.644 630.155 660.432 632.288Z" fill="#1E1609"/>
<path d="M653.113 639.716C652.901 641.849 651 643.408 648.866 643.196C646.733 642.984 645.175 641.083 645.386 638.95C645.598 636.817 647.499 635.258 649.633 635.47C651.766 635.682 653.324 637.583 653.113 639.716Z" fill="#1E1609"/>
<path d="M716.905 677.745C716.905 677.745 711.794 662.551 707.719 651.911C705.766 646.806 672.839 641.669 671.109 643.738C669.379 645.81 673.808 651.223 673.808 651.223C673.808 651.223 669.8 653.844 670.688 655.922C671.576 657.997 674.04 659.039 674.04 659.039C674.04 659.039 668.195 660.09 669.016 662.673C669.837 665.256 681.879 667.86 681.879 667.86C681.879 667.86 680.617 689.369 692.012 690.295L716.905 677.745Z" fill="#FCBEA5"/>
<path d="M511.333 606.549C511.333 606.549 516.166 598.808 517.695 596.896C519.225 594.983 535.301 599.575 552.907 598.808C570.513 598.042 586.516 596.336 590.188 596.426C593.859 596.516 598.428 606.552 598.428 606.552C598.428 606.552 577.792 617.444 563.387 618.33C532.239 620.239 511.333 606.549 511.333 606.549Z" fill="white"/>
<path d="M692.012 690.293C692.012 690.293 688.768 846.072 697.579 856.724C708.626 870.077 718.479 879.287 732.408 870.928C755.371 857.15 755.278 829.874 750.687 814.372C746.092 798.871 716.906 677.746 716.906 677.746L692.012 690.293Z" fill="#FCBEA5"/>
<path d="M700.311 730.931L643.677 763.885C643.677 763.885 690.376 848.738 697.577 856.723C704.784 864.704 706.583 751.524 700.311 730.931Z" fill="#FCBEA5"/>
<path d="M691.468 736.076C692.812 740.305 693.584 744.574 694.156 748.852C694.724 753.133 695.093 757.423 695.232 761.721C695.392 766.017 695.305 770.318 695.029 774.616C694.748 778.915 694.26 783.21 693.195 787.494C691.842 783.207 691.068 778.935 690.499 774.663C689.933 770.391 689.558 766.124 689.431 761.852C689.283 757.58 689.364 753.301 689.645 749.012C689.927 744.719 690.412 740.418 691.468 736.076Z" fill="#1E1609"/>
<path d="M490.814 609.735C500.546 615.452 510.469 620.63 520.734 624.775C523.283 625.86 525.909 626.702 528.478 627.694C531.108 628.481 533.688 629.456 536.358 630.037C541.617 631.552 546.998 632.361 552.347 632.765C557.687 633.11 563.077 632.687 568.388 631.755C573.7 630.756 578.883 629.105 583.977 627.105C594.06 622.862 603.62 617.002 612.249 609.738C605.33 618.715 596.135 625.968 585.861 631.227C580.7 633.85 575.168 635.737 569.494 637.142C563.765 638.329 557.888 638.845 551.99 638.558C540.264 637.652 529.073 634.042 518.883 628.893C508.64 623.82 499.135 617.4 490.814 609.735Z" fill="#1E1609"/>
<path d="M509.72 674.798C509.72 674.798 529.201 648.39 535.633 646.257C542.064 644.123 570.176 644.379 577.174 647.42C584.172 650.462 574.646 659.123 562.784 659.468C562.784 659.468 569.619 665.383 570.87 668.103C572.121 670.822 559.722 683.686 556.161 685.941C552.6 688.193 545.138 680.917 545.138 680.917C545.138 680.917 547.082 685.627 538.317 688.173L509.72 674.798Z" fill="#FCBEA5"/>
<path d="M509.72 675.064C509.72 675.064 344.703 797.945 330.159 809.426C315.616 820.908 324.802 872.959 344.703 879.083C364.605 885.207 449.955 832.773 538.32 688.438L509.72 675.064Z" fill="#FCBEA5"/>
<path d="M324.902 818.143C324.902 818.143 340.107 773.696 359.411 739.636L420.48 765.209C420.48 765.209 386.902 821.205 324.902 818.143Z" fill="#FCBEA5"/>
<path d="M399.05 756.875C396.388 760.387 393.387 763.44 390.264 766.331C387.138 769.221 383.896 771.95 380.515 774.498C377.146 777.061 373.625 779.426 369.991 781.644C366.355 783.855 362.593 785.904 358.48 787.495C361.127 783.983 364.128 780.927 367.254 778.036C370.383 775.148 373.625 772.411 377.018 769.872C380.396 767.315 383.914 764.943 387.553 762.729C391.187 760.517 394.949 758.465 399.05 756.875Z" fill="#1E1609"/>
<path d="M520.502 1031.21C526.809 1028.68 532.512 1025.49 537.737 1021.67C542.926 1017.82 547.698 1013.45 551.929 1008.59C556.251 1003.78 560.059 998.489 563.753 993.038L574.64 976.21C573.082 982.825 570.719 989.207 567.672 995.311C564.653 1001.43 560.825 1007.21 556.274 1012.43C551.639 1017.58 546.264 1022.14 540.157 1025.47C534.103 1028.83 527.32 1031.04 520.502 1031.21Z" fill="#F8F5FF"/>
</g>
<defs>
<clipPath id="clip0_132_1891">
<rect width="960" height="1275" fill="white"/>
</clipPath>
</defs>
</svg>
