<svg width="24" height="24" viewBox="0 0 24 24" fill="none" xmlns="http://www.w3.org/2000/svg">
<path d="M13.2145 2H8C5.64298 2 4.46447 2 3.73223 2.65087C3 3.30175 3 4.34931 3 6.44444V17.5556C3 19.6507 3 20.6983 3.73223 21.3491C4.46447 22 5.64298 22 8 22H15.5C17.857 22 19.0355 22 19.7678 21.3491C20.5 20.6983 20.5 19.6507 20.5 17.5556V8.47603C20.5 8.02186 20.5 7.79478 20.4048 7.59059C20.3097 7.3864 20.1291 7.22583 19.7678 6.90468L14.9822 2.65087C14.6209 2.32973 14.4403 2.16916 14.2106 2.08458C13.9809 2 13.7254 2 13.2145 2Z" fill="white" stroke="white" stroke-width="1.8"/>
<path d="M8.14258 13.1111L15.8565 13.1111" stroke="#5F42A9" stroke-width="1.8" stroke-linecap="round"/>
<path d="M8.14258 17.5557L13.2852 17.5557" stroke="#5F42A9" stroke-width="1.8" stroke-linecap="round"/>
<path d="M13.2852 2V6.44444C13.2852 7.49201 13.2852 8.01579 13.6617 8.34123C14.0383 8.66667 14.6443 8.66667 15.8565 8.66667H20.9991" stroke="#5F42A9" stroke-width="1.8"/>
</svg>
