<svg width="960" height="1275" viewBox="0 0 960 1275" fill="none" xmlns="http://www.w3.org/2000/svg">
<g clip-path="url(#clip0_132_1114)">
<rect width="960" height="1275" fill="#F8F5FF"/>
<path d="M-188 1307.73L383.954 256.103L687.279 359.664L284.046 1369.64L125.763 1438.91L-188 1307.73Z" fill="#F4EFFF"/>
<rect x="375.543" y="254" width="313.313" height="130.372" rx="30" fill="white"/>
<path d="M445.215 319.536C445.215 317.545 445.659 315.766 446.549 314.2C447.457 312.615 448.685 311.387 450.232 310.517C451.798 309.628 453.547 309.183 455.481 309.183C457.743 309.183 459.724 309.763 461.426 310.923C463.127 312.083 464.316 313.688 464.993 315.737H460.324C459.86 314.77 459.202 314.045 458.352 313.562C457.52 313.079 456.554 312.837 455.452 312.837C454.272 312.837 453.219 313.117 452.291 313.678C451.382 314.219 450.667 314.993 450.145 315.998C449.642 317.003 449.391 318.183 449.391 319.536C449.391 320.87 449.642 322.049 450.145 323.074C450.667 324.079 451.382 324.862 452.291 325.423C453.219 325.964 454.272 326.235 455.452 326.235C456.554 326.235 457.52 325.993 458.352 325.51C459.202 325.007 459.86 324.273 460.324 323.306H464.993C464.316 325.375 463.127 326.989 461.426 328.149C459.744 329.29 457.762 329.86 455.481 329.86C453.547 329.86 451.798 329.425 450.232 328.555C448.685 327.666 447.457 326.438 446.549 324.872C445.659 323.306 445.215 321.527 445.215 319.536ZM475.594 329.947C474.048 329.947 472.656 329.609 471.418 328.932C470.181 328.236 469.205 327.26 468.489 326.003C467.793 324.746 467.445 323.296 467.445 321.653C467.445 320.01 467.803 318.56 468.518 317.303C469.253 316.046 470.249 315.08 471.505 314.403C472.762 313.707 474.164 313.359 475.71 313.359C477.257 313.359 478.659 313.707 479.915 314.403C481.172 315.08 482.158 316.046 482.873 317.303C483.608 318.56 483.975 320.01 483.975 321.653C483.975 323.296 483.598 324.746 482.844 326.003C482.11 327.26 481.104 328.236 479.828 328.932C478.572 329.609 477.16 329.947 475.594 329.947ZM475.594 326.409C476.329 326.409 477.015 326.235 477.653 325.887C478.311 325.52 478.833 324.978 479.219 324.263C479.606 323.548 479.799 322.678 479.799 321.653C479.799 320.126 479.393 318.956 478.581 318.144C477.789 317.313 476.812 316.897 475.652 316.897C474.492 316.897 473.516 317.313 472.723 318.144C471.95 318.956 471.563 320.126 471.563 321.653C471.563 323.18 471.94 324.36 472.694 325.191C473.468 326.003 474.434 326.409 475.594 326.409ZM506.906 313.388C508.878 313.388 510.463 313.997 511.662 315.215C512.88 316.414 513.489 318.096 513.489 320.261V329.686H509.429V320.812C509.429 319.555 509.11 318.598 508.472 317.941C507.834 317.264 506.964 316.926 505.862 316.926C504.76 316.926 503.88 317.264 503.223 317.941C502.585 318.598 502.266 319.555 502.266 320.812V329.686H498.206V320.812C498.206 319.555 497.887 318.598 497.249 317.941C496.611 317.264 495.741 316.926 494.639 316.926C493.517 316.926 492.628 317.264 491.971 317.941C491.333 318.598 491.014 319.555 491.014 320.812V329.686H486.954V313.62H491.014V315.563C491.536 314.886 492.203 314.355 493.015 313.968C493.846 313.581 494.755 313.388 495.741 313.388C496.997 313.388 498.119 313.659 499.105 314.2C500.091 314.722 500.854 315.476 501.396 316.462C501.918 315.534 502.672 314.79 503.658 314.229C504.663 313.668 505.746 313.388 506.906 313.388ZM521.401 315.94C521.923 315.205 522.639 314.596 523.547 314.113C524.475 313.61 525.529 313.359 526.708 313.359C528.081 313.359 529.318 313.697 530.42 314.374C531.542 315.051 532.421 316.017 533.059 317.274C533.717 318.511 534.045 319.952 534.045 321.595C534.045 323.238 533.717 324.698 533.059 325.974C532.421 327.231 531.542 328.207 530.42 328.903C529.318 329.599 528.081 329.947 526.708 329.947C525.529 329.947 524.485 329.705 523.576 329.222C522.687 328.739 521.962 328.13 521.401 327.395V337.342H517.341V313.62H521.401V315.94ZM529.898 321.595C529.898 320.628 529.695 319.797 529.289 319.101C528.903 318.386 528.381 317.844 527.723 317.477C527.085 317.11 526.389 316.926 525.635 316.926C524.901 316.926 524.205 317.119 523.547 317.506C522.909 317.873 522.387 318.415 521.981 319.13C521.595 319.845 521.401 320.686 521.401 321.653C521.401 322.62 521.595 323.461 521.981 324.176C522.387 324.891 522.909 325.442 523.547 325.829C524.205 326.196 524.901 326.38 525.635 326.38C526.389 326.38 527.085 326.187 527.723 325.8C528.381 325.413 528.903 324.862 529.289 324.147C529.695 323.432 529.898 322.581 529.898 321.595ZM535.952 321.595C535.952 319.971 536.271 318.531 536.909 317.274C537.566 316.017 538.446 315.051 539.548 314.374C540.669 313.697 541.916 313.359 543.289 313.359C544.487 313.359 545.531 313.601 546.421 314.084C547.329 314.567 548.054 315.176 548.596 315.911V313.62H552.685V329.686H548.596V327.337C548.074 328.091 547.349 328.719 546.421 329.222C545.512 329.705 544.458 329.947 543.26 329.947C541.906 329.947 540.669 329.599 539.548 328.903C538.446 328.207 537.566 327.231 536.909 325.974C536.271 324.698 535.952 323.238 535.952 321.595ZM548.596 321.653C548.596 320.667 548.402 319.826 548.016 319.13C547.629 318.415 547.107 317.873 546.45 317.506C545.792 317.119 545.087 316.926 544.333 316.926C543.579 316.926 542.883 317.11 542.245 317.477C541.607 317.844 541.085 318.386 540.679 319.101C540.292 319.797 540.099 320.628 540.099 321.595C540.099 322.562 540.292 323.412 540.679 324.147C541.085 324.862 541.607 325.413 542.245 325.8C542.902 326.187 543.598 326.38 544.333 326.38C545.087 326.38 545.792 326.196 546.45 325.829C547.107 325.442 547.629 324.901 548.016 324.205C548.402 323.49 548.596 322.639 548.596 321.653ZM565.553 313.388C567.467 313.388 569.014 313.997 570.193 315.215C571.372 316.414 571.962 318.096 571.962 320.261V329.686H567.902V320.812C567.902 319.536 567.583 318.56 566.945 317.883C566.307 317.187 565.437 316.839 564.335 316.839C563.214 316.839 562.324 317.187 561.667 317.883C561.029 318.56 560.71 319.536 560.71 320.812V329.686H556.65V313.62H560.71V315.621C561.251 314.925 561.938 314.384 562.769 313.997C563.62 313.591 564.548 313.388 565.553 313.388ZM577.882 311.706C577.166 311.706 576.567 311.484 576.084 311.039C575.62 310.575 575.388 310.005 575.388 309.328C575.388 308.651 575.62 308.091 576.084 307.646C576.567 307.182 577.166 306.95 577.882 306.95C578.597 306.95 579.187 307.182 579.651 307.646C580.134 308.091 580.376 308.651 580.376 309.328C580.376 310.005 580.134 310.575 579.651 311.039C579.187 311.484 578.597 311.706 577.882 311.706ZM579.883 313.62V329.686H575.823V313.62H579.883ZM591.028 329.947C589.481 329.947 588.089 329.609 586.852 328.932C585.615 328.236 584.638 327.26 583.923 326.003C583.227 324.746 582.879 323.296 582.879 321.653C582.879 320.01 583.237 318.56 583.952 317.303C584.687 316.046 585.682 315.08 586.939 314.403C588.196 313.707 589.597 313.359 591.144 313.359C592.691 313.359 594.092 313.707 595.349 314.403C596.606 315.08 597.592 316.046 598.307 317.303C599.042 318.56 599.409 320.01 599.409 321.653C599.409 323.296 599.032 324.746 598.278 326.003C597.543 327.26 596.538 328.236 595.262 328.932C594.005 329.609 592.594 329.947 591.028 329.947ZM591.028 326.409C591.763 326.409 592.449 326.235 593.087 325.887C593.744 325.52 594.266 324.978 594.653 324.263C595.04 323.548 595.233 322.678 595.233 321.653C595.233 320.126 594.827 318.956 594.015 318.144C593.222 317.313 592.246 316.897 591.086 316.897C589.926 316.897 588.95 317.313 588.157 318.144C587.384 318.956 586.997 320.126 586.997 321.653C586.997 323.18 587.374 324.36 588.128 325.191C588.901 326.003 589.868 326.409 591.028 326.409ZM611.29 313.388C613.204 313.388 614.751 313.997 615.93 315.215C617.11 316.414 617.699 318.096 617.699 320.261V329.686H613.639V320.812C613.639 319.536 613.32 318.56 612.682 317.883C612.044 317.187 611.174 316.839 610.072 316.839C608.951 316.839 608.062 317.187 607.404 317.883C606.766 318.56 606.447 319.536 606.447 320.812V329.686H602.387V313.62H606.447V315.621C606.989 314.925 607.675 314.384 608.506 313.997C609.357 313.591 610.285 313.388 611.29 313.388Z" fill="#332B2B"/>
<path d="M674.117 799.74C674.117 799.74 693.975 886.085 694.664 898.605C695.354 911.125 682.183 954.785 629.186 902.739C618.923 892.66 582.694 807.332 582.694 807.332C582.694 807.332 640.483 776.302 674.117 799.74Z" fill="#FCBEA5"/>
<path d="M386.969 690.079C341.647 707.053 356.093 924.857 360.401 938.766C360.401 938.766 391.082 916.53 416.128 858.832C444.775 792.824 431.395 673.443 386.969 690.079Z" fill="#FCBEA5"/>
<path d="M437.55 670.938C437.55 670.938 408.569 683.095 395.488 687.678C376.411 694.361 417.742 807.331 417.742 807.331C417.742 807.331 464.982 782.351 464.885 738.147C464.791 693.944 437.55 670.938 437.55 670.938Z" fill="#B55E49"/>
<path d="M410.878 734.871C420.814 756.982 422.103 781.857 423.241 806.071" stroke="#1E1609" stroke-miterlimit="10" stroke-linecap="round" stroke-linejoin="round"/>
<path d="M562.906 658.664C562.906 658.664 589.439 661.527 597.707 666.117C605.974 670.71 639.215 774.266 639.215 774.266C639.215 774.266 561.008 747.632 554.816 731.097C548.627 714.565 562.906 658.664 562.906 658.664Z" fill="#FCBEA5"/>
<path d="M684.846 1229.2C695.869 1246.67 639.379 1662.15 637.63 1684.86C635.882 1707.56 668.221 1754.81 668.221 1754.81C668.221 1754.81 643.046 1773.06 618.073 1767.81C593.096 1762.57 563.202 1699.09 565.058 1662.72C565.058 1662.72 570.425 1636.25 570.425 1624.61C570.425 1612.96 560.921 1247.11 560.921 1247.11C560.921 1247.11 673.824 1211.74 684.846 1229.2Z" fill="#FCBEA5"/>
<path d="M434.737 1657.54C434.737 1657.54 423.303 1712.61 423.06 1720.5C423.06 1720.5 345.842 1758.69 352.18 1691.52C352.18 1691.52 380.148 1622.43 381.099 1618.44C382.05 1614.45 479.762 1305.97 493.922 1243.43C493.922 1243.43 586.366 1236.1 593.985 1267.8C606.676 1320.6 439.539 1640.5 434.737 1657.54Z" fill="#FCBEA5"/>
<path d="M469.767 658.661L454.361 663.38C454.361 663.38 472.056 712.529 509.726 705.633C547.396 698.738 547.853 656.826 547.853 656.826L531.93 654.28L469.767 658.661Z" fill="#FCBEA5"/>
<path d="M410.006 929.969C410.006 929.969 386.001 989.945 374.798 1034.58C363.594 1079.21 360.394 1482.29 360.394 1482.29C360.394 1482.29 384.399 1496.24 467.614 1482.29C550.829 1468.35 738.066 1453 810.081 1451.61C810.081 1451.61 672.623 1016.11 623.589 906.26L410.006 929.969Z" fill="black"/>
<path d="M454.359 663.382L437.553 670.939C437.553 670.939 462.982 725.27 513.642 716.017C564.303 706.764 562.906 658.666 562.906 658.666L547.851 656.828C547.851 656.828 539.963 690.688 508.091 697.577C479.235 703.81 454.359 663.382 454.359 663.382Z" fill="#5F42A9"/>
<path d="M552.765 684.256C552.765 684.256 613.379 712.269 628.534 734.313C643.69 756.358 623.025 807.331 623.025 807.331L623.596 906.259L410.01 929.972C410.01 929.972 409.864 832.029 410.01 801.345C410.069 788.979 452.476 770.337 454.363 688.264C454.36 688.257 503.251 722.372 552.765 684.256Z" fill="#5F42A9"/>
<path d="M490.091 755.783C494.05 756.692 497.644 758.817 501.033 761.032C504.394 763.33 507.528 765.945 510.415 768.832C516.206 774.575 521.287 781.241 524.153 789.637C524.418 790.741 524.693 791.835 524.909 792.956C525.007 794.13 525.163 795.321 525.167 796.48C525.073 798.775 524.832 801.091 524.08 803.236C522.645 807.53 520.26 811.427 517.039 814.359C510.78 820.356 501.886 823.268 493.922 821.788C501.82 820.308 508.517 816.209 513.062 810.658C515.283 807.858 516.993 804.723 517.742 801.422C518.191 799.792 518.345 798.131 518.365 796.484C518.334 795.672 518.181 794.899 518.122 794.105L517.495 791.657C516.53 788.321 514.778 785.019 512.856 781.815C510.996 778.552 508.687 775.501 506.375 772.437C504 769.424 501.538 766.419 498.839 763.633C496.164 760.791 493.382 758.085 490.091 755.783Z" fill="#1E1609"/>
<path d="M623.027 807.327C622.599 810.88 620.607 813.979 618.211 816.532C615.759 819.074 612.716 821.014 609.467 822.337C606.189 823.598 602.717 824.249 599.28 824.225C597.567 824.273 595.846 823.922 594.175 823.699C592.5 823.267 590.856 822.783 589.275 822.024C590.905 821.237 592.475 820.801 594.008 820.282L598.486 818.806C601.408 817.872 604.177 816.89 606.903 815.863C609.599 814.766 612.235 813.603 614.871 812.217C617.532 810.834 620.147 809.298 623.027 807.327Z" fill="#1E1609"/>
<path d="M454.115 694.409C461.634 701.165 470.009 706.566 478.893 710.192C483.389 711.881 487.969 713.113 492.625 713.74C497.285 714.099 501.993 714.395 506.597 713.402C516.003 711.989 525.287 708.684 533.942 704.362C542.522 699.831 550.699 694.203 557.748 686.949C553.005 695.993 545.298 703.352 536.675 709.06C532.347 711.943 527.614 714.162 522.801 716.171C517.866 717.93 512.973 719.483 507.666 720.284C506.336 720.455 505.012 720.67 503.682 720.796L499.656 720.862L497.647 720.886L495.644 720.688C494.31 720.552 492.973 720.437 491.653 720.242C486.419 719.152 481.3 717.585 476.64 715.116C467.37 710.199 459.461 703.063 454.115 694.409Z" fill="#1E1609"/>
<path d="M567.945 812.599L616.363 811.801C619.876 811.742 622.676 808.848 622.621 805.334L621.398 731.345C621.339 727.831 618.445 725.031 614.931 725.087L566.514 725.888C563 725.947 560.2 728.841 560.256 732.355L561.478 806.344C561.534 809.855 564.431 812.655 567.945 812.599Z" fill="#1E1609"/>
<path d="M574.214 812.494L622.632 811.696C626.145 811.637 628.945 808.743 628.89 805.229L627.667 731.24C627.608 727.726 624.714 724.926 621.2 724.982L572.783 725.779C569.269 725.838 566.469 728.732 566.525 732.246L567.747 806.236C567.803 809.75 570.7 812.553 574.214 812.494Z" fill="white"/>
<path d="M575.074 754.61L590.104 754.363C592.497 754.324 594.402 752.353 594.363 749.961L594.116 734.93C594.078 732.538 592.107 730.633 589.714 730.671L574.684 730.918C572.291 730.957 570.386 732.928 570.424 735.32L570.672 750.351C570.71 752.74 572.681 754.648 575.074 754.61Z" fill="#E8E8E8"/>
<path d="M591.385 738.562C591.155 741.125 588.892 743.013 586.329 742.783C583.765 742.553 581.878 740.286 582.108 737.726C582.338 735.163 584.601 733.275 587.164 733.505C589.728 733.735 591.615 735.999 591.385 738.562Z" fill="#1E1609"/>
<path d="M582.681 747.554C582.451 750.117 580.188 752.004 577.625 751.775C575.061 751.545 573.174 749.278 573.404 746.718C573.634 744.158 575.901 742.267 578.46 742.497C581.023 742.727 582.911 744.991 582.681 747.554Z" fill="#1E1609"/>
<path d="M514.502 799.738C514.502 799.738 527.353 770.221 529.923 764.38C532.493 758.54 560.548 755.12 560.548 755.12L560.823 764.116C560.823 764.116 575.189 763.67 576.658 764.175C578.128 764.676 574.165 771.502 574.165 771.502C574.165 771.502 576.725 777.294 574.04 779.926C571.355 782.559 571.355 782.559 571.355 782.559C571.355 782.559 572.762 786.007 572.312 788.274C571.365 793.045 562.478 809.559 546.437 815.17L514.502 799.738Z" fill="#FCBEA5"/>
<path d="M560.832 764.112C560.832 764.112 553.982 764.398 549.413 765.021" stroke="#1E1609" stroke-width="2" stroke-miterlimit="10" stroke-linecap="round" stroke-linejoin="round"/>
<path d="M674.118 799.738C674.118 799.738 661.267 770.221 658.697 764.38C656.127 758.54 628.072 755.12 628.072 755.12L627.797 764.116C627.797 764.116 613.431 763.67 611.962 764.175C610.492 764.676 614.455 771.502 614.455 771.502C614.455 771.502 611.895 777.294 614.58 779.926C617.265 782.559 617.265 782.559 617.265 782.559C617.265 782.559 615.859 786.007 616.308 788.274C617.258 793.045 626.142 809.559 642.183 815.17L674.118 799.738Z" fill="#FCBEA5"/>
<path d="M627.795 764.112C628.808 762.737 629.818 762.093 630.828 761.616C631.835 761.184 632.834 761.024 633.813 761.097C634.791 761.17 635.749 761.487 636.665 762.072C637.574 762.699 638.458 763.5 639.214 765.021C638.065 766.39 637.045 767.041 636.052 767.515C635.066 767.947 634.119 768.114 633.196 768.034C632.273 767.957 631.368 767.647 630.473 767.062C629.578 766.435 628.683 765.638 627.795 764.112Z" fill="#1E1609"/>
<path d="M514.504 799.74C514.504 799.74 399.146 868.638 390.189 874.841C381.235 881.039 344.035 929.948 366.769 948.548C389.499 967.148 488.455 889.826 546.439 815.171L514.504 799.74Z" fill="#FCBEA5"/>
<path d="M410.882 862.013C409.025 864.587 406.946 866.575 404.818 868.456C402.677 870.302 400.455 871.952 398.184 873.492C395.914 875.031 393.556 876.413 391.157 877.751C388.719 879.074 386.278 880.293 383.394 881.602C384.003 878.447 385.769 875.825 387.671 873.526C389.621 871.235 391.884 869.333 394.301 867.711C396.722 866.081 399.32 864.757 402.06 863.744C404.825 862.779 407.692 862.01 410.882 862.013Z" fill="#1E1609"/>
<path d="M629.186 807.327C633.452 810.277 638.133 812.555 642.618 812.976C643.44 813.053 644.088 813.645 644.279 814.4L644.394 814.857C645.091 817.646 645.655 820.46 646.299 823.26L647.929 831.705C648.935 837.347 649.789 843.006 650.523 848.682C651.955 860.056 652.93 871.434 652.989 883.097C650.631 877.727 649.009 872.148 647.504 866.579C646.076 860.99 644.871 855.362 643.837 849.71C642.83 844.054 641.988 838.374 641.33 832.67L640.49 824.092C640.32 821.216 640.072 818.357 639.978 815.47L641.751 817.35C638.947 816.49 636.489 815.079 634.417 813.324C632.324 811.607 630.558 809.57 629.186 807.327Z" fill="#1E1609"/>
<path d="M652.989 1461.39L642.022 1392.76L631.293 1324.12C624.052 1278.37 617.174 1232.57 609.579 1186.89C602.485 1141.13 594.827 1095.47 587.152 1049.81C583.244 1026.99 579.476 1004.14 575.234 981.38C573.204 969.981 571.369 958.541 569.175 947.174C567.012 935.8 564.93 924.406 562.906 912.993C568.464 935.487 573.653 958.078 578.585 980.721C583.509 1003.37 587.872 1026.13 592.424 1048.85C596.899 1071.59 600.869 1094.43 604.843 1117.25C608.879 1140.07 612.63 1162.94 616.447 1185.79C623.471 1231.6 630.457 1277.41 636.569 1323.35L645.383 1392.29C648.005 1415.32 650.781 1438.32 652.989 1461.39Z" fill="#F4EFFF"/>
<path d="M397.134 969.551C417.093 965.65 437.11 962.189 457.18 959.17C477.239 956.053 497.351 953.34 517.473 950.707C537.609 948.203 557.759 945.783 577.957 943.766C598.145 941.652 618.389 939.988 638.689 938.765C618.731 942.673 598.717 946.141 578.643 949.157C558.584 952.271 538.472 954.984 518.35 957.609C498.211 960.106 478.065 962.523 457.862 964.54C437.678 966.65 417.434 968.322 397.134 969.551Z" fill="#F4EFFF"/>
<path d="M520.915 466.172C520.915 466.172 540.153 446.2 566.473 446.2C586.24 446.2 623.74 491.803 628.894 527.461C635.159 570.801 609.051 623.624 514.002 600.169C392.006 570.059 475.357 486.144 520.915 466.172Z" fill="#1E1609"/>
<path d="M468.537 579.129L469.766 658.663L506.893 684.256L531.929 654.279L530.752 578.168L468.537 579.129Z" fill="#FCBEA5"/>
<path d="M494.078 600.835L531.926 654.278L531.278 612.411L494.078 600.835Z" fill="#1E1609"/>
<path d="M494.08 600.836C494.08 600.836 518.04 624.315 548.342 619.586C565.73 616.873 582.247 547.738 576.992 520.766C567.823 473.714 516.107 470.715 505.935 474.24C497.688 477.099 476.32 520.372 474.105 545.847C472.83 560.481 482.24 585.119 494.08 600.836Z" fill="#FCBEA5"/>
<path d="M485.915 438.139C463.77 439.163 378.539 510.039 378.539 564.112C378.539 607.598 446.399 656.928 430.54 671.011C414.68 685.095 358.382 730.663 358.382 763.723C358.382 796.783 458.724 790.949 459.73 814.286C460.737 837.622 439.215 847.345 439.215 847.345C439.215 847.345 502.987 837.622 496.485 798.726C489.983 759.83 453.897 771.499 453.141 753.996C452.386 736.493 541.364 676.712 468.625 584.878L480.594 549.628C480.594 549.628 541.768 524.317 546.441 492.341C553.184 446.197 517.491 436.68 485.915 438.139Z" fill="#1E1609"/>
<path d="M543.162 570.018C545.37 569.019 547.784 568.472 550.476 569.009C551.782 569.242 553.45 570.189 554.122 571.944C554.48 572.791 554.432 573.658 554.4 574.396C554.334 575.058 554.219 575.719 554.042 576.385C553.631 577.69 552.952 578.986 551.959 580.017C550.946 581.016 549.723 581.782 548.431 582.141C545.858 582.925 543.295 582.573 541.073 581.647C543.437 581.145 545.649 580.644 547.383 579.634C549.107 578.631 550.204 577.224 550.702 575.406C550.845 574.957 550.953 574.483 551.026 573.992C551.057 573.581 551.075 573.264 551.012 573.017C550.97 572.519 550.489 572.028 549.619 571.579C547.86 570.764 545.516 570.419 543.162 570.018Z" fill="#1E1609"/>
<path d="M500.801 561.487C499.903 575.274 487.999 585.725 474.209 584.827C460.421 583.928 449.97 572.022 450.869 558.234C451.767 544.447 463.671 533.996 477.461 534.894C491.252 535.793 501.7 547.7 500.801 561.487Z" fill="#FCBEA5"/>
<path d="M479.582 575.178C475.828 575.568 471.858 575.059 468.284 573.008C466.494 572.009 464.889 570.354 464.008 568.289C463.148 566.256 463.064 563.877 463.346 561.958C463.663 559.959 464.227 557.957 465.213 556.128C466.254 554.338 467.609 552.698 469.301 551.528C472.62 549.115 476.991 548.387 480.595 549.627C476.82 549.856 473.453 551.326 471.022 553.631C468.584 555.937 467.205 559.078 466.797 562.428C466.226 565.782 467.079 568.683 469.82 570.776C472.463 572.848 475.97 574.157 479.582 575.178Z" fill="#1E1609"/>
<path d="M524.954 553.219C525.045 555.127 523.572 556.746 521.663 556.837C519.755 556.927 518.136 555.454 518.045 553.546C517.954 551.637 519.428 550.018 521.336 549.928C523.244 549.837 524.864 551.31 524.954 553.219Z" fill="#1E1609"/>
<path d="M562.142 551.457C562.233 553.365 560.76 554.985 558.851 555.075C556.943 555.166 555.324 553.693 555.233 551.784C555.142 549.876 556.616 548.257 558.524 548.166C560.432 548.076 562.052 549.549 562.142 551.457Z" fill="#1E1609"/>
<path d="M509.727 539.517C509.57 538.42 514.791 533.12 520.297 532.873C525.827 532.556 527.871 537.483 527.021 538.629C526.172 539.963 523.264 537.818 518.663 538.138C514.122 538.288 509.765 540.806 509.727 539.517Z" fill="#1E1609"/>
<path d="M567.814 539.23C567.964 538.133 562.719 532.857 557.214 532.638C551.683 532.349 549.66 537.284 550.517 538.429C551.373 539.76 554.271 537.601 558.871 537.9C563.416 538.022 567.783 540.519 567.814 539.23Z" fill="#1E1609"/>
<path d="M521.742 593.275C524.176 594.658 525.904 595.832 527.826 596.939C529.714 598.102 531.563 599.067 533.931 600.564C531.371 601.853 528.376 601.292 526.04 599.927C523.734 598.506 521.826 596.135 521.742 593.275Z" fill="#1E1609"/>
<path d="M551.381 1056.62H550.002C546.359 1056.62 542.87 1059.82 543.037 1063.58C543.208 1067.36 546.098 1070.55 550.002 1070.55H551.381C555.024 1070.55 558.513 1067.34 558.346 1063.58C558.179 1059.81 555.285 1056.62 551.381 1056.62Z" fill="#F4EFFF"/>
<path d="M568.51 1161.32H567.131C563.488 1161.32 559.999 1164.53 560.166 1168.29C560.337 1172.06 563.227 1175.25 567.131 1175.25H568.51C572.153 1175.25 575.642 1172.05 575.475 1168.29C575.304 1164.51 572.414 1161.32 568.51 1161.32Z" fill="#F4EFFF"/>
<path d="M585.633 1266.03H584.254C580.611 1266.03 577.121 1269.23 577.288 1272.99C577.459 1276.77 580.35 1279.96 584.254 1279.96H585.633C589.275 1279.96 592.765 1276.75 592.598 1272.99C592.431 1269.22 589.54 1266.03 585.633 1266.03Z" fill="#F4EFFF"/>
</g>
<defs>
<clipPath id="clip0_132_1114">
<rect width="960" height="1275" fill="white"/>
</clipPath>
</defs>
</svg>
