<svg width="24" height="24" viewBox="0 0 24 24" fill="none" xmlns="http://www.w3.org/2000/svg">
<rect x="2" y="2.5" width="20" height="20" rx="10" fill="white"/>
<rect x="2" y="2.5" width="20" height="20" rx="10" stroke="white" stroke-width="1.8" stroke-linecap="round" stroke-linejoin="round"/>
<path d="M14.907 10.0741C14.907 10.0741 14.5419 8.3624 12.0005 8.17616M12.0005 8.17616V6.5M12.0005 8.17616C11.847 8.16554 11.6933 8.16009 11.5395 8.15984C10.4354 8.15984 9 9.07184 9 10.3438C9 11.6168 10.0392 12.116 11.8717 12.4261C13.7041 12.7362 15 13.4197 15 14.8232C15 16.2267 13.4833 16.8402 12.2097 16.8402C12.1399 16.8404 12.0702 16.8388 12.0005 16.8354M9.13656 14.9998C9.13656 14.9998 9.87361 16.7278 12.0005 16.8354M12.0005 16.8354V18.5" stroke="#5F42A9" stroke-width="1.8" stroke-linecap="round"/>
</svg>
