<svg width="15" height="15" viewBox="0 0 15 15" fill="none" xmlns="http://www.w3.org/2000/svg">
<path d="M13.9775 0H0.81625C0.365448 0 0 0.365448 0 0.81625V13.9775C0 14.4283 0.365448 14.7937 0.81625 14.7937H13.9775C14.4283 14.7937 14.7937 14.4283 14.7937 13.9775V0.81625C14.7937 0.365448 14.4283 0 13.9775 0Z" fill="#3D5A98"/>
<path d="M10.2063 14.7925V9.06375H12.1288L12.4163 6.83125H10.2063V5.40625C10.2063 4.76 10.3863 4.31875 11.3125 4.31875H12.495V2.31875C11.9224 2.25918 11.347 2.23081 10.7713 2.23375C9.06876 2.23375 7.89626 3.27125 7.89626 5.185V6.83125H5.97375V9.06375H7.89626V14.7925H10.2063Z" fill="white"/>
</svg>
