<svg width="960" height="1080" viewBox="0 0 960 1080" fill="none" xmlns="http://www.w3.org/2000/svg">
<g clip-path="url(#clip0_132_1535)">
<rect width="960" height="1080" fill="#F8F5FF"/>
<path d="M-110 850.5L436 403.5L610.5 607L418 1111.5L9 1251.5L-110 850.5Z" fill="#F4EFFF"/>
<path fill-rule="evenodd" clip-rule="evenodd" d="M480.5 399C558.647 399 622 462.351 622 540.5C622 618.647 558.648 682 480.5 682C402.352 682 339 618.648 339 540.5C339 462.351 402.352 399 480.5 399ZM480.5 586.488C470.73 586.488 462.811 594.406 462.811 604.175C462.811 613.943 470.731 621.862 480.499 621.862C490.267 621.862 498.187 613.943 498.187 604.175C498.187 594.406 490.267 586.488 480.499 586.488M478.138 460.907C464.365 460.907 452.788 464.659 443.423 472.143C432.325 481.108 426.781 494.347 426.781 511.872H456.868V511.671C456.868 504.984 458.276 499.5 461.087 495.221C464.964 489.471 471.253 486.592 479.947 486.592C485.298 486.592 489.852 487.997 493.591 490.801C498.27 494.687 500.617 500.568 500.617 508.461C500.617 513.411 499.407 517.822 497.002 521.704C494.996 525.181 491.786 528.588 487.366 531.935C478.004 538.355 471.917 544.71 469.112 550.999C466.704 556.215 465.494 564.508 465.494 575.875H493.793C493.793 568.383 494.789 562.769 496.804 559.021C498.407 555.945 501.755 552.67 506.838 549.19C515.669 542.633 521.951 536.545 525.699 530.927C530.244 524.241 532.523 516.414 532.523 507.449C532.523 488.871 524.967 475.692 509.842 467.931C500.752 463.25 490.184 460.906 478.138 460.906" fill="#5F42A9"/>
</g>
<defs>
<clipPath id="clip0_132_1535">
<rect width="960" height="1080" fill="white"/>
</clipPath>
</defs>
</svg>
