<svg width="24" height="25" viewBox="0 0 24 25" fill="none" xmlns="http://www.w3.org/2000/svg">
<path d="M22.4361 9.65075C22.4053 9.87987 22.3127 10.0963 22.1683 10.2769L12.7303 22.4233C12.5553 22.6436 12.3129 22.8013 12.0393 22.8709C11.8591 22.9147 11.6711 22.9147 11.4909 22.8709C11.1836 22.8178 10.9065 22.6541 10.7117 22.4106L1.27376 10.2769C1.1107 10.07 1.01569 9.81771 1.00178 9.55467C0.98787 9.29163 1.05574 9.03074 1.19608 8.80782L4.54227 3.59723L4.6443 3.46969C4.76298 3.32686 4.91141 3.21166 5.07924 3.13215C5.24706 3.05265 5.43022 3.01075 5.61592 3.00939H17.825C17.9228 2.99687 18.0217 2.99687 18.1195 3.00939C18.4405 3.08496 18.7197 3.28193 18.8986 3.55897L22.2448 8.76956C22.4138 9.0302 22.4818 9.34352 22.4361 9.65075Z" stroke="#48495B" stroke-width="1.6" stroke-linecap="round" stroke-linejoin="round"/>
<path d="M14.275 3.04761L16.1 9.65071L12.0384 22.8569M11.49 22.8708L6.82785 9.65071L9.16531 3.04761M1.00391 9.65071H22.4353" stroke="#48495B" stroke-width="1.6" stroke-linecap="round" stroke-linejoin="round"/>
</svg>
