<svg width="16" height="16" viewBox="0 0 16 16" fill="none" xmlns="http://www.w3.org/2000/svg">
<path d="M5.32124 0.433474C3.72259 0.98806 2.34392 2.04068 1.38773 3.43673C0.431539 4.83277 -0.0517701 6.49865 0.00879358 8.18968C0.0693572 9.88071 0.670601 11.5077 1.72421 12.8318C2.77782 14.1559 4.22826 15.1072 5.86249 15.546C7.18739 15.8878 8.5755 15.9029 9.90749 15.5897C11.1141 15.3187 12.2297 14.7389 13.145 13.9072C14.0976 13.0152 14.789 11.8803 15.145 10.6247C15.5319 9.25931 15.6007 7.82339 15.3462 6.42722H7.90624V9.51347H12.215C12.1289 10.0057 11.9443 10.4755 11.6724 10.8948C11.4005 11.314 11.0468 11.6741 10.6325 11.9535C10.1063 12.3015 9.51324 12.5357 8.89124 12.641C8.26742 12.757 7.62756 12.757 7.00374 12.641C6.37148 12.5103 5.77336 12.2493 5.24749 11.8747C4.40268 11.2767 3.76834 10.4271 3.43499 9.44722C3.09601 8.44897 3.09601 7.36673 3.43499 6.36847C3.67227 5.66874 4.06453 5.03164 4.58249 4.50472C5.17523 3.89066 5.92566 3.45172 6.75144 3.23607C7.57721 3.02042 8.44644 3.03639 9.26374 3.28222C9.9022 3.47821 10.486 3.82065 10.9687 4.28222C11.4546 3.79889 11.9396 3.31431 12.4237 2.82847C12.6737 2.56722 12.9462 2.31847 13.1925 2.05097C12.4557 1.36532 11.5908 0.831795 10.6475 0.480974C8.92962 -0.142788 7.04996 -0.159552 5.32124 0.433474Z" fill="white"/>
<path d="M5.32122 0.433471C7.0498 -0.159957 8.92945 -0.143636 10.6475 0.479721C11.591 0.832926 12.4554 1.36902 13.1912 2.05722C12.9412 2.32472 12.6775 2.57472 12.4225 2.83472C11.9375 3.31889 11.4529 3.80139 10.9687 4.28222C10.486 3.82064 9.90218 3.47821 9.26372 3.28222C8.44669 3.03552 7.57749 3.01863 6.75149 3.2334C5.92549 3.44817 5.17461 3.8863 4.58122 4.49972C4.06326 5.02664 3.671 5.66374 3.43372 6.36347L0.842468 4.35722C1.76998 2.51792 3.3759 1.111 5.32122 0.433471Z" fill="#E33629"/>
<path d="M0.154996 6.34472C0.294273 5.65447 0.525501 4.98601 0.842496 4.35722L3.43375 6.36847C3.09476 7.36673 3.09476 8.44897 3.43375 9.44722C2.57041 10.1139 1.70666 10.7839 0.842496 11.4572C0.0489348 9.87762 -0.193088 8.07785 0.154996 6.34472Z" fill="#F8BD00"/>
<path d="M7.90626 6.42597H15.3463C15.6008 7.82214 15.5319 9.25806 15.145 10.6235C14.7891 11.8791 14.0976 13.0139 13.145 13.906C12.3088 13.2535 11.4688 12.606 10.6325 11.9535C11.0471 11.6738 11.401 11.3133 11.6729 10.8936C11.9448 10.4739 12.1292 10.0037 12.215 9.51097H7.90626C7.90501 8.48347 7.90626 7.45472 7.90626 6.42597Z" fill="#587DBD"/>
<path d="M0.841248 11.4572C1.70541 10.7906 2.56916 10.1206 3.4325 9.44722C3.76651 10.4275 4.40175 11.2771 5.2475 11.8747C5.77501 12.2476 6.37441 12.5064 7.0075 12.6347C7.63132 12.7507 8.27118 12.7507 8.895 12.6347C9.51699 12.5294 10.1101 12.2953 10.6362 11.9472C11.4725 12.5997 12.3125 13.2472 13.1487 13.8997C12.2336 14.7319 11.118 15.3121 9.91125 15.5835C8.57926 15.8966 7.19115 15.8816 5.86625 15.5397C4.81837 15.2599 3.83959 14.7667 2.99125 14.091C2.09332 13.3781 1.35994 12.4797 0.841248 11.4572Z" fill="#319F43"/>
</svg>
