<svg width="242" height="241" viewBox="0 0 242 241" fill="none" xmlns="http://www.w3.org/2000/svg">
<g clip-path="url(#clip0_1657_1260)">
<rect x="0.5" width="241" height="241" rx="120.5" fill="#EFE9FF"/>
<path fill-rule="evenodd" clip-rule="evenodd" d="M176.738 105.355C187.939 160.622 139.987 204.685 116.845 204.685C93.7022 204.685 44.5732 161.272 55.2249 106.503C64.5768 58.4121 86.7393 42.7094 116.934 43.0041C147.131 43.2998 168.737 65.8726 176.738 105.355Z" fill="#B44647"/>
<path fill-rule="evenodd" clip-rule="evenodd" d="M102.667 185.188C102.667 190.297 97.4264 192.283 87.9793 194.555C78.5323 196.825 50.8348 198.326 47.9234 215.555L41.5 253.585H107.49H125.012H191.002L184.577 215.555C181.667 198.326 153.969 196.825 144.522 194.555C135.075 192.283 129.834 190.297 129.834 185.188H102.667Z" fill="#1EB3AE"/>
<path d="M129.835 162.5H102.667V199.406H129.835V162.5Z" fill="#E6AE85"/>
<path fill-rule="evenodd" clip-rule="evenodd" d="M116.251 47.5837C145.466 47.5837 169.151 73.5687 169.151 111.457C169.151 149.345 137.202 180.061 116.251 180.061C95.3015 180.061 63.3521 149.346 63.3521 111.457C63.3521 73.5676 87.0342 47.5837 116.251 47.5837Z" fill="#FAC096"/>
<path d="M120.473 199.408H112.03V253.586H120.473V199.408Z" fill="#169692"/>
<path fill-rule="evenodd" clip-rule="evenodd" d="M102.667 185.188L116.252 199.408L99.7363 214.779L92.4131 193.408L102.667 185.188Z" fill="white"/>
<path fill-rule="evenodd" clip-rule="evenodd" d="M129.835 185.188L116.251 199.408L132.767 214.779L140.09 193.408L129.835 185.188Z" fill="white"/>
<path fill-rule="evenodd" clip-rule="evenodd" d="M84.1841 55.8101C93.154 84.9299 146.307 120.574 171.192 114.493C177.39 65.6391 123.387 28.6578 84.1841 55.8101Z" fill="#B44647"/>
<path fill-rule="evenodd" clip-rule="evenodd" d="M189.268 243.321C185.923 223.525 175.989 217.413 163.577 217.791C139.826 218.517 122.455 217.965 129.834 176.546C141.669 177.683 169.053 160.703 161.288 173.811C151.822 189.786 164.215 194.617 177.044 196.002C196.19 198.068 211.527 230.198 189.268 243.321Z" fill="#B44647"/>
<path fill-rule="evenodd" clip-rule="evenodd" d="M125.573 56.8935C86.1581 69.3778 64.892 112.284 61.5669 124.716C56.6621 75.7264 94.5546 30.6716 125.573 56.8935Z" fill="#B44647"/>
<path fill-rule="evenodd" clip-rule="evenodd" d="M61.3086 108.223C65.3567 107.591 69.6371 113.459 70.8678 121.33C72.0986 129.202 69.8139 136.096 65.7658 136.729C61.7177 137.362 57.4373 131.494 56.2065 123.622C54.9758 115.75 57.2605 108.856 61.3086 108.223Z" fill="#FAC096"/>
<path fill-rule="evenodd" clip-rule="evenodd" d="M171.193 108.223C167.146 107.591 162.865 113.459 161.635 121.33C160.404 129.202 162.689 136.096 166.737 136.729C170.784 137.362 175.064 131.494 176.295 123.622C177.526 115.75 175.241 108.856 171.193 108.223Z" fill="#FAC096"/>
<path fill-rule="evenodd" clip-rule="evenodd" d="M84.5965 59.6508C75.6968 85.3673 116.008 117.02 151.917 132.161C166.96 138.504 184.122 143.498 172.309 166.464C203.083 140.213 163.556 125.747 154.281 115.564C122.795 80.9928 118.944 34.416 84.5965 59.6508Z" fill="#B44647"/>
</g>
<defs>
<clipPath id="clip0_1657_1260">
<rect x="0.5" width="241" height="241" rx="120.5" fill="white"/>
</clipPath>
</defs>
</svg>
