<svg width="127" height="127" viewBox="0 0 127 127" fill="none" xmlns="http://www.w3.org/2000/svg">
<circle cx="63.5016" cy="63.1774" r="63.1774" fill="#5F42A9"/>
<path d="M45.4039 81.2792C48.9841 84.8594 53.5456 87.2975 58.5114 88.2853C63.4773 89.273 68.6246 88.7661 73.3023 86.8285C77.9801 84.8909 81.9782 81.6097 84.7911 77.3999C87.6041 73.19 89.1055 68.2406 89.1055 63.1774C89.1055 58.1142 87.6041 53.1648 84.7911 48.9549C81.9782 44.7451 77.9801 41.4639 73.3023 39.5263C68.6246 37.5887 63.4773 37.0818 58.5114 38.0695C53.5456 39.0573 48.9841 41.4954 45.4039 45.0756" stroke="#FDFDF7" stroke-width="3"/>
<path d="M71.1836 63.1773L72.3549 62.2403L73.1045 63.1773L72.3549 64.1144L71.1836 63.1773ZM40.4639 64.6773C39.6355 64.6773 38.9639 64.0058 38.9639 63.1773C38.9639 62.3489 39.6355 61.6773 40.4639 61.6773V64.6773ZM60.9437 50.3774L62.115 49.4404L72.3549 62.2403L71.1836 63.1773L70.0123 64.1144L59.7724 51.3145L60.9437 50.3774ZM71.1836 63.1773L72.3549 64.1144L62.115 76.9142L60.9437 75.9772L59.7724 75.0402L70.0123 62.2403L71.1836 63.1773ZM71.1836 63.1773V64.6773H40.4639V63.1773V61.6773H71.1836V63.1773Z" fill="#FDFDF7"/>
</svg>
