<svg width="24" height="24" viewBox="0 0 24 24" fill="none" xmlns="http://www.w3.org/2000/svg">
<path d="M19.9246 19.4246C18.4562 20.8931 16.5852 21.8931 14.5484 22.2982C12.5116 22.7034 10.4004 22.4955 8.48182 21.7007C6.5632 20.906 4.92332 19.5602 3.76957 17.8335C2.61581 16.1068 2 14.0767 2 12C2 9.9233 2.61581 7.89323 3.76957 6.16651C4.92332 4.4398 6.5632 3.09399 8.48182 2.29927C10.4004 1.50455 12.5116 1.29661 14.5484 1.70175C16.5852 2.1069 18.4562 3.10693 19.9246 4.57538" stroke="#48495B" stroke-width="1.8"/>
<path d="M18.5605 12.0002L19.2786 11.4576L19.6886 12.0002L19.2786 12.5427L18.5605 12.0002ZM8.39113 12.9002C7.89408 12.9002 7.49113 12.4972 7.49113 12.0002C7.49113 11.5031 7.89408 11.1002 8.39113 11.1002V12.9002ZM15.1707 7.51367L15.8888 6.97112L19.2786 11.4576L18.5605 12.0002L17.8425 12.5427L14.4527 8.05622L15.1707 7.51367ZM18.5605 12.0002L19.2786 12.5427L15.8888 17.0292L15.1707 16.4867L14.4527 15.9441L17.8425 11.4576L18.5605 12.0002ZM18.5605 12.0002V12.9002H8.39113V12.0002V11.1002H18.5605V12.0002Z" fill="#48495B"/>
</svg>
