<svg width="24" height="24" viewBox="0 0 24 24" fill="none" xmlns="http://www.w3.org/2000/svg">
<path d="M7.6454 9.71459H16.3589M7.6454 14.2854H13.8595M12.0022 22C14.1745 21.9995 16.2875 21.2917 18.0218 19.9836C19.7561 18.6754 21.0173 16.8382 21.6146 14.7496C22.2119 12.661 22.1128 10.4347 21.3324 8.40746C20.552 6.38017 19.1327 4.66215 17.2891 3.5132C15.4455 2.36426 13.2779 1.84688 11.1141 2.03933C8.95034 2.23177 6.90808 3.12357 5.29619 4.57984C3.68431 6.03611 2.59046 7.97766 2.18008 10.1109C1.76969 12.244 2.0651 14.4529 3.02162 16.4032C3.13838 16.6411 3.1773 16.9092 3.11784 17.1665L2.23568 20.9892C2.21081 21.0965 2.21366 21.2083 2.24397 21.3142C2.27427 21.42 2.33103 21.5165 2.4089 21.5943C2.48677 21.6722 2.58319 21.729 2.68906 21.7593C2.79493 21.7896 2.90677 21.7924 3.01405 21.7675L6.83567 20.8843C7.0937 20.8278 7.36332 20.8622 7.59892 20.9816C8.96907 21.6545 10.4757 22.0029 12.0022 22Z" stroke="#48495B" stroke-width="1.8" stroke-linecap="round" stroke-linejoin="round"/>
</svg>
