<svg width="22" height="22" viewBox="0 0 22 22" fill="none" xmlns="http://www.w3.org/2000/svg">
<path d="M3.09405 4.61731L5.37838 18.6929C5.48287 19.3372 5.8082 19.9228 6.29643 20.3454C6.78466 20.7679 7.40408 20.9999 8.04432 21H11.6638M18.9049 4.61731L16.6216 18.6929C16.5171 19.3372 16.1918 19.9228 15.7036 20.3454C15.2153 20.7679 14.5959 20.9999 13.9557 21H10.3362M8.86162 10.0245V15.5928M13.1384 10.0245V15.5928M1 4.61731H21M14.0022 4.61731V2.65426C14.0022 2.21552 13.8313 1.79476 13.5272 1.48452C13.2231 1.17429 12.8106 1 12.3805 1H9.61946C9.18938 1 8.77691 1.17429 8.4728 1.48452C8.16869 1.79476 7.99784 2.21552 7.99784 2.65426V4.61731H14.0022Z" stroke="#FF4C51" stroke-width="1.5" stroke-linecap="round" stroke-linejoin="round"/>
</svg>
