<svg width="960" height="1080" viewBox="0 0 960 1080" fill="none" xmlns="http://www.w3.org/2000/svg">
<g clip-path="url(#clip0_132_1557)">
<rect width="960" height="1080" fill="#F8F5FF"/>
<path d="M-110 850.5L436 403.5L610.5 607L418 1111.5L9 1251.5L-110 850.5Z" fill="#F4EFFF"/>
<path d="M557.524 672.661H401.841C355.137 672.661 324 649.308 324 594.819V485.841C324 431.352 355.137 408 401.841 408H557.524C604.229 408 635.366 431.352 635.366 485.841V594.819C635.366 649.308 604.229 672.661 557.524 672.661Z" fill="#5F42A9"/>
<path d="M557.524 493.626L508.795 532.547C492.76 545.313 466.45 545.313 450.414 532.547L401.841 493.626" fill="#5F42A9"/>
<path d="M557.524 493.626L508.795 532.547C492.76 545.313 466.45 545.313 450.414 532.547L401.841 493.626" stroke="#F8F5FF" stroke-width="11.3" stroke-miterlimit="10" stroke-linecap="round" stroke-linejoin="round"/>
</g>
<defs>
<clipPath id="clip0_132_1557">
<rect width="960" height="1080" fill="white"/>
</clipPath>
</defs>
</svg>
