<svg width="147" height="146" viewBox="0 0 147 146" fill="none" xmlns="http://www.w3.org/2000/svg">
<circle cx="73.5" cy="73" r="72.5" stroke="#5F42A9"/>
<circle cx="73.7717" cy="73.2718" r="60.6271" fill="#DAD7E3"/>
<path d="M74.3032 66.9062C81.6682 66.9062 87.6386 60.9357 87.6386 53.5708C87.6386 46.2058 81.6682 40.2354 74.3032 40.2354C66.9383 40.2354 60.9678 46.2058 60.9678 53.5708C60.9678 60.9357 66.9383 66.9062 74.3032 66.9062Z" fill="white"/>
<path d="M100.975 91.9109C100.975 100.196 100.975 106.913 74.3037 106.913C47.6328 106.913 47.6328 100.196 47.6328 91.9109C47.6328 83.6263 59.5747 76.9086 74.3037 76.9086C89.0327 76.9086 100.975 83.6263 100.975 91.9109Z" fill="white"/>
</svg>
