<svg width="126" height="126" viewBox="0 0 126 126" fill="none" xmlns="http://www.w3.org/2000/svg">
<rect width="126" height="126" rx="63" fill="#FFF9E5"/>
<path d="M66.9465 45.5969L63 69L59.0535 45.5969C58.9589 45.031 58.99 44.4516 59.1448 43.8987C59.2995 43.3459 59.5742 42.833 59.9497 42.3956C60.3252 41.9582 60.7925 41.6068 61.3193 41.3658C61.846 41.1248 62.4195 41 63 41C63.5805 41 64.154 41.1248 64.6807 41.3658C65.2075 41.6068 65.6748 41.9582 66.0503 42.3956C66.4258 42.833 66.7005 43.3459 66.8552 43.8987C67.01 44.4516 67.0411 45.031 66.9465 45.5969Z" fill="#FFC400" stroke="#FFC400" stroke-width="5" stroke-linecap="round" stroke-linejoin="round"/>
<path d="M63 85C64.6569 85 66 83.6569 66 82C66 80.3431 64.6569 79 63 79C61.3431 79 60 80.3431 60 82C60 83.6569 61.3431 85 63 85Z" fill="#FFC400" stroke="#FFC400" stroke-width="3"/>
</svg>
