<svg width="24" height="24" viewBox="0 0 24 24" fill="none" xmlns="http://www.w3.org/2000/svg">
<path d="M12 20.3824C10.668 21.0775 8.917 21.5 7 21.5C5.934 21.5 4.92 21.3692 4 21.1345C2.418 20.7288 2 19.6894 2 18.0196V5.98035C2 4.87947 3.04 4.12394 4 4.36982C4.92 4.60453 5.934 4.73529 7 4.73529C8.917 4.73529 10.668 4.31282 12 3.61765C13.332 2.92247 15.083 2.5 17 2.5C18.066 2.5 19.08 2.63076 20 2.86547C21.582 3.27118 22 4.31059 22 5.98035V18.0196C22 19.1205 20.96 19.8761 20 19.6302C19.08 19.3955 18.066 19.2647 17 19.2647C15.083 19.2647 13.332 19.6872 12 20.3824Z" fill="white" stroke="white" stroke-width="1.8" stroke-linecap="round" stroke-linejoin="round"/>
<path d="M14.5 12C14.5 12.663 14.2366 13.2989 13.7678 13.7678C13.2989 14.2366 12.663 14.5 12 14.5C11.337 14.5 10.7011 14.2366 10.2322 13.7678C9.76339 13.2989 9.5 12.663 9.5 12C9.5 11.337 9.76339 10.7011 10.2322 10.2322C10.7011 9.76339 11.337 9.5 12 9.5C12.663 9.5 13.2989 9.76339 13.7678 10.2322C14.2366 10.7011 14.5 11.337 14.5 12ZM5.5 13V13.009ZM18.5 10.992V11.002Z" fill="#5F42A9"/>
<path d="M5.5 13V13.009M18.5 10.992V11.002M14.5 12C14.5 12.663 14.2366 13.2989 13.7678 13.7678C13.2989 14.2366 12.663 14.5 12 14.5C11.337 14.5 10.7011 14.2366 10.2322 13.7678C9.76339 13.2989 9.5 12.663 9.5 12C9.5 11.337 9.76339 10.7011 10.2322 10.2322C10.7011 9.76339 11.337 9.5 12 9.5C12.663 9.5 13.2989 9.76339 13.7678 10.2322C14.2366 10.7011 14.5 11.337 14.5 12Z" stroke="#5F42A9" stroke-width="2" stroke-linecap="round" stroke-linejoin="round"/>
</svg>
