<svg width="24" height="25" viewBox="0 0 24 25" fill="none" xmlns="http://www.w3.org/2000/svg">
<path d="M12 20.8824C10.668 21.5775 8.917 22 7 22C5.934 22 4.92 21.8692 4 21.6345C2.418 21.2288 2 20.1894 2 18.5196V6.48035C2 5.37947 3.04 4.62394 4 4.86982C4.92 5.10453 5.934 5.23529 7 5.23529C8.917 5.23529 10.668 4.81282 12 4.11765C13.332 3.42247 15.083 3 17 3C18.066 3 19.08 3.13076 20 3.36547C21.582 3.77118 22 4.81059 22 6.48035V18.5196C22 19.6205 20.96 20.3761 20 20.1302C19.08 19.8955 18.066 19.7647 17 19.7647C15.083 19.7647 13.332 20.1872 12 20.8824Z" stroke="#48495B" stroke-width="1.8" stroke-linecap="round" stroke-linejoin="round"/>
<path d="M5.5 13.5V13.509M18.5 11.492V11.502M14.5 12.5C14.5 13.163 14.2366 13.7989 13.7678 14.2678C13.2989 14.7366 12.663 15 12 15C11.337 15 10.7011 14.7366 10.2322 14.2678C9.76339 13.7989 9.5 13.163 9.5 12.5C9.5 11.837 9.76339 11.2011 10.2322 10.7322C10.7011 10.2634 11.337 10 12 10C12.663 10 13.2989 10.2634 13.7678 10.7322C14.2366 11.2011 14.5 11.837 14.5 12.5Z" stroke="#48495B" stroke-width="2" stroke-linecap="round" stroke-linejoin="round"/>
</svg>
