<svg width="19" height="19" viewBox="0 0 19 19" fill="none" xmlns="http://www.w3.org/2000/svg">
<path d="M8.13203 1.22497C8.23495 1.00735 8.39414 0.824124 8.5916 0.696009C8.78906 0.567895 9.01691 0.5 9.2494 0.5C9.48189 0.5 9.70974 0.567895 9.9072 0.696009C10.1047 0.824124 10.2638 1.00735 10.3668 1.22497L12.4727 5.67974L17.1818 6.39378C17.412 6.42844 17.6283 6.52967 17.8062 6.68601C17.9842 6.84235 18.1167 7.04756 18.1887 7.27843C18.2608 7.5093 18.2695 7.7566 18.2139 7.99237C18.1582 8.22813 18.0405 8.44294 17.8741 8.6125L14.4652 12.0815L15.2696 16.9771C15.3087 17.2163 15.283 17.4621 15.1952 17.6868C15.1075 17.9116 14.9614 18.1062 14.7733 18.2487C14.5852 18.3912 14.3626 18.476 14.1308 18.4935C13.899 18.5109 13.6671 18.4603 13.4613 18.3474L9.2494 16.0376L5.03745 18.3503C4.8315 18.4634 4.59929 18.5141 4.36715 18.4966C4.13501 18.4791 3.91221 18.394 3.72399 18.2511C3.53577 18.1082 3.38966 17.9131 3.30221 17.6879C3.21475 17.4628 3.18945 17.2165 3.22917 16.9771L4.03224 12.0815L0.626128 8.61394C0.459668 8.44448 0.341942 8.22979 0.286261 7.99413C0.23058 7.75847 0.239166 7.51125 0.311047 7.28042C0.382928 7.04959 0.515237 6.84436 0.693015 6.68793C0.870793 6.5315 1.08695 6.43011 1.31704 6.39523L6.02467 5.68119L8.13203 1.22497Z" fill="url(#paint0_linear_1163_201)"/>
<defs>
<linearGradient id="paint0_linear_1163_201" x1="18.2479" y1="18.9024" x2="-1.01815" y2="1.49987" gradientUnits="userSpaceOnUse">
<stop stop-color="#FF6F47"/>
<stop offset="1" stop-color="#FFCD0F"/>
</linearGradient>
</defs>
</svg>
