<svg width="960" height="1231" viewBox="0 0 960 1231" fill="none" xmlns="http://www.w3.org/2000/svg">
<g clip-path="url(#clip0_132_228)">
<rect width="960" height="1231" fill="#F8F5FF"/>
<path d="M26.281 556.032C26.281 582.331 34.4984 691.336 38.8873 747.672C40.3849 766.896 56.4192 781.729 75.702 781.729H106.626" stroke="#303030" stroke-width="1.5" stroke-miterlimit="10" stroke-linecap="round" stroke-linejoin="round"/>
<path d="M144.286 556.032C144.286 582.331 152.504 691.336 156.893 747.672C158.39 766.896 174.425 781.729 193.71 781.729H224.633" stroke="#303030" stroke-width="1.5" stroke-miterlimit="10" stroke-linecap="round" stroke-linejoin="round"/>
<path d="M14.7954 767.093C9.85028 767.093 7.85923 772.891 11.9214 775.451C23.6685 782.855 37.7161 786.911 52.2377 786.911H287.122C301.643 786.911 315.689 782.855 327.436 775.451C331.498 772.891 329.505 767.093 324.562 767.093H14.7954Z" fill="#7F5BDD"/>
<path d="M85.2823 627.803C113.826 627.803 135.491 625.143 150.915 622.113C169.451 618.471 184.057 604.263 188.509 585.907C192.088 571.151 195.371 553.738 194.389 542.474C192.552 521.375 175.963 509.901 155.163 513.885C134.643 517.815 108.259 521.778 85.2823 521.778C62.3053 521.778 35.9219 517.815 15.4012 513.885C-5.39861 509.901 -21.987 521.375 -23.8243 542.474C-24.8047 553.738 -21.5217 571.149 -17.9443 585.907C-13.4926 604.265 1.11339 618.471 19.6495 622.113C35.0757 625.145 56.7391 627.803 85.2823 627.803Z" fill="#7F5BDD"/>
<path d="M28.5683 550.921C28.5683 553.743 26.2807 556.032 23.4565 556.032C20.6323 556.032 18.3447 553.743 18.3447 550.921C18.3447 548.096 20.6344 545.809 23.4565 545.809C26.2786 545.809 28.5683 548.096 28.5683 550.921Z" fill="white"/>
<path d="M31.3925 587.64C31.3925 590.464 29.105 592.752 26.2807 592.752C23.4565 592.752 21.1689 590.464 21.1689 587.64C21.1689 584.818 23.4565 582.528 26.2807 582.528C29.105 582.528 31.3925 584.818 31.3925 587.64Z" fill="white"/>
<path d="M141.999 550.921C141.999 553.743 144.287 556.032 147.111 556.032C149.933 556.032 152.223 553.743 152.223 550.921C152.223 548.096 149.933 545.809 147.111 545.809C144.287 545.809 141.999 548.096 141.999 550.921Z" fill="white"/>
<path d="M139.175 587.64C139.175 590.464 141.462 592.752 144.286 592.752C147.108 592.752 149.398 590.464 149.398 587.64C149.398 584.818 147.108 582.528 144.286 582.528C141.462 582.528 139.175 584.818 139.175 587.64Z" fill="white"/>
<path d="M186.622 1011.05L167.642 824.528C165.463 803.103 149.104 786.91 129.642 786.91H70.4755C51.0131 786.91 34.6563 803.103 32.4749 824.528L13.4929 1011.05" stroke="#303030" stroke-width="1.5" stroke-miterlimit="10" stroke-linecap="round" stroke-linejoin="round"/>
<path d="M18.4595 962.254H181.655" stroke="#303030" stroke-width="1.5" stroke-miterlimit="10" stroke-linecap="round" stroke-linejoin="round"/>
<path d="M325.04 1011.05L306.06 824.528C303.881 803.103 287.522 786.91 268.06 786.91H208.896C189.433 786.91 173.077 803.103 170.895 824.528L151.915 1011.05" stroke="#303030" stroke-width="1.5" stroke-miterlimit="10" stroke-linecap="round" stroke-linejoin="round"/>
<path d="M156.88 962.254H320.076" stroke="#303030" stroke-width="1.5" stroke-miterlimit="10" stroke-linecap="round" stroke-linejoin="round"/>
<path d="M350.33 916.665C350.33 916.665 349.869 858.876 349.417 840.049C348.965 821.223 342.888 787.666 349.417 764.371C349.417 764.371 301.905 764.773 280.142 764.371V661.659C280.142 661.659 331.587 659.746 364.852 662.057C400.23 664.514 419.575 675.228 426.827 684.199C436.088 695.652 438.178 708.576 434.504 753.452C429.976 808.769 417.273 927.367 417.273 927.367C417.273 927.367 405.805 943.8 373.162 943.8C339.564 943.798 350.33 916.665 350.33 916.665Z" fill="#FFCCCC"/>
<path d="M496.482 962.394C483.934 959.083 476.727 956.315 465.887 950.022C453.33 942.731 430.966 924.79 425.867 920.533C419.227 914.99 402.708 915.871 394.707 927.449C391.956 926.201 389.037 925.207 386.111 925.748C383.328 926.263 380.997 928.094 378.787 929.867C374.684 933.159 368.081 938.785 358.578 937.589C349.411 936.433 350.493 925.978 350.493 925.978L350.329 916.668C345.49 916.159 342.999 918.408 342.139 924.606C340.938 933.26 340.341 936.433 338.151 951.519C336.904 960.1 332.563 973.148 336.662 992.55C338.216 1003.17 349.824 998.633 366.343 998.633C387.596 998.633 459.394 998.633 459.394 998.633C474.632 998.633 498.224 998.633 507.426 998.633C516.626 998.633 523.791 991.195 523.627 988.003C522.9 973.938 517.106 967.837 496.482 962.394Z" fill="white" stroke="#303030" stroke-width="1.5" stroke-miterlimit="10" stroke-linecap="round" stroke-linejoin="round"/>
<path d="M392.344 960.583C376.266 954.088 370.477 952.115 338.153 951.517C336.422 959.406 333.136 975.855 336.664 992.548C338.218 1003.17 349.827 998.631 366.346 998.631C387.598 998.631 459.396 998.631 459.396 998.631C460.615 998.631 461.9 998.631 463.214 998.631L464.289 993.885C439.367 993.887 414.62 969.582 392.344 960.583Z" fill="white" stroke="#303030" stroke-width="1.5" stroke-miterlimit="10" stroke-linecap="round" stroke-linejoin="round"/>
<path d="M448.655 968.804C454.89 960.775 468.204 953.164 479.928 957.077" stroke="#303030" stroke-width="1.5" stroke-miterlimit="10" stroke-linecap="round" stroke-linejoin="round"/>
<path d="M460.097 946.392C454.518 949.442 451.39 953.331 447.607 959.609" stroke="#303030" stroke-width="1.5" stroke-miterlimit="10" stroke-linecap="round" stroke-linejoin="round"/>
<path d="M465.886 950.024C458.71 949.712 448.558 951.781 431.422 954.668" stroke="#303030" stroke-width="1.5" stroke-miterlimit="10" stroke-linecap="round" stroke-linejoin="round"/>
<path d="M445.948 936.939C440.368 939.989 437.728 943.077 433.945 949.355" stroke="#303030" stroke-width="1.5" stroke-miterlimit="10" stroke-linecap="round" stroke-linejoin="round"/>
<path d="M451.737 940.573C444.561 940.261 434.409 942.33 417.275 945.217" stroke="#303030" stroke-width="1.5" stroke-miterlimit="10" stroke-linecap="round" stroke-linejoin="round"/>
<path d="M432.097 925.976C426.518 929.025 423.09 934.429 419.307 940.705" stroke="#303030" stroke-width="1.5" stroke-miterlimit="10" stroke-linecap="round" stroke-linejoin="round"/>
<path d="M437.586 931.122C430.409 930.81 420.257 932.879 403.123 935.766" stroke="#303030" stroke-width="1.5" stroke-miterlimit="10" stroke-linecap="round" stroke-linejoin="round"/>
<path d="M517.311 1009.3C509.133 1011.51 463.937 1011.19 463.937 1011.19C463.937 1011.19 388.771 1011.19 371.576 1011.19C354.382 1011.19 341.685 1010.72 337.302 1004.65C334.718 1001.07 335.015 998.56 335.759 989.364C335.759 989.364 342.903 994.147 372.282 994.147C401.66 994.147 473.357 994.374 488.931 994.147C499.777 993.989 516.634 995.448 523.633 988.001C526.193 991.427 529.786 1005.94 517.311 1009.3Z" fill="white" stroke="#303030" stroke-width="1.5" stroke-miterlimit="10" stroke-linecap="round" stroke-linejoin="round"/>
<path d="M306.181 648.118C306.181 648.118 336.607 649.641 368.215 653.533C389.413 656.143 416.387 659.949 433.655 680.721C450.397 700.859 445.924 735.405 444.749 751.725C441.617 795.219 433.655 878.974 433.655 878.974C422.194 897.207 347.833 897.207 342.777 878.974C338.86 802.358 339.908 777.667 339.663 767.095C339.663 767.095 234.909 767.201 208.103 767.201V639.909H301.691L306.181 648.118Z" fill="#322F39"/>
<path d="M365.88 725.208C359.465 728.826 343.189 741.811 339.661 767.093" stroke="#303030" stroke-width="1.5" stroke-miterlimit="10" stroke-linecap="round" stroke-linejoin="round"/>
<path d="M258.656 653.53C264.802 692.167 261.073 747.276 241.622 767.093" stroke="#303030" stroke-width="1.5" stroke-miterlimit="10" stroke-linecap="round" stroke-linejoin="round"/>
<path d="M220.645 731.469H341.676C341.676 731.469 340.332 739.684 350.369 739.809C350.382 747.633 355.643 751.911 361.64 751.911C361.64 751.911 352.213 784.569 365.882 894.673" stroke="#303030" stroke-width="1.5" stroke-miterlimit="10" stroke-linecap="round" stroke-linejoin="round"/>
<path d="M350.854 719.598C343.42 726.058 338.319 735.148 336.678 744.859" stroke="#303030" stroke-width="1.5" stroke-miterlimit="10" stroke-linecap="round" stroke-linejoin="round"/>
<path d="M431.335 898.404C429.612 910.379 343.766 908.507 343.766 900.259L342.777 878.972C342.777 886.843 432.56 887.252 433.655 878.972L431.335 898.404Z" fill="#303030"/>
<path d="M169.012 924.991C167.85 898.69 158.447 766.333 158.447 766.333H134.126C134.126 766.333 134.08 746.15 134.08 677.027C134.08 677.027 216.109 671.709 232.161 683.781C246.267 694.39 248.05 718.412 243.944 764.435C237.53 836.372 222.969 976.496 222.969 976.496L172.074 979.396L169.012 924.991Z" fill="#FFCCCC"/>
<path d="M242.99 683.788C233.195 671.671 218.171 669.753 218.171 669.753V639.909H115.931C101.278 685.984 97.5661 722.451 102.914 740.318C109.168 761.217 124.551 767.965 143.399 767.965H150.034L155.65 885.105C155.65 885.105 162.708 892.483 197.984 892.647C241.405 892.849 245.154 877.745 245.154 877.745C245.154 877.745 248.043 815.475 251.495 763.447C254.949 711.418 252.099 695.054 242.99 683.788Z" fill="#322F39"/>
<path d="M156.724 897.558C156.724 897.558 159.71 903.709 196.607 903.709C240.91 903.709 243.568 897.205 243.568 897.205L245.156 876.873C245.156 876.873 236.188 883.262 194.14 883.262C156.629 883.262 155.257 875.962 155.257 875.962L156.724 897.558Z" fill="#303030"/>
<path d="M157.843 678.141C173.46 671.166 190.197 665.423 207.275 666.351C224.354 667.279 238.008 671.85 245.877 687.036C257.001 708.511 253.138 732.854 252.497 744.694C251.95 754.824 251.402 764.955 250.855 775.085" stroke="#303030" stroke-width="1.5" stroke-miterlimit="10" stroke-linecap="round" stroke-linejoin="round"/>
<path d="M127.52 651.282C121.026 694.065 115.498 714.796 125.01 731.467C131.459 742.772 147.638 744.025 147.638 744.025C147.638 744.025 150.391 753.448 158.84 751.018C155.665 773.306 165.75 891.414 165.75 891.414" stroke="#303030" stroke-width="1.5" stroke-miterlimit="10" stroke-linecap="round" stroke-linejoin="round"/>
<path d="M170.416 739.446C157.843 746.15 152.77 759.263 150.391 767.457" stroke="#303030" stroke-width="1.5" stroke-miterlimit="10" stroke-linecap="round" stroke-linejoin="round"/>
<path d="M154.116 737.256C148.812 740.982 145.089 746.886 144.014 753.279" stroke="#303030" stroke-width="1.5" stroke-miterlimit="10" stroke-linecap="round" stroke-linejoin="round"/>
<path d="M284.804 988.018C277.033 995.463 259.676 994.006 247.63 994.162C244.691 994.162 211.913 994.162 205.769 994.162C173.144 994.162 164.388 990.217 164.388 990.217C164.388 997.346 164.056 1001.08 166.926 1004.66C171.793 1010.73 185.893 1011.21 204.99 1011.21C210.361 1011.21 242.003 1011.21 243.778 1011.21C243.778 1011.21 265.13 1010.99 274.351 1009.32C286.414 1007.13 284.804 997.802 284.804 988.018Z" fill="white" stroke="#303030" stroke-width="1.5" stroke-miterlimit="10" stroke-linecap="round" stroke-linejoin="round"/>
<path d="M171.137 938.974L169.555 925.006C169.555 925.006 163.16 924.357 164.376 933.808C166.88 953.257 166.67 956.133 164.993 970.049C163.467 982.72 164.387 990.219 164.387 990.219C164.387 990.219 171.351 994.58 197.055 995.723C230.879 997.225 244.217 997.06 260.212 996.264C277.807 995.387 280.954 992.271 284.804 988.018C284.804 973.135 279.149 968.355 269.209 963.741C257.156 958.146 251.084 952.16 245.292 943.815C242.652 940.008 241.131 936.637 238.512 928.841C236.112 921.699 228.975 915.941 209.034 917.737C178.309 920.503 171.137 938.974 171.137 938.974Z" fill="white" stroke="#303030" stroke-width="1.5" stroke-miterlimit="10" stroke-linecap="round" stroke-linejoin="round"/>
<path d="M268.376 963.158C237.584 951.058 214.012 964.05 204.457 968.928" stroke="#303030" stroke-width="1.5" stroke-miterlimit="10" stroke-linecap="round" stroke-linejoin="round"/>
<path d="M199.969 960.323C215.207 951.533 233.299 946.966 247.137 946.364" stroke="#303030" stroke-width="1.5" stroke-miterlimit="10" stroke-linecap="round" stroke-linejoin="round"/>
<path d="M254.761 954.684C243.209 948.288 217.568 949.946 194.24 952.093" stroke="#303030" stroke-width="1.5" stroke-miterlimit="10" stroke-linecap="round" stroke-linejoin="round"/>
<path d="M189.836 945.741C205.967 936.773 227.689 934.608 240.332 934.007" stroke="#303030" stroke-width="1.5" stroke-miterlimit="10" stroke-linecap="round" stroke-linejoin="round"/>
<path d="M243.285 941.939C232.73 935.544 208.448 935.58 187.133 937.729" stroke="#303030" stroke-width="1.5" stroke-miterlimit="10" stroke-linecap="round" stroke-linejoin="round"/>
<path d="M164.388 990.219C164.388 990.219 171.356 994.58 197.056 995.723C205.611 996.103 212.85 996.374 219.158 996.558C199.547 994.952 191.401 986.888 187.133 982.309C179.522 974.139 178.297 959.691 166.251 954.125C166.251 954.134 166.251 954.145 166.251 954.153C166.29 958.979 165.822 963.163 164.994 970.051C164.708 972.427 164.507 974.622 164.37 976.617C164.279 977.948 164.217 979.193 164.176 980.344C164.095 982.647 164.1 984.581 164.141 986.109C164.21 988.782 164.388 990.219 164.388 990.219Z" fill="white" stroke="#303030" stroke-width="1.5" stroke-miterlimit="10" stroke-linecap="round" stroke-linejoin="round"/>
<path d="M183.3 354.862C182.361 380.226 203.143 408.717 229.7 409.702C256.256 410.687 278.532 383.79 279.471 358.424C280.411 333.06 259.645 311.7 233.087 310.715C206.53 309.733 184.241 329.496 183.3 354.862Z" fill="#303030"/>
<path d="M195.794 373.34C191.747 373.586 188.377 372.626 185.157 370C181.594 367.096 180.792 360.32 181.713 356.868C180.09 357.154 178.439 357.407 176.799 357.256C175.156 357.104 173.503 356.505 172.369 355.308C171.667 354.568 171.289 353.191 172.154 352.655C172.535 352.419 173.016 352.455 173.461 352.425C175.747 352.269 177.496 350.185 178.153 347.991C178.811 345.796 178.658 343.455 178.785 341.167C179.296 332.06 185.698 320.216 195.302 318.147C198.765 317.4 202.379 317.766 205.842 318.504C207.484 312.717 211.36 307.687 216.238 304.166C221.117 300.645 226.947 298.576 232.894 297.669C236.921 297.055 241.072 296.964 245.037 297.899C252.41 299.637 258.466 304.703 265.112 308.337C271.758 311.972 280.352 314.078 286.645 309.862C287.76 309.116 289.184 308.161 290.299 308.91C290.759 309.22 291.011 309.754 291.207 310.274C293.385 316.045 290.32 322.196 285.591 325.676C289.708 325.828 293.638 327.375 296.174 331.355C298.563 335.103 299.159 340.736 298.455 345.154C296.25 342.955 293.393 341.416 290.344 340.788C293.201 345.16 293.679 350.988 291.573 355.769C289.922 359.517 286.723 362.528 282.934 364.058C280.923 364.869 279.079 364.672 277 365.036C274.29 365.508 271.578 365.971 268.86 366.401C257.992 368.118 247.058 369.416 236.088 370.297C229.425 370.831 222.755 371.033 216.087 371.435C209.309 371.84 202.565 372.933 195.794 373.34Z" fill="#303030"/>
<path d="M278.658 376.802C279.231 369.687 279.82 365.466 279.573 356.349C279.212 342.97 272.02 332.153 272.02 332.153C263.777 318.803 240.092 309.711 221.227 331.277C210.356 331.301 204.87 337.029 202.777 345.355C206.279 352.443 209.982 360.002 209.395 370.089C209.095 377.053 207.552 377.276 204.931 373.983C201.418 369.717 196.077 366.038 190.388 365.906C182.977 365.735 178.082 369.977 176.838 375.288C175.608 380.538 179.697 386.34 184.802 388.58C189.907 390.82 196.716 390.958 201.522 387.985C201.522 387.985 201.537 394.401 201.55 399.911C201.563 405.421 203.476 410.57 207.24 414.52L204.792 443.046L188.583 448.465C192.69 453.079 217.401 482.397 243.111 484.076C268.821 485.758 268.724 449.343 268.724 449.343L252.752 445.361L252.958 429.461C256.085 429.491 268.205 429.216 273.922 423.67C279.642 418.123 278.965 410.574 278.526 398.628C278.292 392.19 278.186 382.663 278.658 376.802Z" fill="#FFCCCC"/>
<path d="M256.392 368.457C257.158 365.406 259.989 363.716 263.22 363.248C266.449 362.781 271.152 363.257 272.297 367.741C271.384 372.387 261.177 374.42 256.392 368.457Z" fill="white"/>
<path d="M270.063 369.667C269.215 371.706 266.793 372.652 264.653 371.779C262.512 370.907 261.465 368.546 262.313 366.507C263.162 364.469 265.583 363.523 267.724 364.395C269.864 365.267 270.911 367.628 270.063 369.667Z" fill="#303030"/>
<path d="M262.019 366.412L266.19 368.087L261.591 368.676L262.019 366.412Z" fill="white"/>
<path d="M272.764 366.86C270.531 363.668 266.765 363.11 263.536 363.577C260.307 364.045 257.122 366.295 256.392 368.457" stroke="#303030" stroke-width="1.5" stroke-miterlimit="10" stroke-linecap="round" stroke-linejoin="round"/>
<path d="M260.411 345.837C266.938 345.496 273.476 348.437 276.742 352.38" stroke="#303030" stroke-width="1.5" stroke-miterlimit="10" stroke-linecap="round" stroke-linejoin="round"/>
<path d="M223.85 369.033C224.616 365.982 227.447 364.291 230.678 363.824C233.907 363.356 238.61 363.833 239.755 368.317C238.844 372.963 228.635 374.995 223.85 369.033Z" fill="white"/>
<path d="M237.523 370.243C236.674 372.281 234.253 373.227 232.112 372.355C229.972 371.483 228.925 369.122 229.773 367.083C230.621 365.044 233.043 364.099 235.183 364.971C237.324 365.845 238.369 368.204 237.523 370.243Z" fill="#303030"/>
<path d="M229.479 366.988L233.647 368.663L229.051 369.252L229.479 366.988Z" fill="white"/>
<path d="M240.224 367.436C237.991 364.244 234.225 363.685 230.996 364.151C227.767 364.618 224.582 366.871 223.852 369.031" stroke="#303030" stroke-width="1.5" stroke-miterlimit="10" stroke-linecap="round" stroke-linejoin="round"/>
<path d="M217.587 356.615C220.11 351.192 227.174 346.355 233.597 345.863" stroke="#303030" stroke-width="1.5" stroke-miterlimit="10" stroke-linecap="round" stroke-linejoin="round"/>
<path d="M250.796 358.39C252.209 367.702 255.854 373.567 258.02 378.255C259.68 381.849 259.794 388.045 250.843 388.337" stroke="#303030" stroke-width="1.5" stroke-miterlimit="10" stroke-linecap="round" stroke-linejoin="round"/>
<path d="M183.828 377.618C185.153 376.662 188.434 375.891 191.767 376.731C195.099 377.571 197.893 380.129 198.91 383.275" stroke="#303030" stroke-width="1.5" stroke-miterlimit="10" stroke-linecap="round" stroke-linejoin="round"/>
<path d="M189.548 381.135C190.524 380.436 193.969 378.644 197.382 380.421" stroke="#303030" stroke-width="1.5" stroke-miterlimit="10" stroke-linecap="round" stroke-linejoin="round"/>
<path d="M217.184 366.263C217.204 374.586 223.964 381.317 232.288 381.297C240.611 381.278 247.342 374.517 247.322 366.194C247.303 357.87 240.555 357.173 232.232 357.191C223.913 357.21 217.167 357.939 217.184 366.263Z" stroke="#303030" stroke-width="1.5" stroke-miterlimit="10" stroke-linecap="round" stroke-linejoin="round"/>
<path d="M257.029 366.172C257.048 374.495 263.809 381.226 272.132 381.206C280.456 381.187 287.186 374.426 287.167 366.103C287.147 357.779 280.399 357.08 272.076 357.1C263.753 357.119 257.009 357.849 257.029 366.172Z" stroke="#303030" stroke-width="1.5" stroke-miterlimit="10" stroke-linecap="round" stroke-linejoin="round"/>
<path d="M257.131 370.502C254.265 367.563 249.24 368.176 247.242 370.524" stroke="#303030" stroke-width="1.5" stroke-miterlimit="10" stroke-linecap="round" stroke-linejoin="round"/>
<path d="M216.576 368.691L205.76 371.191" stroke="#303030" stroke-width="1.5" stroke-miterlimit="10" stroke-linecap="round" stroke-linejoin="round"/>
<path d="M236.79 396.269C242.676 400.745 250.885 401.967 257.819 399.401" stroke="#303030" stroke-width="1.5" stroke-miterlimit="10" stroke-linecap="round" stroke-linejoin="round"/>
<path d="M221.227 331.279C233.799 322.027 249.238 324.129 257.159 337.724C263.995 349.46 274.654 360.106 285.97 354.836C279.123 345.881 284.499 329.965 268.138 316.84C254.441 305.852 221.281 305.32 221.227 331.279Z" fill="#303030"/>
<path d="M252.958 429.467C241.137 428.411 227.944 424.992 220.274 419.757C222.138 424.927 230.686 433.471 252.85 437.815L252.958 429.467Z" fill="#303030"/>
<path d="M478.064 431.314C472.665 433.638 467.088 439.338 460.327 445.249C459.219 444.699 458.013 444.121 456.563 443.446C455.663 443.026 452.741 442.147 451.767 442.351C450.343 442.645 449.385 443.97 449.272 445.422C449.088 447.763 449.387 450.148 451.371 452.375C451.097 452.568 450.824 452.765 450.545 452.955C448.322 452.029 446.446 451.685 445.048 452.789C444.041 453.583 443.756 455.288 443.825 456.885C437.371 460.028 432.024 460.785 434.019 456.394C435.339 453.49 439.122 450.854 440.97 447.818C444.468 442.072 444.249 438.027 441.345 437.574C435.536 436.67 428.436 445.655 417.238 455.377C409.495 462.099 405.571 477.852 402.862 484.911C395.93 502.963 384.33 529.669 373.565 550.925C373.565 550.925 343.284 506.674 327.142 486.606C310.999 466.538 302.823 466.01 302.823 466.01L298.739 556.931C298.739 556.931 318.463 575.854 342.035 600.147C365.61 624.44 380.532 631.882 394.971 621.248C409.412 610.615 409.932 597.21 415.396 574.729C421.999 547.562 428.126 518.802 433.16 512.39C441.154 502.207 451.7 497.535 457.645 492.324C460.617 489.718 461.054 487.528 462.218 483.344C469.468 477.471 470.561 473.632 469.252 467.053H469.258C469.204 466.384 469.059 465.75 468.849 465.146C475.255 459.749 474.641 454.604 471.68 452.46C473.673 449.77 483.113 437.538 484.191 435.075C485.674 431.671 481.166 429.978 478.064 431.314Z" fill="#FFCCCC"/>
<path d="M471.676 452.457C465.61 447.926 463.528 446.686 456.563 443.444C455.663 443.024 452.741 442.145 451.768 442.349C450.344 442.643 449.385 443.967 449.272 445.42C449.028 448.532 449.634 451.722 453.919 454.515" stroke="#303030" stroke-width="1.5" stroke-miterlimit="10" stroke-linecap="round" stroke-linejoin="round"/>
<path d="M469.252 467.05C469.02 464.17 467.23 461.867 464.854 460.428C462.015 458.71 459.532 457.405 456.563 455.922C451.622 453.455 447.571 450.789 445.045 452.784C443.42 454.068 443.667 457.74 444.275 459.478C445.024 461.616 446.662 463.41 448.534 464.64" stroke="#303030" stroke-width="1.5" stroke-miterlimit="10" stroke-linecap="round" stroke-linejoin="round"/>
<path d="M462.212 483.342C463.196 475.852 464.094 473.153 461.867 470.846C459.006 467.884 452.239 465.99 448.289 464.752C446.528 464.2 444.725 463.664 442.879 463.687C442.455 463.694 442.018 463.733 441.637 463.923C441.154 464.168 440.817 464.635 440.602 465.133C439.73 467.159 440.73 469.57 442.293 471.128C443.937 472.768 448.229 475.008 450.118 476.361C450.298 476.488 450.486 476.629 450.564 476.835C450.655 477.073 450.54 477.33 450.499 477.583C450.016 480.447 448.867 482.492 447.77 484.262" stroke="#303030" stroke-width="1.5" stroke-miterlimit="10" stroke-linecap="round" stroke-linejoin="round"/>
<path d="M433.465 477.633C428.806 478.159 424.724 481.189 421.883 484.92C419.041 488.649 417.262 493.059 415.516 497.412" stroke="#303030" stroke-width="1.5" stroke-miterlimit="10" stroke-linecap="round" stroke-linejoin="round"/>
<path d="M427.314 530.803C400.392 529.606 390.223 512.256 390.223 512.256C385.803 511.15 384.527 513.102 381.412 519.495C378.776 524.905 372.409 539.208 372.409 539.208C372.409 539.208 367.248 532.53 351.69 511.505C327.137 478.321 317.703 461.129 297.724 455.373L292.95 559.835C292.95 559.835 310.479 580.351 343.758 611.405C360.77 627.281 368.486 633.581 384.639 633.581C400.792 633.581 407.488 624.186 412.537 614.24C417.742 603.988 419.974 593.55 424.49 572.359C428.563 553.254 434.893 530.803 427.314 530.803Z" fill="#5F42A9"/>
<path d="M390.223 512.256C390.223 512.256 400.392 529.606 427.314 530.803L431.39 518.837C431.39 518.837 420.621 518.735 410.806 513.102C400.992 507.469 394.969 499.292 394.969 499.292L390.223 512.256Z" fill="#303030"/>
<path d="M373.31 536.678C366.822 548.895 362.136 561.146 362.558 577.176" stroke="#303030" stroke-width="1.5" stroke-miterlimit="10" stroke-linecap="round" stroke-linejoin="round"/>
<path d="M252.958 444.227L297.724 455.375C297.724 455.375 312.592 469.95 316.085 492.469C317.487 501.506 316.602 523.018 315.585 537.308C313.6 565.2 314.113 578.388 312.853 604.951C311.73 628.653 322.358 644.796 300.747 653.533C263.666 668.522 149.264 670.839 119.751 645.806C106.751 634.78 111.257 624.241 116.632 596.829C122.809 565.332 127.899 532.281 130.591 513.106C135.971 474.787 141.999 459.091 160.405 453.033C181.125 446.214 204.857 442.323 204.857 442.323C217.184 454.139 252.185 453.418 252.958 444.227Z" fill="#5F42A9"/>
<path d="M316.084 492.469C317.487 501.506 316.601 523.018 315.584 537.308C313.6 565.2 314.113 578.388 312.853 604.951" stroke="#303030" stroke-width="1.5" stroke-miterlimit="10" stroke-linecap="round" stroke-linejoin="round"/>
<path d="M192.117 445.727C197.382 455.375 217.171 463.549 237.815 462.335C261.591 460.937 264.577 451.371 264.342 447.062" stroke="#303030" stroke-width="1.5" stroke-miterlimit="10" stroke-linecap="round" stroke-linejoin="round"/>
<path d="M270.719 632.231C270.719 632.231 286.706 632.231 295.152 632.231C303.599 632.231 304.856 632.09 314.141 633.215C325.555 634.596 331.268 628.8 331.268 628.8C331.268 628.8 331.346 634.354 344.097 631.107C347.839 630.155 351.652 629.937 352.412 625.303C358.848 623.464 360.688 617.947 360.227 614.729C360.227 614.729 367.304 618.863 371.931 622.237C375.328 624.715 380.587 628.435 385.29 624.587C388.389 622.05 377.488 610.481 377.488 610.481C377.488 610.481 382.511 614.863 387.214 615.93C391.159 616.826 395.535 615.235 394.908 612.511C394.434 610.446 385.749 601.904 382.05 598.961C367.944 587.74 362.345 583.366 353.217 584.532C341.359 586.049 320.482 590.365 313.587 590.731C306.689 591.094 202.19 578.445 202.19 578.445L187.448 514.751C187.448 514.751 171.593 464.685 162.971 456.342C132.376 471.361 118.746 476.367 125.144 516.699C131.541 557.03 141.275 598.939 145.727 609.555C150.177 620.168 160.19 628.233 182.442 629.069C204.692 629.896 270.719 632.231 270.719 632.231Z" fill="#FFCCCC"/>
<path d="M341.288 610.26C344.76 610.699 347.549 611.292 349.213 614.536C350.847 617.72 352.213 622.423 351.49 626.015C350.923 628.833 348.497 629.924 345.997 630.62C342.766 631.521 339.434 632.055 336.081 632.213C335.194 632.254 334.237 632.252 333.506 631.748C332.073 630.761 332.091 628.199 333.051 626.894C334.053 625.537 336.179 624.437 337.815 624.256" stroke="#303030" stroke-width="1.5" stroke-miterlimit="10" stroke-linecap="round" stroke-linejoin="round"/>
<path d="M351.138 602.239C355.895 605.616 359.238 610.922 360.232 616.67C360.387 617.575 360.487 618.514 360.258 619.403C360.054 620.193 359.604 620.895 359.106 621.54C357.446 623.686 355.159 625.34 352.601 626.242" stroke="#303030" stroke-width="1.5" stroke-miterlimit="10" stroke-linecap="round" stroke-linejoin="round"/>
<path d="M361.363 597.243C366.697 600.742 382.435 613.868 385.37 619.233C386.534 621.362 384.9 623.808 382.946 624.775C381.098 625.691 378.735 625.816 376.789 625.145" stroke="#303030" stroke-width="1.5" stroke-miterlimit="10" stroke-linecap="round" stroke-linejoin="round"/>
<path d="M333.051 626.894C330.266 630.638 324.548 633.096 319.898 633.495C313.699 634.025 306.852 632.099 300.764 631.85C292.623 631.516 272.587 631.694 272.587 631.694" stroke="#303030" stroke-width="1.5" stroke-miterlimit="10" stroke-linecap="round" stroke-linejoin="round"/>
<path d="M165.75 451.371C140.679 456.208 115.524 472.563 120.348 511.507C125.071 549.624 135.179 588.681 139.174 602.268C144.286 619.648 153.536 633.215 179.999 633.215C197.824 633.215 265.677 633.215 265.677 633.215C265.677 633.215 259.719 599.478 273.539 585.885C272.661 577.631 262.597 577.018 238.986 575.674C218.643 574.517 202.152 572.207 202.152 572.207L189.978 515.762C189.978 515.762 181.103 471.803 165.75 451.371Z" fill="#5F42A9"/>
<path d="M167.564 580.918C177.405 573.352 186.713 571.437 202.15 572.205" stroke="#303030" stroke-width="1.5" stroke-miterlimit="10" stroke-linecap="round" stroke-linejoin="round"/>
<path d="M120.349 511.507C125.071 549.624 135.18 588.681 139.175 602.268C144.287 619.648 153.536 633.215 180 633.215C197.824 633.215 265.677 633.215 265.677 633.215C265.677 633.215 259.141 600.63 273.539 585.885C272.661 577.631 263.173 577.787 238.986 575.674C218.689 573.902 202.152 572.207 202.152 572.207L189.979 515.762" stroke="#303030" stroke-width="1.5" stroke-miterlimit="10" stroke-linecap="round" stroke-linejoin="round"/>
<path d="M265.675 634.536H280.142C280.142 634.536 275.675 599.855 287.55 587.69L273.537 585.883C270.022 591.531 259.569 607.609 265.675 634.536Z" fill="#303030"/>
<path d="M803.847 634.535H199.137C197.215 634.535 195.655 636.094 195.655 638.018V646.765C195.655 648.687 197.213 650.247 199.137 650.247H803.847C805.769 650.247 807.33 648.689 807.33 646.765V638.018C807.327 636.094 805.769 634.535 803.847 634.535Z" fill="#7F5BDD"/>
<path d="M807.327 650.247H195.655V657.225H807.327V650.247Z" fill="#303030"/>
<path d="M513.596 653.53H488.418V999.611H513.596V653.53Z" fill="#303030"/>
<path d="M625.459 1013.13H376.556C389.439 997.235 408.807 988.001 429.267 988.001H572.747C593.209 988.003 612.576 997.235 625.459 1013.13Z" fill="#303030"/>
<path d="M427.33 217C378.463 217 338.847 246.441 338.847 282.758C338.847 298.598 346.387 313.13 358.942 324.481C356.552 332.441 347.963 338.204 341.299 339.317C337.835 339.895 340.886 343.996 352.259 345.223C362.303 346.307 371.738 343.881 378.67 337.672C392.634 344.519 409.35 348.517 427.33 348.517C476.196 348.517 515.812 319.075 515.812 282.76C515.812 246.441 476.196 217 427.33 217Z" fill="white" stroke="#303030" stroke-width="1.5" stroke-miterlimit="10" stroke-linecap="round" stroke-linejoin="round"/>
<path d="M461.958 285.394C461.958 291.978 467.295 297.314 473.879 297.314C480.462 297.314 485.799 291.978 485.799 285.394C485.799 278.811 480.462 273.474 473.879 273.474C467.293 273.474 461.958 278.811 461.958 285.394ZM414.673 285.394C414.673 291.978 420.01 297.314 426.594 297.314C433.177 297.314 438.514 291.978 438.514 285.394C438.514 278.811 433.177 273.474 426.594 273.474C420.01 273.474 414.673 278.811 414.673 285.394ZM367.391 285.394C367.391 291.978 372.727 297.314 379.311 297.314C385.894 297.314 391.231 291.978 391.231 285.394C391.231 278.811 385.894 273.474 379.311 273.474C372.727 273.474 367.391 278.811 367.391 285.394Z" fill="#322F39"/>
<path d="M700.103 748.059C722.418 770.982 730.267 793.812 732.693 837.247C735.119 880.682 740.127 926.895 748.505 945.899L701.763 950.455C701.763 950.455 684.3 905.213 665.518 861.866C646.735 818.518 632.707 788.951 629.205 772.594C625.703 756.238 619.592 723.45 648.258 705.425C667.589 693.269 694.154 687.027 694.154 687.027L700.103 748.059Z" fill="#FFC4B0"/>
<path d="M747.137 911.058C737.195 902.15 720.574 911.134 711.521 923.11C705.321 931.312 701.456 935.989 694.853 938.876L688.929 926.198C682.331 928.412 682.056 933.818 677.972 940.928C670.344 954.207 661.996 962.866 637.515 970.94C617.155 977.656 615.081 984.153 615.127 993.069C615.127 993.069 632.367 997.49 666.13 995.155C686.64 993.738 710.279 982.612 723.372 973.892C742.571 961.104 766.943 958.317 769.584 968.48C766.264 954.824 761.295 947.169 758.09 937.253C753.729 923.77 752.653 916.001 747.137 911.058Z" fill="#322F39"/>
<path d="M659.285 1011.76C689.618 1011.76 683.919 1011.76 700.796 1011.76C717.672 1011.76 731.194 1005.16 745.652 998.094C769.348 986.518 771.687 981.367 769.634 978.725C761.607 973.847 749.643 975.078 725.078 987.492C700.512 999.906 687.27 1009.94 659.285 1011.76Z" fill="#303030" stroke="#303030" stroke-width="1.5" stroke-miterlimit="10" stroke-linecap="round" stroke-linejoin="round"/>
<path d="M768.848 966.813C764.898 958.319 742.568 961.106 723.37 973.895C710.277 982.614 686.637 993.74 666.128 995.158C632.366 997.49 615.124 993.071 615.124 993.071C613.155 993.071 613.211 994.632 613.211 999.458C613.211 1004.29 613.211 1009.14 621.056 1010.51C627.242 1011.58 647.888 1012.29 666.385 1011.26C685.627 1010.19 701.168 1005.79 715.442 997.506C734.634 986.367 741.692 982.454 749.926 979.71C759.81 976.416 767.863 977.723 769.635 978.729C771.41 979.731 772.949 975.628 768.848 966.813Z" fill="white" stroke="#303030" stroke-width="1.5" stroke-miterlimit="10" stroke-linecap="round" stroke-linejoin="round"/>
<path d="M731.663 605.903C731.663 605.903 720.435 639.197 716.226 662.191C716.226 662.191 677.446 666.593 632.538 684.837C587.631 703.081 578.273 712.989 573.767 732.228C568.967 752.727 573.689 781.249 594.641 828.869C613.35 871.395 632.722 915.332 640.142 931.089C651.154 954.469 657.493 968.802 657.493 968.802L698.385 940.705C698.385 940.705 694.485 917.364 691.208 888.773C681.913 807.688 681.459 785.661 656.51 762.111C656.51 762.111 789.749 762.111 819.92 762.111C858.737 762.111 874.594 747.765 883.886 726.443C893.182 705.122 886.139 638.898 851.651 594.544C851.651 594.544 792.009 589.07 731.663 605.903Z" fill="#FFC4B0"/>
<path d="M698.385 940.705C698.385 940.705 694.485 917.364 691.208 888.773C681.913 807.688 681.459 785.662 656.51 762.111" stroke="#303030" stroke-width="1.5" stroke-miterlimit="10" stroke-linecap="round" stroke-linejoin="round"/>
<path d="M695.974 910.835C686.032 901.927 669.411 910.911 660.358 922.887C654.158 931.09 650.293 935.766 643.69 938.653L637.766 925.976C631.168 928.19 630.893 933.596 626.809 940.705C619.18 953.984 610.833 962.643 586.352 970.718C565.992 977.433 563.918 983.93 563.964 992.846C563.964 992.846 581.204 997.268 614.967 994.933C635.477 993.515 659.116 982.389 672.209 973.67C691.407 960.881 715.78 958.094 718.421 968.257C715.101 954.601 710.132 946.946 706.927 937.03C702.568 923.547 701.492 915.778 695.974 910.835Z" fill="#322F39"/>
<path d="M718.421 968.259C715.101 954.603 710.132 946.948 706.927 937.032C702.568 923.547 701.49 915.778 695.974 910.835C694.779 909.744 693.396 908.861 691.782 908.234" stroke="#303030" stroke-width="1.5" stroke-miterlimit="10" stroke-linecap="round" stroke-linejoin="round"/>
<path d="M608.124 1011.54C638.457 1011.54 632.759 1011.54 649.635 1011.54C666.511 1011.54 680.033 1004.94 694.492 997.871C718.187 986.295 720.527 981.145 718.473 978.502C710.446 973.624 698.482 974.853 673.917 987.269C649.351 999.687 636.109 1009.72 608.124 1011.54Z" fill="#303030" stroke="#303030" stroke-width="1.5" stroke-miterlimit="10" stroke-linecap="round" stroke-linejoin="round"/>
<path d="M717.687 966.59C713.738 958.096 691.408 960.884 672.21 973.672C659.116 982.391 635.477 993.517 614.967 994.935C581.206 997.268 563.964 992.848 563.964 992.848C561.995 992.848 562.051 994.407 562.051 999.235C562.051 1004.06 562.051 1008.92 569.896 1010.28C576.082 1011.36 596.728 1012.07 615.225 1011.04C634.466 1009.96 650.007 1005.57 664.282 997.283C683.474 986.144 690.531 982.231 698.766 979.487C708.65 976.193 716.701 977.5 718.475 978.506C720.248 979.508 721.789 975.405 717.687 966.59Z" fill="white" stroke="#303030" stroke-width="1.5" stroke-miterlimit="10" stroke-linecap="round" stroke-linejoin="round"/>
<path d="M731.345 597.243C725.564 613.164 716.722 637.99 714.001 658.733C664.896 665.321 617.436 688.293 617.436 688.293C617.436 688.293 611.961 721.035 622.524 738.31C635.446 759.438 654.831 767.095 654.831 767.095C654.831 767.095 786.436 767.095 806.84 767.095C827.244 767.095 855.419 767.556 876.868 747.832C898.317 728.108 892.922 687.3 887.628 665.195C882.335 643.09 867.032 607.347 851.049 587.642C822.482 575.077 754.809 583.022 731.345 597.243Z" fill="white"/>
<path d="M725.26 614.532C749.851 601.108 833.07 593.581 860.533 601.242" stroke="#303030" stroke-width="1.5" stroke-miterlimit="10" stroke-linecap="round" stroke-linejoin="round"/>
<path d="M830.362 598.19C848.312 629.787 867.322 668.866 856.057 715.339C846.537 754.614 809.937 767.093 768.043 767.093" stroke="#303030" stroke-width="1.5" stroke-miterlimit="10" stroke-linecap="round" stroke-linejoin="round"/>
<path d="M750.554 589.438C741.828 613.285 744.202 643.889 745.061 652.288C736.439 653.965 737.292 661.637 737.571 664.141C729.841 662.181 726.391 669.576 727.558 674.235C727.558 674.235 678.97 682.264 616.38 708.966" stroke="#303030" stroke-width="1.5" stroke-miterlimit="10" stroke-linecap="round" stroke-linejoin="round"/>
<path d="M712.958 658.874C725.982 658.066 739.262 662.968 748.637 672.045" stroke="#303030" stroke-width="1.5" stroke-miterlimit="10" stroke-linecap="round" stroke-linejoin="round"/>
<path d="M839.356 647.808L775.873 649.202C776.515 675.594 774.07 701.605 774.07 701.605C774.07 701.605 792.896 715.977 808 726.082C833.738 717.073 843.994 704.129 843.994 704.129C843.994 704.129 848.374 675.994 839.356 647.808Z" stroke="#303030" stroke-width="1.5" stroke-miterlimit="10" stroke-linecap="round" stroke-linejoin="round"/>
<path d="M882.383 647.808C870.91 647.808 867.27 647.808 867.27 647.808C867.27 647.808 875.762 674.235 871.819 705.265C875.886 710.866 885.25 717.737 890.143 720.734" stroke="#303030" stroke-width="1.5" stroke-miterlimit="10" stroke-linecap="round" stroke-linejoin="round"/>
<path d="M620.901 531.703C633.503 539 673.51 561.943 701.716 564.784C725.058 567.137 742.898 562.854 748.776 521.103L693.47 509.797C693.47 509.797 677.369 509.667 661.523 508.366C646.138 507.103 642.599 494.92 630.389 475.56C623.578 464.761 614.073 459.841 610.18 459.755C606.287 459.668 604.878 465.163 608.693 470.509C612.509 475.854 617.891 484.195 611.712 484.405C605.536 484.617 590.538 478.802 583.294 476.25C574.434 473.127 572.614 473.147 569.753 474.289C564.031 476.573 565.652 479.765 565.652 479.765C565.652 479.765 560.687 476.41 558.002 480.245C555.316 484.08 560.328 487.93 560.328 487.93C560.328 487.93 558.419 495.154 563.144 499.757C569.344 505.8 574.845 510.106 584.043 514.125C593.241 518.144 608.299 524.403 620.901 531.703Z" fill="#FFC4B0"/>
<path d="M584.602 508.464C582.373 506.657 581.013 504.651 574.313 496.741C573.538 495.825 572.722 494.717 572.971 493.544C573.177 492.568 574.082 491.882 575.025 491.555C577.648 490.646 580.524 491.91 582.79 493.516C590.38 498.894 596.831 508.951 607.418 505.56C609.829 504.787 612.113 503.631 614.562 502.999C621.486 501.212 629.376 504.181 633.406 510.087" stroke="#303030" stroke-width="1.5" stroke-miterlimit="10" stroke-linecap="round" stroke-linejoin="round"/>
<path d="M560.328 487.93C563.206 487.106 566.039 489.211 573.24 492.88" stroke="#303030" stroke-width="1.5" stroke-miterlimit="10" stroke-linecap="round" stroke-linejoin="round"/>
<path d="M565.655 479.765C569.896 481.589 590.263 489.952 590.263 489.952" stroke="#303030" stroke-width="1.5" stroke-miterlimit="10" stroke-linecap="round" stroke-linejoin="round"/>
<path d="M731.27 428.625C738.684 427.686 759.296 422.657 763.081 380.732C766.767 339.907 723.853 313.357 687.701 326.277C682.749 325.542 673.883 323.098 659.759 329.543C638.479 339.252 631.432 368.619 650.888 383.719C673.885 401.565 700.115 414.692 726.16 427.701C727.913 428.578 729.621 428.833 731.27 428.625Z" fill="#303030"/>
<path d="M652.096 393.81C652.096 393.81 653.611 386.662 654.221 379.583C654.569 375.53 654.479 371.39 655.669 364.006C657.132 354.931 664.161 343.708 676.562 341.431C667.046 382.252 705.41 380.869 705.41 380.869L714 403.954C717.064 411.345 720.535 425.358 738.076 426.65L748.328 449.997C739.771 474.562 704.267 472.236 693.875 463.159L703.683 456.742L696.587 431.958C683.396 436.726 669.234 439.321 660.588 434.689C656.115 432.294 654.005 427.258 654.197 421.59C651.481 419.69 650.258 417.196 651.771 412.749C651.923 412.303 652.104 411.855 652.096 411.386C652.083 410.754 651.728 410.189 651.418 409.639C649.908 406.966 650.241 405.047 650.722 402.257C651.211 399.435 651.481 396.611 652.096 393.81Z" fill="#FFC4B0"/>
<path d="M705.413 380.867C708.341 376.856 714.344 373.974 721.373 376.261C727.721 378.328 731.374 384.537 730.725 390.811C730.082 397.013 725.524 401.515 720.265 403.471C713.84 405.863 708.765 403.811 704.962 401.169" fill="#FFC4B0"/>
<path d="M705.413 380.867C708.341 376.856 714.344 373.974 721.373 376.261C727.721 378.328 731.374 384.537 730.725 390.811C730.082 397.013 725.524 401.515 720.265 403.471C713.84 405.863 708.765 403.811 704.962 401.169" stroke="#303030" stroke-width="1.5" stroke-miterlimit="10" stroke-linecap="round" stroke-linejoin="round"/>
<path d="M721.401 389.811C720.371 386.866 718.01 385.132 715.363 385.379C712.714 385.626 709.868 387.844 708.081 391.053" stroke="#303030" stroke-width="1.5" stroke-miterlimit="10" stroke-linecap="round" stroke-linejoin="round"/>
<path d="M715.785 391.945C715.406 390.595 714.59 389.631 713.643 389.006C712.695 388.381 711.561 388.136 710.483 388.008" stroke="#303030" stroke-width="1.5" stroke-miterlimit="10" stroke-linecap="round" stroke-linejoin="round"/>
<path d="M679.023 381.276C679.023 381.276 676.294 378.328 672.604 376.519C669.795 375.142 665.758 375.413 664.302 376.428C663.531 377.402 663.133 379.092 664.124 382.643C666.821 385.833 673.344 384.511 679.023 381.276Z" fill="white"/>
<path d="M664.44 383.806C666.527 385.381 669.388 384.989 670.827 382.931C672.268 380.873 671.742 377.925 669.656 376.35C667.568 374.774 664.709 375.166 663.27 377.226C661.828 379.282 662.352 382.228 664.44 383.806Z" fill="#303030"/>
<path d="M670.853 376.841L667.048 380.077L671.909 379.183L670.853 376.841Z" fill="white"/>
<path d="M664.304 376.428C669.45 374.755 674.696 376.683 679.025 381.276" stroke="#303030" stroke-width="1.5" stroke-miterlimit="10" stroke-linecap="round" stroke-linejoin="round"/>
<path d="M660.138 374.989C661.46 376.67 663.451 376.597 665.823 376.263" stroke="#303030" stroke-width="1.5" stroke-miterlimit="10" stroke-linecap="round" stroke-linejoin="round"/>
<path d="M651.838 401.638C646.785 400.842 642.799 396.249 646.257 391.936C649.198 388.27 654.221 379.581 655.082 375.497" fill="#FFC4B0"/>
<path d="M651.838 401.638C646.785 400.842 642.799 396.249 646.257 391.936C649.198 388.27 654.221 379.581 655.082 375.497" stroke="#303030" stroke-width="1.5" stroke-miterlimit="10" stroke-linecap="round" stroke-linejoin="round"/>
<path d="M658.738 409.633C657.578 409.167 656.385 408.737 655.141 408.739C655.461 408.853 655.691 409.152 655.801 409.475C655.911 409.797 655.918 410.145 655.911 410.487C655.892 411.537 655.758 412.585 655.53 413.61C655.455 413.957 655.385 414.37 655.641 414.617C655.751 414.723 655.903 414.775 656.052 414.816C657.247 415.14 658.523 414.98 659.712 414.64C660.967 414.281 662.222 413.675 662.958 412.598C663.09 412.403 663.207 412.191 663.239 411.957C663.36 411.078 661.856 410.857 661.244 410.645C660.521 410.397 659.818 410.07 659.11 409.782C658.984 409.732 658.861 409.682 658.738 409.633Z" fill="#303030"/>
<path d="M658.11 411.907C658.764 411.065 659.428 410.606 660.545 410.604C661.235 410.602 662.309 410.661 662.759 411.258C663.256 411.922 662.878 412.695 662.289 413.126C661.255 413.885 659.603 414.898 658.257 414.772C656.712 414.63 657.253 413.013 658.11 411.907Z" fill="#7F5BDD"/>
<path d="M652.994 408.198C656.563 408.198 657.411 409.182 659.424 409.964C661.108 410.617 663.389 411.565 665.823 410.28" stroke="#303030" stroke-width="1.5" stroke-miterlimit="10" stroke-linecap="round" stroke-linejoin="round"/>
<path d="M654.758 408.622C655.517 409.228 655.911 410.26 655.993 411.23C656.093 412.409 655.673 413.232 655.431 413.989C655.364 414.201 655.281 414.487 655.597 414.781C655.695 414.872 656.093 415.036 656.361 415.071C657.844 415.264 662.09 414.954 664.31 410.998" stroke="#303030" stroke-width="1.5" stroke-miterlimit="10" stroke-linecap="round" stroke-linejoin="round"/>
<path d="M660.043 419.354C658.452 419.83 656.71 419.791 655.141 419.248" stroke="#303030" stroke-width="1.5" stroke-miterlimit="10" stroke-linecap="round" stroke-linejoin="round"/>
<path d="M664.36 361.763C672.549 360.939 678.661 362.984 682.29 368.57" stroke="#303030" stroke-width="1.5" stroke-miterlimit="10" stroke-linecap="round" stroke-linejoin="round"/>
<path d="M705.828 426.626C704.655 430.411 700.393 433.54 697.673 435.743L696.247 432.075C699.279 431.077 704.198 428.515 705.828 426.626Z" fill="#303030"/>
<path d="M798.209 447.497C807.621 452.892 817.62 456.338 829.43 487.521C840.002 515.441 865.983 581.375 854.034 591.512C854.034 591.512 836.37 585.292 795.141 587.64C760.477 589.614 737.098 598.19 729.185 603.235C719.048 600.24 731.103 582.331 712.093 575.553C679.284 563.858 679.091 502.852 686.209 448.417C713.235 442.318 769.513 436.895 798.209 447.497Z" fill="#5F42A9" stroke="#303030" stroke-width="1.5" stroke-miterlimit="10" stroke-linecap="round" stroke-linejoin="round"/>
<path d="M787.858 419.956C787.257 407.326 776.858 397.262 764.078 397.262C751.234 397.262 740.792 407.429 740.29 420.15C732.953 423.438 727.833 430.789 727.833 439.349C727.833 450.187 736.028 459.103 746.557 460.259C748.055 479.639 764.221 494.907 783.984 494.907C804.737 494.907 821.561 478.085 821.561 457.331C821.561 437.888 806.79 421.895 787.858 419.956Z" fill="#303030"/>
<path d="M760.112 401.835C763.241 403.952 767.775 403.915 770.768 401.558C771.868 400.692 772.801 399.452 772.82 398.052C772.831 397.349 772.608 396.656 772.29 396.029C769.158 389.835 760.66 393.577 757.809 398.121C756.723 394.706 753.656 392.001 750.131 391.352C748.832 391.114 747.432 391.151 746.272 391.783C745.114 392.414 744.277 393.743 744.508 395.042C744.716 396.208 745.684 397.083 746.675 397.734C749.215 399.407 752.302 400.24 755.342 400.071C754.567 400.327 753.981 400.956 753.446 401.575C752.282 402.922 751.165 404.378 750.685 406.092C750.204 407.806 750.492 409.838 751.81 411.033C754.115 413.123 757.431 410.879 759.127 409.083C760.802 407.31 760.737 402.66 758.941 400.874C759.303 401.231 759.694 401.552 760.112 401.835Z" stroke="white" stroke-width="1.5" stroke-miterlimit="10" stroke-linecap="round" stroke-linejoin="round"/>
<path d="M756.695 399.03C762.956 402.519 767.321 409.204 767.998 416.339" stroke="white" stroke-width="1.5" stroke-miterlimit="10" stroke-linecap="round" stroke-linejoin="round"/>
<path d="M756.591 428.852C757.432 419.337 758.647 411.875 756.694 399.028" stroke="white" stroke-width="1.5" stroke-miterlimit="10" stroke-linecap="round" stroke-linejoin="round"/>
<path d="M701.038 447.497C677.423 451.371 671.079 467.128 659.192 507.072C648.302 543.671 642.285 566.453 636.767 592.44C630.146 623.628 641.932 633.583 657.274 634.343C671.532 635.05 696.141 634.535 696.141 634.535C703.587 634.535 708.68 626.322 706.414 619.226C704.444 613.062 700.878 606.345 694.418 602.239L715.57 522.639L701.038 447.497Z" fill="#FFC4B0"/>
<path d="M688.33 619.603C692.329 612.692 693.593 609.228 694.42 602.239" stroke="#303030" stroke-width="1.5" stroke-miterlimit="10" stroke-linecap="round" stroke-linejoin="round"/>
<path d="M708.489 444.467C686.956 445.945 673.326 448.417 662.455 482.396C654.989 505.73 644.958 544.478 644.958 544.478C644.958 544.478 654.757 554.381 679.024 560.447C700.138 565.725 708.08 560.447 708.08 560.447L720.438 515.047" fill="#5F42A9"/>
<path d="M708.489 444.467C686.956 445.945 673.326 448.417 662.455 482.396C654.989 505.73 644.958 544.478 644.958 544.478C644.958 544.478 654.757 554.381 679.024 560.447C700.138 565.725 708.08 560.447 708.08 560.447L720.438 515.047" stroke="#303030" stroke-width="1.5" stroke-miterlimit="10" stroke-linecap="round" stroke-linejoin="round"/>
<path d="M947.358 767.093C952.303 767.093 954.294 772.891 950.232 775.451C938.485 782.854 924.437 786.91 909.918 786.91H675.034C660.512 786.91 646.465 782.854 634.717 775.451C630.655 772.891 632.649 767.093 637.591 767.093H947.358Z" fill="#7F5BDD"/>
<path d="M873.888 627.803C845.345 627.803 823.68 625.143 808.256 622.113C789.72 618.471 775.114 604.263 770.662 585.907C767.082 571.151 763.799 553.738 764.782 542.474C766.619 521.375 783.208 509.901 804.007 513.885C824.528 517.815 850.911 521.778 873.888 521.778C896.865 521.778 923.249 517.815 943.769 513.885C964.569 509.901 981.158 521.375 982.995 542.474C983.975 553.738 980.692 571.149 977.115 585.907C972.663 604.265 958.057 618.471 939.521 622.113C924.095 625.145 902.432 627.803 873.888 627.803Z" fill="#7F5BDD"/>
<path d="M775.531 1011.05L794.513 824.528C796.692 803.103 813.051 786.91 832.514 786.91H891.68C911.142 786.91 927.499 803.103 929.681 824.528L948.66 1011.05" stroke="#303030" stroke-width="1.5" stroke-miterlimit="10" stroke-linecap="round" stroke-linejoin="round"/>
<path d="M943.693 962.254H780.498" stroke="#303030" stroke-width="1.5" stroke-miterlimit="10" stroke-linecap="round" stroke-linejoin="round"/>
<path d="M637.111 1011.05L656.093 824.528C658.272 803.103 674.631 786.91 694.094 786.91H753.26C772.722 786.91 789.079 803.103 791.261 824.528L810.243 1011.05" stroke="#303030" stroke-width="1.5" stroke-miterlimit="10" stroke-linecap="round" stroke-linejoin="round"/>
<path d="M805.274 962.254H642.076" stroke="#303030" stroke-width="1.5" stroke-miterlimit="10" stroke-linecap="round" stroke-linejoin="round"/>
<path d="M935.357 561.213C935.357 587.51 927.14 696.515 922.751 752.853C921.253 772.077 905.219 786.91 885.934 786.91H870.168" stroke="#303030" stroke-width="1.5" stroke-miterlimit="10" stroke-linecap="round" stroke-linejoin="round"/>
<path d="M817.349 561.213C817.349 587.51 809.132 696.515 804.743 752.853C803.245 772.077 787.211 786.91 767.928 786.91H752.162" stroke="#303030" stroke-width="1.5" stroke-miterlimit="10" stroke-linecap="round" stroke-linejoin="round"/>
<path d="M529.925 294.789C576.348 294.789 613.983 322.759 613.983 357.258C613.983 372.307 606.82 386.11 594.893 396.894C597.163 404.458 605.322 409.931 611.655 410.987C614.946 411.537 612.048 415.433 601.243 416.599C591.701 417.629 582.737 415.324 576.151 409.425C562.887 415.93 547.007 419.726 529.925 419.726C483.501 419.726 445.866 391.757 445.866 357.258C445.866 322.759 483.501 294.789 529.925 294.789Z" fill="white" stroke="#303030" stroke-width="1.5" stroke-miterlimit="10" stroke-linecap="round" stroke-linejoin="round"/>
<path d="M485.707 348.439C479.452 348.439 474.382 353.509 474.382 359.764C474.382 366.018 479.452 371.089 485.707 371.089C491.961 371.089 497.032 366.018 497.032 359.764C497.03 353.507 491.961 348.439 485.707 348.439ZM530.624 348.439C524.37 348.439 519.299 353.509 519.299 359.764C519.299 366.018 524.37 371.089 530.624 371.089C536.879 371.089 541.949 366.018 541.949 359.764C541.949 353.507 536.879 348.439 530.624 348.439ZM575.544 348.439C569.289 348.439 564.218 353.509 564.218 359.764C564.218 366.018 569.289 371.089 575.544 371.089C581.798 371.089 586.869 366.018 586.869 359.764C586.869 353.507 581.798 348.439 575.544 348.439Z" fill="#7F5BDD"/>
</g>
<defs>
<clipPath id="clip0_132_228">
<rect width="960" height="1231" fill="white"/>
</clipPath>
</defs>
</svg>
