<svg width="126" height="126" viewBox="0 0 126 126" fill="none" xmlns="http://www.w3.org/2000/svg">
<rect width="126" height="126" rx="63" fill="#FFF2F2"/>
<path d="M48.9641 43.9817L63 58.0171L76.9632 44.0545C77.2717 43.7262 77.6432 43.4636 78.0556 43.2824C78.468 43.1012 78.9127 43.0051 79.3632 43C80.3275 43 81.2524 43.3831 81.9344 44.065C82.6163 44.7469 82.9994 45.6717 82.9994 46.6361C83.0079 47.0819 82.9252 47.5247 82.7563 47.9374C82.5875 48.3501 82.3361 48.7239 82.0176 49.0359L67.8726 62.9986L82.0176 77.143C82.6169 77.7293 82.9684 78.5232 82.9994 79.361C82.9994 80.3254 82.6163 81.2502 81.9344 81.9321C81.2524 82.614 80.3275 82.9971 79.3632 82.9971C78.8997 83.0163 78.4374 82.939 78.0054 82.77C77.5735 82.601 77.1814 82.344 76.8541 82.0154L63 67.98L49.0004 81.979C48.6932 82.2963 48.3261 82.5497 47.9205 82.7244C47.5148 82.8992 47.0785 82.9919 46.6368 82.9971C45.6725 82.9971 44.7476 82.614 44.0656 81.9321C43.3837 81.2502 43.0006 80.3254 43.0006 79.361C42.9921 78.9152 43.0748 78.4724 43.2437 78.0597C43.4125 77.6471 43.6639 77.2732 43.9824 76.9612L58.1274 62.9986L43.9824 48.8541C43.3831 48.2678 43.0316 47.4739 43.0006 46.6361C43.0006 45.6717 43.3837 44.7469 44.0656 44.065C44.7476 43.3831 45.6725 43 46.6368 43C47.5095 43.0109 48.3459 43.3636 48.9641 43.9817Z" fill="#FF4C51"/>
</svg>
