<svg width="24" height="24" viewBox="0 0 24 24" fill="none" xmlns="http://www.w3.org/2000/svg">
<path d="M19.9936 12.5718L21.4538 13.8722C21.7235 14.0972 21.9037 14.4113 21.9617 14.7577C22.0198 15.1041 21.952 15.4598 21.7704 15.7605L20.0097 18.7682C19.8731 18.9985 19.6781 19.1885 19.4444 19.3191C19.2079 19.4499 18.9424 19.5193 18.6722 19.521C18.5046 19.522 18.3378 19.4969 18.1779 19.4467L16.309 18.8296C15.9816 19.0396 15.6413 19.2275 15.2881 19.3934L14.8956 21.2882C14.8229 21.6367 14.6289 21.9481 14.348 22.1669C14.0635 22.3896 13.7109 22.5071 13.3497 22.4997H9.70389C9.34273 22.5071 8.99007 22.3896 8.70562 22.1669C8.42532 21.9479 8.23185 21.6365 8.15964 21.2882L7.7655 19.3934C7.41691 19.2253 7.0787 19.0365 6.75268 18.828L4.87728 19.4467C4.71737 19.4969 4.55061 19.522 4.38299 19.521C4.11332 19.5191 3.84843 19.4496 3.61247 19.3191C3.37896 19.189 3.18393 18.9995 3.04711 18.7699L1.2234 15.7605C1.0338 15.4571 0.961358 15.095 1.01964 14.742C1.07793 14.389 1.26294 14.0694 1.54 13.8431L2.99865 12V11.4282L1.53839 10.1278C1.26873 9.9028 1.08855 9.58866 1.03047 9.24228C0.972398 8.8959 1.04026 8.54018 1.22178 8.2395L3.04549 5.23175C3.18209 5.00152 3.37714 4.81149 3.61086 4.68093C3.84682 4.55036 4.11171 4.48094 4.38137 4.47901C4.54748 4.46853 4.71421 4.48379 4.87566 4.52424L6.71391 5.17037C7.04236 4.96038 7.38266 4.77246 7.7348 4.60662L8.12894 2.71184C8.20116 2.36352 8.39463 2.05213 8.67493 1.83309C8.95938 1.61041 9.31203 1.49286 9.6732 1.50034H13.2883C13.6495 1.49286 14.0021 1.61041 14.2866 1.83309C14.5693 2.05439 14.7631 2.36615 14.8326 2.71184L15.2267 4.60662C15.5767 4.77354 15.9143 4.96199 16.2395 5.17199L18.1165 4.55493C18.3249 4.48716 18.545 4.46337 18.763 4.48506C18.981 4.50674 19.1921 4.57344 19.383 4.68093C19.6172 4.81338 19.811 5.00399 19.9483 5.23014L21.7704 8.2395C21.9626 8.54032 22.0387 8.90076 21.9846 9.25358C21.9305 9.6064 21.7499 9.92748 21.4764 10.1569L19.9936 11.4201V12.5718Z" stroke="#48495B" stroke-width="1.8"/>
<path d="M15.5386 11.9998C15.5386 13.0708 15.1131 14.098 14.3558 14.8553C13.5984 15.6126 12.5713 16.0381 11.5002 16.0381C10.4292 16.0381 9.40205 15.6126 8.64471 14.8553C7.88738 14.098 7.46191 13.0708 7.46191 11.9998C7.46191 10.9287 7.88738 9.90156 8.64471 9.14423C9.40205 8.38689 10.4292 7.96143 11.5002 7.96143C12.5713 7.96143 13.5984 8.38689 14.3558 9.14423C15.1131 9.90156 15.5386 10.9287 15.5386 11.9998Z" stroke="#48495B" stroke-width="1.8"/>
</svg>
