<svg width="960" height="1080" viewBox="0 0 960 1080" fill="none" xmlns="http://www.w3.org/2000/svg">
<rect width="960" height="1080" fill="#F8F5FF"/>
<path d="M876.217 262.059V173.471C876.217 138.418 847.799 110 812.746 110H563.471C528.418 110 500 138.418 500 173.471V448.529C500 483.582 528.415 512 563.471 512H639.166C639.166 484.97 661.079 463.057 688.109 463.057C715.138 463.057 737.052 484.97 737.052 512H812.749C847.802 512 876.22 483.582 876.22 448.529V359.941C903.25 359.941 925.163 338.028 925.163 310.998C925.16 283.972 903.247 262.059 876.217 262.059Z" fill="white"/>
<g opacity="0.12">
<path d="M785.109 451.411H591.109C573.952 451.411 560.043 437.503 560.043 420.345V214.002C560.043 196.844 573.952 182.936 591.109 182.936H785.109C802.267 182.936 816.175 196.844 816.175 214.002V420.345C816.175 437.503 802.267 451.411 785.109 451.411Z" fill="black"/>
</g>
<path d="M785.109 445.239H591.109C573.952 445.239 560.043 431.331 560.043 414.173V207.83C560.043 190.672 573.952 176.764 591.109 176.764H785.109C802.267 176.764 816.175 190.672 816.175 207.83V414.173C816.175 431.331 802.267 445.239 785.109 445.239Z" fill="#5F42A9"/>
<mask id="mask0_132_844" style="mask-type:luminance" maskUnits="userSpaceOnUse" x="560" y="176" width="257" height="270">
<path d="M785.109 445.239H591.109C573.952 445.239 560.043 431.331 560.043 414.173V207.83C560.043 190.672 573.952 176.764 591.109 176.764H785.109C802.267 176.764 816.175 190.672 816.175 207.83V414.173C816.175 431.331 802.267 445.239 785.109 445.239Z" fill="white"/>
</mask>
<g mask="url(#mask0_132_844)">
<path d="M672.158 363.462L661.694 356.278C661.694 356.278 607.104 368.576 561.512 434.006C515.924 499.434 550.486 546.482 587.168 543.909C623.851 541.335 682.922 519.919 683.366 518.524C683.813 517.123 672.158 363.462 672.158 363.462Z" fill="white" stroke="#020046" stroke-width="0.5" stroke-miterlimit="10" stroke-linecap="round" stroke-linejoin="round"/>
<path d="M708.109 363.462L718.573 356.278C718.573 356.278 773.163 368.576 818.754 434.006C864.343 499.434 829.78 546.482 793.098 543.909C756.416 541.335 697.345 519.919 696.901 518.524C696.453 517.123 708.109 363.462 708.109 363.462Z" fill="white" stroke="#020046" stroke-width="0.5" stroke-miterlimit="10" stroke-linecap="round" stroke-linejoin="round"/>
<path d="M787.093 559.437V471.874C787.093 414.695 742.872 368.341 688.319 368.341H680.564C626.014 368.341 581.79 414.695 581.79 471.874V559.437H787.093Z" fill="white"/>
<path d="M689.695 369.551V557.626" stroke="#020046" stroke-width="0.5" stroke-miterlimit="10" stroke-linecap="round" stroke-linejoin="round"/>
<path d="M702.003 397.741V559.437" stroke="#020046" stroke-width="0.5" stroke-miterlimit="10" stroke-linecap="round" stroke-linejoin="round"/>
<path d="M719.702 357.133L707.371 342.916H692.38H687.489H672.5L660.166 357.133L669.852 385.178L689.936 368.11L710.016 385.178L719.702 357.133Z" fill="white" stroke="#020046" stroke-width="0.5" stroke-miterlimit="10" stroke-linecap="round" stroke-linejoin="round"/>
<path d="M693.834 365.015H688.054C678.355 365.015 670.492 357.152 670.492 347.453V332.702C670.492 323.003 678.355 315.14 688.054 315.14H693.834C703.533 315.14 711.396 323.003 711.396 332.702V347.453C711.399 357.152 703.536 365.015 693.834 365.015Z" fill="white" stroke="#020046" stroke-width="0.5" stroke-miterlimit="10"/>
<path d="M740.543 277.31C740.543 273.474 738.626 270.116 735.747 268.206C736.735 258.674 735.192 255.017 734.704 252.672C734.108 249.811 731.939 227.722 692.785 225.364C653.631 223.007 649.218 242.142 644.981 251.505C642.589 256.791 642.833 264.33 643.5 269.897C641.75 271.829 640.667 274.433 640.667 277.31C640.667 280.784 642.241 283.864 644.675 285.833C642.2 288.391 640.667 291.943 640.667 295.871C640.667 302.602 645.166 308.221 651.184 309.625C650.415 311.245 649.971 313.063 649.971 314.995C649.971 321.667 655.13 327.076 661.497 327.076C665.104 327.076 668.32 325.339 670.434 322.62L710.177 321.775C712.251 324.972 715.747 327.076 719.716 327.076C726.082 327.076 731.242 321.667 731.242 314.995C731.242 313.063 730.797 311.245 730.029 309.625C736.043 308.218 740.546 302.599 740.546 295.871C740.546 291.943 739.009 288.391 736.537 285.833C738.966 283.864 740.543 280.784 740.543 277.31Z" fill="#020046"/>
<path d="M744.018 307.555C743.793 313.807 738.738 318.679 732.723 318.442C726.712 318.204 722.022 312.946 722.247 306.694C722.472 300.445 727.527 295.569 733.541 295.807C739.553 296.044 744.243 301.306 744.018 307.555Z" fill="white" stroke="#020046" stroke-width="0.5" stroke-miterlimit="10"/>
<path d="M727.19 308.388C727.19 308.388 726.987 300.682 734.489 301.833" stroke="#020046" stroke-width="0.5" stroke-miterlimit="10" stroke-linecap="round" stroke-linejoin="round"/>
<path d="M635.847 305.123C635.622 311.372 640.312 316.634 646.324 316.871C652.335 317.109 657.393 312.236 657.618 305.984C657.843 299.735 653.153 294.473 647.138 294.236C641.127 293.998 636.072 298.871 635.847 305.123Z" fill="white" stroke="#020046" stroke-width="0.5" stroke-miterlimit="10"/>
<path d="M652.566 307.28C652.566 307.28 653.322 299.611 645.761 300.167" stroke="#020046" stroke-width="0.5" stroke-miterlimit="10" stroke-linecap="round" stroke-linejoin="round"/>
<path d="M723.682 309.165C723.392 326.684 709.48 340.772 692.764 340.466L684.716 340.321C668.002 340.015 654.563 325.435 654.853 307.913L655.381 276.075C655.671 258.556 669.585 244.469 686.299 244.775L694.347 244.923C711.06 245.228 724.499 259.809 724.209 277.331L723.682 309.165Z" fill="white" stroke="#020046" stroke-width="0.5" stroke-miterlimit="10"/>
<path d="M697.214 314.232C696.73 317.76 693.838 320.451 690.351 320.386C686.864 320.321 684.065 317.528 683.698 313.986L697.214 314.232Z" fill="white" stroke="#020046" stroke-width="0.5" stroke-miterlimit="10" stroke-linecap="round" stroke-linejoin="round"/>
<path d="M667.941 286.027C666.919 286.036 665.864 286.404 665.086 287.175C664.312 287.944 663.87 288.984 663.842 290.101C663.815 291.218 664.2 292.279 664.935 293.091C665.669 293.903 666.66 294.365 667.728 294.396C667.765 294.396 667.799 294.399 667.836 294.399C669.987 294.399 671.767 292.594 671.826 290.323C671.884 288.018 670.141 286.092 667.941 286.027Z" fill="#020046"/>
<path d="M710.653 287.215C708.474 287.2 706.613 288.984 706.555 291.292C706.527 292.409 706.916 293.47 707.65 294.282C708.385 295.094 709.375 295.557 710.443 295.587C710.48 295.587 710.514 295.591 710.554 295.591C711.579 295.591 712.547 295.183 713.297 294.439C714.072 293.671 714.513 292.631 714.541 291.514C714.597 289.206 712.853 287.28 710.653 287.215Z" fill="#020046"/>
<path d="M706.98 283.327C709.853 283.768 712.702 284.33 715.528 285.015C716.704 285.299 718.093 284.645 718.377 283.398C718.648 282.207 718.019 280.855 716.76 280.55C713.936 279.868 711.085 279.303 708.212 278.862C707.573 278.763 707.008 278.757 706.428 279.096C705.947 279.377 705.49 279.926 705.363 280.479C705.113 281.583 705.7 283.13 706.98 283.327Z" fill="#020046"/>
<path d="M663.481 283.481C666.913 283.432 670.341 283.386 673.773 283.336C674.982 283.321 676.143 282.284 676.087 281.022C676.032 279.781 675.069 278.689 673.773 278.707C670.341 278.757 666.913 278.803 663.481 278.852C662.271 278.868 661.111 279.905 661.167 281.167C661.222 282.404 662.182 283.497 663.481 283.481Z" fill="#020046"/>
<path d="M689.496 287.215L683.698 301.716L690.947 303.71" stroke="#020046" stroke-width="0.5" stroke-miterlimit="10" stroke-linecap="round" stroke-linejoin="round"/>
</g>
<path d="M452.355 661.267V574.306C452.355 539.897 424.458 512 390.049 512H145.35C110.941 512 83.0444 539.897 83.0444 574.306V661.267C56.5111 661.267 35.0002 682.778 35.0002 709.312C35.0002 735.845 56.5111 757.356 83.0444 757.356V844.317C83.0444 878.727 110.941 906.623 145.35 906.623H219.656C219.656 880.09 241.166 858.579 267.7 858.579C294.233 858.579 315.744 880.09 315.744 906.623H390.049C424.458 906.623 452.355 878.727 452.355 844.317V757.356C478.888 757.356 500.399 735.845 500.399 709.312C500.399 682.778 478.888 661.267 452.355 661.267Z" fill="white"/>
<g opacity="0.12">
<path d="M362.918 847.143H172.48C155.637 847.143 141.984 833.491 141.984 816.648V614.093C141.984 597.25 155.637 583.597 172.48 583.597H362.918C379.761 583.597 393.414 597.25 393.414 614.093V816.648C393.414 833.491 379.761 847.143 362.918 847.143Z" fill="black"/>
</g>
<path d="M362.918 841.085H172.48C155.637 841.085 141.984 827.432 141.984 810.589V608.034C141.984 591.191 155.637 577.538 172.48 577.538H362.918C379.761 577.538 393.414 591.191 393.414 608.034V810.589C393.414 827.432 379.761 841.085 362.918 841.085Z" fill="#FF9FD9"/>
<mask id="mask1_132_844" style="mask-type:luminance" maskUnits="userSpaceOnUse" x="141" y="577" width="253" height="265">
<path d="M362.918 841.085H172.48C155.637 841.085 141.984 827.432 141.984 810.589V608.034C141.984 591.191 155.637 577.538 172.48 577.538H362.918C379.761 577.538 393.414 591.191 393.414 608.034V810.589C393.414 827.432 379.761 841.085 362.918 841.085Z" fill="white"/>
</mask>
<g mask="url(#mask1_132_844)">
<path d="M412.301 866.688C411.989 865.825 411.689 864.977 411.374 864.111C369.533 749.704 290.079 749.928 290.079 749.928L315.958 866.688H412.301Z" fill="white"/>
<path d="M218.882 857.319L253.273 749.928C178.741 756.062 140.978 830.049 140.978 830.049L127.046 857.319H218.882Z" fill="white"/>
<path d="M411.939 866.689V865.689C411.751 865.165 411.566 864.644 411.372 864.111C410.379 861.391 409.355 858.758 408.319 856.165H381.613V827.102H394.557C394.042 826.178 393.521 825.276 393 824.376H381.613V806.824C380.749 805.64 379.88 804.48 379.011 803.344V824.376H351.287V795.316H372.486C371.683 794.386 370.877 793.48 370.068 792.59H351.284V775.038C350.414 774.357 349.545 773.696 348.682 773.051V792.59H320.958V763.53H333.971C332.211 762.555 330.479 761.643 328.776 760.804H320.958V757.274C320.076 756.914 319.21 756.575 318.356 756.248V760.804H292.486L293.091 763.53H318.356V792.59H299.529L300.134 795.316H318.356V824.376H306.575L307.181 827.102H318.356V856.165H313.621L314.227 858.891H318.356V866.689H320.958V858.891H348.682V866.689H351.284V858.891H379.008V866.689H381.61V858.891H409.334V866.689H411.939ZM348.685 856.168H320.961V827.105H348.685V856.168ZM348.685 824.376H320.961V795.316H348.685V824.376ZM379.014 856.168H351.29V827.105H379.014V856.168Z" fill="#C4C1D2"/>
<path d="M290.079 749.928L290.636 752.443V749.94C290.272 749.928 290.079 749.928 290.079 749.928Z" fill="#C4C1D2"/>
<path d="M412.301 866.688C411.989 865.825 411.689 864.977 411.374 864.111C369.533 749.704 290.079 749.928 290.079 749.928L315.958 866.688H412.301Z" stroke="#020046" stroke-width="0.5" stroke-miterlimit="10" stroke-linecap="round" stroke-linejoin="round"/>
<path d="M227.382 827.105V830.78L229.984 822.652V795.319H238.739L239.611 792.593H229.984V763.533H248.917L249.79 760.806H229.984V754.284C229.118 754.536 228.236 754.769 227.382 755.039V760.806H212.66C210.785 761.679 208.943 762.588 207.141 763.533H227.379V792.593H199.655V767.747C198.771 768.286 197.916 768.84 197.053 769.391V792.59H169.329V792.135C168.29 793.198 167.29 794.262 166.306 795.319H166.727V824.379H144.223C143.596 825.412 143.047 826.333 142.605 827.105H166.727V856.168H139.003V833.912L136.401 839.007V856.171H127.634L127.047 857.325H218.882L219.252 856.171H199.658V827.108L227.382 827.105ZM199.658 795.319H227.382V824.379H199.658V795.319ZM197.056 856.168H169.332V827.105H197.056V856.168ZM197.056 824.376H169.332V795.316H197.056V824.376Z" fill="#C4C1D2"/>
<path d="M218.882 857.319L253.273 749.928C178.741 756.062 140.978 830.049 140.978 830.049L127.046 857.319H218.882Z" stroke="#020046" stroke-width="0.5" stroke-miterlimit="10" stroke-linecap="round" stroke-linejoin="round"/>
<path d="M367.1 870.835C361.938 836.656 355.195 806.003 346.743 793.992C320.752 757.071 292.232 760.906 281.142 759.822L279.566 752.645C279.566 752.645 279.133 749.325 277.694 749.398C276.255 749.325 275.447 749.359 275.447 749.359L275.428 752.645C264.338 753.727 235.624 757.068 209.633 793.992C201.178 806.003 194.304 836.656 188.979 870.835H367.1Z" fill="white"/>
<path d="M351.287 870.836V858.891H365.201C365.046 857.976 364.892 857.071 364.734 856.165H351.287V827.102H358.881C358.663 826.19 358.445 825.263 358.221 824.376H351.287V802.553C350.442 800.557 349.573 798.781 348.685 797.179V824.379H320.961V795.319H347.582C347.304 794.874 347.025 794.398 346.743 793.995C346.401 793.51 346.059 793.062 345.716 792.593H320.961V769.17C320.089 768.655 319.222 768.168 318.359 767.713V792.593H290.635V763.533H308.532C304.085 762.085 299.899 761.276 296.112 760.806H290.635V760.307C289.729 760.249 288.866 760.21 288.033 760.173V760.809H260.309V755.339C259.461 755.575 258.591 755.838 257.707 756.12V760.809H246.244C244.617 761.63 242.96 762.533 241.276 763.536H257.704V792.596H229.98V771.569C229.114 772.287 228.247 773.036 227.378 773.811V792.596H210.65C210.311 793.065 209.969 793.517 209.632 793.998C209.348 794.401 209.072 794.877 208.79 795.322H227.378V824.382H199.654V818.463C198.76 821.625 197.894 824.972 197.052 828.486V856.171H191.411C191.251 857.08 191.09 857.982 190.933 858.897H197.052V870.842H199.654V858.897H227.378V870.842H229.98V858.897H257.704V870.842H260.306V858.897H288.03V870.842H290.632V858.897H318.356V870.842H320.958V858.897H348.682V870.842H351.287V870.836ZM227.381 856.168H199.657V827.105H227.381V856.168ZM257.707 856.168H229.983V827.105H257.707V856.168ZM257.707 824.376H229.983V795.316H257.707V824.376ZM288.033 856.168H260.309V827.105H288.033V856.168ZM288.033 824.376H260.309V795.316H288.033V824.376ZM288.033 792.59H260.309V763.53H288.033V792.59ZM318.359 856.168H290.635V827.105H318.359V856.168ZM318.359 824.376H290.635V795.316H318.359V824.376ZM320.961 856.168V827.105H348.685V856.168H320.961Z" fill="#C4C1D2"/>
<path d="M268.779 796.609C268.779 798.594 267.246 800.202 265.353 800.202C263.46 800.202 261.927 798.594 261.927 796.609C261.927 794.625 263.46 793.017 265.353 793.017C267.246 793.02 268.779 794.625 268.779 796.609Z" stroke="#020046" stroke-width="0.5" stroke-miterlimit="10" stroke-linecap="round" stroke-linejoin="round"/>
<path d="M268.779 830.016C268.779 832 267.246 833.609 265.353 833.609C263.46 833.609 261.927 832 261.927 830.016C261.927 828.032 263.46 826.424 265.353 826.424C267.246 826.424 268.779 828.032 268.779 830.016Z" stroke="#020046" stroke-width="0.5" stroke-miterlimit="10" stroke-linecap="round" stroke-linejoin="round"/>
<path d="M272.68 771.594L272.938 870.835" stroke="#020046" stroke-width="0.5" stroke-miterlimit="10" stroke-linecap="round" stroke-linejoin="round"/>
<path d="M336.984 872.95C333.107 847.259 333.788 826.108 333.788 826.108H217.764C216.48 843.224 213.19 858.909 208.897 872.95H336.984Z" fill="#5F42A9"/>
<path d="M336.673 870.839C333.143 846.111 333.786 826.108 333.786 826.108H217.762C216.665 840.737 214.114 854.305 210.725 866.664" stroke="#020046" stroke-width="0.5" stroke-miterlimit="10" stroke-linecap="round" stroke-linejoin="round"/>
<path d="M212.896 856.789C213.087 860.697 216.416 863.605 220.118 863.099L234.568 861.118C238.055 860.639 240.52 857.304 240.09 853.644L228.461 754.702C221.312 756.89 214.596 759.679 208.316 762.894L212.896 856.789Z" fill="#5F42A9" stroke="#020046" stroke-width="0.5" stroke-miterlimit="10"/>
<path d="M212.472 795.046L231.042 792.502C233.405 792.177 235.068 789.909 234.759 787.434L234.677 786.788C234.368 784.313 232.202 782.569 229.842 782.893L211.273 785.437C208.91 785.761 207.247 788.03 207.556 790.505L207.638 791.151C207.947 793.625 210.109 795.37 212.472 795.046Z" stroke="#020046" stroke-miterlimit="10"/>
<path d="M321.084 757.807L309.818 853.644C309.388 857.304 311.854 860.639 315.34 861.118L329.79 863.099C333.492 863.608 336.821 860.697 337.012 856.789L341.319 768.446C334.194 763.851 327.354 760.403 321.084 757.807Z" fill="#5F42A9" stroke="#020046" stroke-width="0.5" stroke-miterlimit="10"/>
<path d="M337.438 795.046L318.869 792.502C316.506 792.178 314.843 789.909 315.152 787.434L315.234 786.789C315.543 784.314 317.709 782.569 320.068 782.893L338.638 785.438C341.001 785.762 342.664 788.031 342.355 790.506L342.276 791.151C341.964 793.626 339.798 795.371 337.438 795.046Z" stroke="#020046" stroke-miterlimit="10"/>
<path d="M308.519 752.921L293.672 735.806H275.627H269.738H251.693L236.846 752.921L248.506 786.685L272.683 766.138L296.859 786.685L308.519 752.921Z" fill="white"/>
<path d="M290.636 781.399V763.53H304.856L305.798 760.803H290.636V735.806H288.034V760.803H260.31V735.806H257.708V760.803H239.566L240.508 763.53H257.708V778.864L260.31 776.652V763.53H288.034V779.185L290.636 781.399Z" fill="#C4C1D2"/>
<path d="M308.519 752.921L293.672 735.806H275.627H269.738H251.693L236.846 752.921L248.506 786.685L272.683 766.138L296.859 786.685L308.519 752.921Z" stroke="#020046" stroke-width="0.5" stroke-miterlimit="10" stroke-linecap="round" stroke-linejoin="round"/>
<path d="M233.971 692.051C231.799 692.426 221.8 672.136 221.088 655.324C220.376 638.515 226.825 606.859 272.531 605.344C288.525 604.814 322.62 606.998 322.483 647.29C322.347 687.925 304.296 711.153 300.24 713.374C296.186 715.597 267.26 686.304 233.971 692.051Z" fill="#020046"/>
<path d="M274.454 756.883H269.719C259.353 756.883 250.947 748.477 250.947 738.111V724.11C250.947 713.741 259.35 705.337 269.719 705.337H274.454C284.823 705.337 293.226 713.741 293.226 724.11V738.111C293.226 748.477 284.82 756.883 274.454 756.883Z" fill="white" stroke="#020046" stroke-width="0.5" stroke-miterlimit="10"/>
<path d="M327.166 689.473C327.035 695.841 321.964 700.89 315.839 700.751C309.714 700.612 304.858 695.341 304.988 688.973C305.119 682.606 310.19 677.556 316.315 677.695C322.437 677.835 327.296 683.105 327.166 689.473Z" fill="white" stroke="#020046" stroke-width="0.5" stroke-miterlimit="10"/>
<path d="M310.048 690.612C310.048 690.612 309.721 682.769 317.376 683.814" stroke="#020046" stroke-width="0.5" stroke-miterlimit="10" stroke-linecap="round" stroke-linejoin="round"/>
<path d="M217.007 688.864C216.876 695.232 221.735 700.506 227.858 700.642C233.983 700.781 239.051 695.732 239.184 689.364C239.314 682.996 234.455 677.723 228.333 677.586C222.208 677.45 217.137 682.497 217.007 688.864Z" fill="white" stroke="#020046" stroke-width="0.5" stroke-miterlimit="10"/>
<path d="M234.06 690.773C234.06 690.773 234.709 682.954 227.02 683.651" stroke="#020046" stroke-width="0.5" stroke-miterlimit="10" stroke-linecap="round" stroke-linejoin="round"/>
<path d="M307.106 698.07C307.091 712.277 295.986 723.889 282.433 723.873L261.637 723.849C248.081 723.831 237.003 712.193 237.021 697.985L237.073 652.355C237.088 638.148 248.193 626.537 261.746 626.552L282.542 626.576C296.098 626.591 307.176 638.233 307.158 652.44L307.106 698.07Z" fill="white" stroke="#020046" stroke-width="0.5" stroke-miterlimit="10"/>
<path d="M265.205 697.064C265.635 700.663 268.528 703.459 272.078 703.465C275.628 703.471 278.53 700.681 278.967 697.083L265.205 697.064Z" fill="white" stroke="#020046" stroke-width="0.5" stroke-miterlimit="10" stroke-linecap="round" stroke-linejoin="round"/>
<path d="M271.779 669.946C270.634 675.12 269.531 680.306 268.477 685.505C270.664 685.602 272.852 685.705 275.042 685.817" stroke="#020046" stroke-width="0.5" stroke-miterlimit="10" stroke-linecap="round" stroke-linejoin="round"/>
<path d="M253.637 674.614C253.67 676.499 252.237 678.056 250.438 678.089C248.638 678.122 247.154 676.623 247.121 674.736C247.087 672.851 248.52 671.294 250.32 671.261C252.119 671.228 253.603 672.727 253.637 674.614Z" fill="#020046"/>
<path d="M297.682 674.551C297.715 676.435 296.282 677.992 294.483 678.026C292.684 678.059 291.199 676.559 291.166 674.672C291.133 672.788 292.565 671.231 294.365 671.198C296.164 671.164 297.652 672.667 297.682 674.551Z" fill="#020046"/>
<path d="M245.7 669.946C248.748 669.753 251.795 669.559 254.84 669.362" stroke="#020046" stroke-miterlimit="10" stroke-linecap="round"/>
<path d="M289.731 667.432C293.021 668.308 296.311 669.183 299.6 670.059" stroke="#020046" stroke-miterlimit="10" stroke-linecap="round"/>
</g>
<path d="M409.966 213.069V140.788C409.966 112.187 386.779 89 358.178 89H154.788C126.187 89 103 112.185 103 140.788V213.079C124.954 213.197 142.717 231.019 142.717 253C142.717 274.981 124.954 292.805 103 292.921V365.212C103 393.813 126.187 417 154.788 417H216.549C216.549 394.946 234.429 377.066 256.483 377.066C278.537 377.066 296.417 394.946 296.417 417H358.178C386.779 417 409.966 393.813 409.966 365.212V292.931C432.02 292.931 449.9 275.052 449.9 252.997C449.9 230.943 432.02 213.069 409.966 213.069Z" fill="white"/>
<g opacity="0.12">
<path d="M335.627 367.566H177.338C163.338 367.566 151.99 356.218 151.99 342.219V173.858C151.99 159.858 163.338 148.51 177.338 148.51H335.627C349.627 148.51 360.975 159.858 360.975 173.858V342.219C360.975 356.218 349.627 367.566 335.627 367.566Z" fill="black"/>
</g>
<path d="M335.627 362.531H177.338C163.339 362.531 151.99 351.183 151.99 337.183V168.822C151.99 154.823 163.339 143.474 177.338 143.474H335.627C349.627 143.474 360.975 154.823 360.975 168.822V337.183C360.975 351.183 349.627 362.531 335.627 362.531Z" fill="#5F42A9"/>
<mask id="mask2_132_844" style="mask-type:luminance" maskUnits="userSpaceOnUse" x="151" y="143" width="210" height="220">
<path d="M335.627 362.531H177.338C163.339 362.531 151.99 351.183 151.99 337.183V168.822C151.99 154.823 163.339 143.474 177.338 143.474H335.627C349.627 143.474 360.975 154.823 360.975 168.822V337.183C360.975 351.183 349.627 362.531 335.627 362.531Z" fill="white"/>
</mask>
<g mask="url(#mask2_132_844)">
<path d="M397.7 420.903C382.598 338.495 326.487 277.295 259.564 277.295C192.641 277.295 136.53 338.495 121.427 420.903H397.7Z" fill="#FF9FD9"/>
<path d="M224.073 330.838L214.344 320.638L224.073 310.441L233.802 320.638L224.073 330.838Z" fill="white"/>
<path d="M259.212 330.838L249.483 320.638L259.212 310.441L268.941 320.638L259.212 330.838Z" fill="white"/>
<path d="M294.352 330.838L284.623 320.638L294.352 310.441L304.081 320.638L294.352 330.838Z" fill="white"/>
<path d="M329.491 330.838L319.762 320.638L329.491 310.441L339.22 320.638L329.491 330.838Z" fill="white"/>
<path d="M188.932 330.838L179.203 320.638L188.932 310.441L198.663 320.638L188.932 330.838Z" fill="white"/>
<path d="M397.7 420.903C382.598 338.495 326.487 277.295 259.564 277.295C192.641 277.295 136.53 338.495 121.427 420.903H397.7Z" stroke="black" stroke-width="0.5" stroke-miterlimit="10"/>
<path d="M239.675 273.851C239.675 273.851 219.373 273.304 207.925 250.95C196.473 228.597 204.578 216.594 210.566 206.623C216.556 196.652 214.406 177.078 237.326 169.137C260.246 161.195 271.149 168.109 273.803 169.917C273.803 169.917 289.101 165.78 297.77 181.22C304.984 194.066 299.271 197.556 303.937 207.547C308.602 217.538 335.194 251.806 291.73 273.221C248.266 294.638 239.675 273.851 239.675 273.851Z" fill="white" stroke="black" stroke-width="0.5" stroke-miterlimit="10" stroke-linecap="round" stroke-linejoin="round"/>
<path d="M261.801 281.905H257.085C249.172 281.905 242.753 275.49 242.753 267.576V255.54C242.753 247.627 249.169 241.211 257.085 241.211H261.801C269.715 241.211 276.13 247.627 276.13 255.54V267.576C276.13 275.49 269.715 281.905 261.801 281.905Z" fill="white" stroke="black" stroke-width="0.5" stroke-miterlimit="10"/>
<path d="M302.744 235.025C302.56 240.124 298.436 244.102 293.528 243.908C288.623 243.714 284.796 239.424 284.98 234.322C285.164 229.221 289.288 225.245 294.196 225.439C299.1 225.633 302.927 229.924 302.744 235.025Z" fill="white" stroke="black" stroke-width="0.5" stroke-miterlimit="10"/>
<path d="M289.018 235.702C289.018 235.702 288.851 229.415 294.972 230.354" stroke="black" stroke-width="0.5" stroke-miterlimit="10" stroke-linecap="round" stroke-linejoin="round"/>
<path d="M214.485 233.038C214.302 238.137 218.129 242.43 223.034 242.624C227.938 242.818 232.065 238.842 232.249 233.741C232.433 228.642 228.606 224.349 223.698 224.155C218.796 223.961 214.669 227.939 214.485 233.038Z" fill="white" stroke="black" stroke-width="0.5" stroke-miterlimit="10"/>
<path d="M228.127 234.801C228.127 234.801 228.744 228.544 222.573 228.997" stroke="black" stroke-width="0.5" stroke-miterlimit="10" stroke-linecap="round" stroke-linejoin="round"/>
<path d="M286.154 236.339C285.918 250.633 274.567 262.127 260.928 261.878L254.361 261.76C240.724 261.513 229.759 249.614 229.995 235.317L230.426 209.34C230.663 195.046 242.016 183.552 255.653 183.801L262.219 183.919C275.856 184.169 286.822 196.066 286.585 210.362L286.154 236.339Z" fill="white" stroke="black" stroke-width="0.5" stroke-miterlimit="10"/>
<path d="M264.554 240.471C264.159 243.349 261.8 245.545 258.955 245.492C256.109 245.439 253.826 243.16 253.526 240.27L264.554 240.471Z" fill="white" stroke="black" stroke-width="0.5" stroke-miterlimit="10" stroke-linecap="round" stroke-linejoin="round"/>
<path d="M240.671 217.46C239.838 217.468 238.974 217.767 238.342 218.397C237.71 219.024 237.35 219.872 237.328 220.784C237.305 221.695 237.62 222.561 238.219 223.224C238.818 223.886 239.627 224.263 240.498 224.289C240.528 224.289 240.556 224.291 240.586 224.291C242.341 224.291 243.794 222.818 243.842 220.965C243.889 219.082 242.469 217.51 240.671 217.46Z" fill="black"/>
<path d="M275.523 218.43C273.745 218.417 272.227 219.872 272.179 221.756C272.157 222.667 272.474 223.533 273.073 224.195C273.67 224.858 274.481 225.235 275.352 225.261C275.382 225.261 275.41 225.263 275.44 225.263C276.276 225.263 277.066 224.931 277.678 224.324C278.31 223.697 278.67 222.848 278.693 221.937C278.741 220.051 277.318 218.48 275.523 218.43Z" fill="black"/>
<path d="M273.028 213.434C275.377 213.794 277.704 214.252 280.002 214.811" stroke="black" stroke-width="0.75" stroke-miterlimit="10" stroke-linecap="round" stroke-linejoin="round"/>
<path d="M237.033 213.492C239.83 213.452 242.63 213.414 245.43 213.376" stroke="black" stroke-width="0.75" stroke-miterlimit="10" stroke-linecap="round" stroke-linejoin="round"/>
<path d="M258.259 218.429L253.53 230.258L259.442 231.885" stroke="black" stroke-width="0.5" stroke-miterlimit="10" stroke-linecap="round" stroke-linejoin="round"/>
<path d="M288.258 212.533C274.163 207.917 269.842 196.33 269.842 196.33C253.894 210.964 223.367 211.057 223.367 211.057C223.367 211.057 226.341 187.235 234.574 180.404C242.808 173.571 271.522 171.725 281.037 182.066C290.547 192.405 288.258 212.533 288.258 212.533Z" fill="white"/>
<path d="M223.367 211.057C223.367 211.057 253.894 210.967 269.842 196.33C269.842 196.33 274.163 207.917 288.258 212.533" stroke="black" stroke-width="0.5" stroke-miterlimit="10" stroke-linecap="round" stroke-linejoin="round"/>
<path d="M278.611 297.803H238.746C230.565 297.803 223.933 291.171 223.933 282.99V280.822C223.933 272.642 230.565 266.01 238.746 266.01H278.611C286.792 266.01 293.424 272.642 293.424 280.822V282.99C293.424 291.171 286.792 297.803 278.611 297.803Z" fill="#FF9FD9"/>
<path d="M246.756 266.007H245.504V297.801H246.756V266.007Z" fill="white"/>
<path d="M258.614 266.007H257.363V297.801H258.614V266.007Z" fill="white"/>
<path d="M231.021 297.279C231.426 297.42 231.844 297.529 232.272 297.612V266.196C231.847 266.282 231.429 266.388 231.021 266.529V297.279Z" fill="white"/>
<path d="M271.481 266.007H270.232L269.842 297.803H271.093L271.481 266.007Z" fill="white"/>
<path d="M284.959 266.176C284.551 266.101 284.133 266.053 283.708 266.033V297.776C284.131 297.756 284.549 297.708 284.959 297.632V266.176Z" fill="white"/>
<path d="M278.611 297.803H238.746C230.565 297.803 223.933 291.171 223.933 282.99V280.822C223.933 272.642 230.565 266.01 238.746 266.01H278.611C286.792 266.01 293.424 272.642 293.424 280.822V282.99C293.424 291.171 286.792 297.803 278.611 297.803Z" stroke="black" stroke-width="0.5" stroke-miterlimit="10" stroke-linecap="round" stroke-linejoin="round"/>
</g>
<path d="M857.879 619H652.508C623.629 619 600.216 642.413 600.216 671.292V744.282C577.995 744.341 560 762.366 560 784.597C560 806.828 577.995 824.856 600.216 824.915V897.905C600.216 926.784 623.627 950.197 652.508 950.197H714.871C714.871 972.466 732.925 990.52 755.194 990.52C777.463 990.52 795.516 972.466 795.516 950.197H857.882C886.761 950.197 910.174 926.784 910.174 897.905V671.292C910.171 642.413 886.761 619 857.879 619Z" fill="#FF9FD9"/>
<g opacity="0.12">
<path d="M835.109 900.279H675.278C661.142 900.279 649.683 888.82 649.683 874.685V704.684C649.683 690.548 661.142 679.09 675.278 679.09H835.109C849.244 679.09 860.703 690.548 860.703 704.684V874.685C860.703 888.82 849.244 900.279 835.109 900.279Z" fill="black"/>
</g>
<path d="M835.109 895.194H675.278C661.142 895.194 649.683 883.736 649.683 869.6V699.599C649.683 685.464 661.142 674.005 675.278 674.005H835.109C849.244 674.005 860.703 685.464 860.703 699.599V869.6C860.703 883.736 849.244 895.194 835.109 895.194Z" fill="white"/>
<mask id="mask3_132_844" style="mask-type:luminance" maskUnits="userSpaceOnUse" x="649" y="674" width="212" height="222">
<path d="M835.109 895.194H675.278C661.142 895.194 649.683 883.736 649.683 869.6V699.599C649.683 685.464 661.142 674.005 675.278 674.005H835.109C849.244 674.005 860.703 685.464 860.703 699.599V869.6C860.703 883.736 849.244 895.194 835.109 895.194Z" fill="white"/>
</mask>
<g mask="url(#mask3_132_844)">
<path d="M745.946 825.756L737.325 819.837C737.325 819.837 692.35 829.969 654.788 883.876C617.227 937.782 645.704 976.541 675.926 974.421C706.147 972.301 754.817 954.656 755.18 953.507C755.549 952.355 745.946 825.756 745.946 825.756Z" fill="white" stroke="#5F42A9" stroke-width="0.5" stroke-miterlimit="10" stroke-linecap="round" stroke-linejoin="round"/>
<path d="M775.565 825.756L784.186 819.837C784.186 819.837 829.164 829.969 866.723 883.876C904.282 937.78 875.807 976.541 845.585 974.421C815.364 972.301 766.697 954.656 766.331 953.507C765.962 952.355 775.565 825.756 775.565 825.756Z" fill="white" stroke="#5F42A9" stroke-width="0.5" stroke-miterlimit="10" stroke-linecap="round" stroke-linejoin="round"/>
<path d="M840.637 987.217V915.076C840.637 867.968 804.204 829.778 759.259 829.778H752.87C707.928 829.778 671.493 867.968 671.493 915.076V987.217H840.637Z" fill="white"/>
<path d="M760.395 830.775V985.724" stroke="#5F42A9" stroke-width="0.5" stroke-miterlimit="10" stroke-linecap="round" stroke-linejoin="round"/>
<path d="M785.117 820.544L774.958 808.831H762.607H758.577H746.229L736.069 820.544L744.05 843.65L760.593 829.588L777.137 843.65L785.117 820.544Z" fill="white" stroke="#5F42A9" stroke-width="0.5" stroke-miterlimit="10" stroke-linecap="round" stroke-linejoin="round"/>
<path d="M751.953 812.889C751.953 812.889 716.298 818.093 707.443 796.658C698.588 775.223 719.047 692.809 766.32 708.844C767.53 709.253 770.538 711.818 770.538 711.818C770.538 711.818 785.721 705.198 797.3 719.326C808.878 733.454 823.466 777.633 815.994 799.745C810.306 816.57 751.953 812.889 751.953 812.889Z" fill="#020046"/>
<path d="M763.805 827.035H759.043C751.052 827.035 744.574 820.557 744.574 812.566V800.413C744.574 792.423 751.052 785.945 759.043 785.945H763.805C771.796 785.945 778.274 792.423 778.274 800.413V812.566C778.274 820.557 771.796 827.035 763.805 827.035Z" fill="white" stroke="#5F42A9" stroke-width="0.5" stroke-miterlimit="10"/>
<path d="M805.147 779.698C804.962 784.849 800.797 788.863 795.842 788.667C790.889 788.472 787.025 784.139 787.211 778.988C787.396 773.84 791.561 769.823 796.516 770.019C801.468 770.215 805.333 774.549 805.147 779.698Z" fill="white" stroke="#5F42A9" stroke-width="0.5" stroke-miterlimit="10"/>
<path d="M791.284 780.382C791.284 780.382 791.116 774.034 797.297 774.982" stroke="#5F42A9" stroke-width="0.5" stroke-miterlimit="10" stroke-linecap="round" stroke-linejoin="round"/>
<path d="M716.028 777.692C715.843 782.84 719.707 787.175 724.66 787.371C729.612 787.567 733.779 783.552 733.965 778.401C734.151 773.253 730.286 768.918 725.331 768.722C720.381 768.526 716.214 772.543 716.028 777.692Z" fill="white" stroke="#5F42A9" stroke-width="0.5" stroke-miterlimit="10"/>
<path d="M729.803 779.472C729.803 779.472 730.426 773.154 724.195 773.611" stroke="#5F42A9" stroke-width="0.5" stroke-miterlimit="10" stroke-linecap="round" stroke-linejoin="round"/>
<path d="M788.396 781.025C788.157 795.458 776.694 807.064 762.924 806.813L756.293 806.691C742.524 806.439 731.451 794.426 731.69 779.99L732.125 753.76C732.364 739.327 743.825 727.721 757.597 727.973L764.228 728.095C777.998 728.346 789.07 740.359 788.831 754.795L788.396 781.025Z" fill="white" stroke="#5F42A9" stroke-width="0.5" stroke-miterlimit="10"/>
<path d="M766.586 785.2C766.187 788.106 763.805 790.323 760.932 790.269C758.059 790.216 755.753 787.915 755.45 784.996" stroke="#5F42A9" stroke-width="0.5" stroke-miterlimit="10" stroke-linecap="round" stroke-linejoin="round"/>
<path d="M742.47 761.962C741.629 761.97 740.759 762.272 740.119 762.908C739.48 763.541 739.117 764.398 739.094 765.318C739.071 766.238 739.389 767.113 739.994 767.782C740.599 768.45 741.415 768.832 742.295 768.857C742.325 768.857 742.353 768.86 742.384 768.86C744.156 768.86 745.623 767.372 745.671 765.501C745.72 763.602 744.286 762.013 742.47 761.962Z" fill="#020046"/>
<path d="M777.662 762.941C775.867 762.928 774.334 764.398 774.286 766.297C774.263 767.217 774.583 768.092 775.188 768.761C775.791 769.429 776.609 769.811 777.489 769.836C777.52 769.836 777.547 769.839 777.58 769.839C778.425 769.839 779.223 769.503 779.841 768.89C780.479 768.257 780.842 767.4 780.865 766.48C780.911 764.578 779.475 762.992 777.662 762.941Z" fill="#020046"/>
<path d="M774.887 758.817C777.254 759.181 779.601 759.643 781.929 760.208C782.43 760.33 782.962 760.05 783.101 759.542C783.234 759.056 782.939 758.489 782.435 758.37C780.109 757.808 777.76 757.343 775.393 756.979C774.884 756.9 774.368 757.109 774.221 757.645C774.096 758.095 774.376 758.736 774.887 758.817Z" fill="#020046"/>
<path d="M738.795 758.909C741.622 758.868 744.447 758.83 747.274 758.789C748.499 758.771 748.505 756.865 747.274 756.882C744.447 756.923 741.622 756.961 738.795 757.002C737.57 757.02 737.564 758.927 738.795 758.909Z" fill="#020046"/>
<path d="M760.228 762.941L755.453 774.885L761.423 776.53" stroke="#5F42A9" stroke-width="0.5" stroke-miterlimit="10" stroke-linecap="round" stroke-linejoin="round"/>
<path d="M724.197 753.798H755.191L763.703 742.032L762.279 753.798H764.285L767.613 740.918L766.657 754.462L796.18 755.456C796.18 755.456 798.264 731.217 787.205 724.876C776.143 718.54 735.548 708.688 724.197 753.798Z" fill="#020046"/>
<path d="M867.162 883.537C850.11 859.064 831.411 843.571 816.09 833.935L810.126 987.217H840.637V974.523C842.326 974.718 843.973 974.881 845.549 974.993C846.376 975.051 847.197 975.079 848.016 975.079C861.295 975.079 873.401 967.526 880.022 954.926C890.095 935.746 885.409 909.727 867.162 883.537Z" fill="#5F42A9"/>
<path d="M711.941 987.217L705.962 833.592C690.544 843.202 671.601 858.777 654.348 883.54C636.101 909.729 631.416 935.748 641.491 954.928C647.776 966.89 659.008 974.291 671.494 975.011V987.219H711.941V987.217Z" fill="#5F42A9"/>
</g>
</svg>
