<svg width="21" height="19" viewBox="0 0 21 19" fill="none" xmlns="http://www.w3.org/2000/svg">
<path d="M2.98935 4.07472L5.15946 16.0389C5.25872 16.5866 5.56779 17.0844 6.03161 17.4436C6.49543 17.8027 7.08387 17.9999 7.69211 18H11.1306M18.0096 4.07472L15.8405 16.0389C15.7413 16.5866 15.4322 17.0844 14.9684 17.4436C14.5046 17.8027 13.9161 17.9999 13.3079 18H9.8694M8.46854 8.67086V13.4039M12.5315 8.67086V13.4039M1 4.07472H20M13.3521 4.07472V2.40612C13.3521 2.03319 13.1897 1.67554 12.9008 1.41184C12.6119 1.14814 12.2201 1 11.8115 1H9.18849C8.77991 1 8.38807 1.14814 8.09916 1.41184C7.81025 1.67554 7.64795 2.03319 7.64795 2.40612V4.07472H13.3521Z" stroke="#4C4856" stroke-width="1.2" stroke-linecap="round" stroke-linejoin="round"/>
</svg>
