<svg width="163" height="167" viewBox="0 0 163 167" fill="none" xmlns="http://www.w3.org/2000/svg">
<rect x="0.5" y="0.5" width="162" height="166" rx="21.5" fill="#F5F2FE"/>
<rect x="0.5" y="0.5" width="162" height="166" rx="21.5" stroke="#5F42A9" stroke-dasharray="3 3"/>
<path d="M90.5 73.2857H82.7857V81H80.2143V73.2857H72.5V70.7143H80.2143V63H82.7857V70.7143H90.5V73.2857Z" fill="#5F42A9"/>
<path d="M58.7088 90.242V96.416C58.7088 97.284 58.9188 97.928 59.3388 98.348C59.7681 98.768 60.3608 98.978 61.1168 98.978C61.8634 98.978 62.4468 98.768 62.8668 98.348C63.2961 97.928 63.5108 97.284 63.5108 96.416V90.242H64.7848V96.402C64.7848 97.214 64.6214 97.9 64.2948 98.46C63.9681 99.0107 63.5248 99.4213 62.9648 99.692C62.4141 99.9627 61.7934 100.098 61.1028 100.098C60.4121 100.098 59.7868 99.9627 59.2268 99.692C58.6761 99.4213 58.2374 99.0107 57.9108 98.46C57.5934 97.9 57.4348 97.214 57.4348 96.402V90.242H58.7088ZM68.184 93.742C68.436 93.3033 68.8094 92.9393 69.304 92.65C69.808 92.3513 70.3914 92.202 71.054 92.202C71.7354 92.202 72.3514 92.3653 72.902 92.692C73.462 93.0187 73.9007 93.4807 74.218 94.078C74.5354 94.666 74.694 95.352 74.694 96.136C74.694 96.9107 74.5354 97.6013 74.218 98.208C73.9007 98.8147 73.462 99.286 72.902 99.622C72.3514 99.958 71.7354 100.126 71.054 100.126C70.4007 100.126 69.822 99.9813 69.318 99.692C68.8234 99.3933 68.4454 99.0247 68.184 98.586V103.64H66.91V92.328H68.184V93.742ZM73.392 96.136C73.392 95.5573 73.2754 95.0533 73.042 94.624C72.8087 94.1947 72.4914 93.868 72.09 93.644C71.698 93.42 71.264 93.308 70.788 93.308C70.3214 93.308 69.8874 93.4247 69.486 93.658C69.094 93.882 68.7767 94.2133 68.534 94.652C68.3007 95.0813 68.184 95.5807 68.184 96.15C68.184 96.7287 68.3007 97.2373 68.534 97.676C68.7767 98.1053 69.094 98.4367 69.486 98.67C69.8874 98.894 70.3214 99.006 70.788 99.006C71.264 99.006 71.698 98.894 72.09 98.67C72.4914 98.4367 72.8087 98.1053 73.042 97.676C73.2754 97.2373 73.392 96.724 73.392 96.136ZM77.645 89.64V100H76.371V89.64H77.645ZM83.1623 100.126C82.4436 100.126 81.7903 99.9627 81.2023 99.636C80.6236 99.3093 80.1663 98.8473 79.8303 98.25C79.5036 97.6433 79.3403 96.9433 79.3403 96.15C79.3403 95.366 79.5083 94.6753 79.8443 94.078C80.1896 93.4713 80.6563 93.0093 81.2443 92.692C81.8323 92.3653 82.4903 92.202 83.2183 92.202C83.9463 92.202 84.6043 92.3653 85.1923 92.692C85.7803 93.0093 86.2423 93.4667 86.5783 94.064C86.9236 94.6613 87.0963 95.3567 87.0963 96.15C87.0963 96.9433 86.9189 97.6433 86.5643 98.25C86.2189 98.8473 85.7476 99.3093 85.1503 99.636C84.5529 99.9627 83.8903 100.126 83.1623 100.126ZM83.1623 99.006C83.6196 99.006 84.0489 98.8987 84.4503 98.684C84.8516 98.4693 85.1736 98.1473 85.4163 97.718C85.6683 97.2887 85.7943 96.766 85.7943 96.15C85.7943 95.534 85.6729 95.0113 85.4303 94.582C85.1876 94.1527 84.8703 93.8353 84.4783 93.63C84.0863 93.4153 83.6616 93.308 83.2043 93.308C82.7376 93.308 82.3083 93.4153 81.9163 93.63C81.5336 93.8353 81.2256 94.1527 80.9923 94.582C80.7589 95.0113 80.6423 95.534 80.6423 96.15C80.6423 96.7753 80.7543 97.3027 80.9783 97.732C81.2116 98.1613 81.5196 98.4833 81.9023 98.698C82.2849 98.9033 82.7049 99.006 83.1623 99.006ZM88.2954 96.136C88.2954 95.352 88.454 94.666 88.7714 94.078C89.0887 93.4807 89.5227 93.0187 90.0734 92.692C90.6334 92.3653 91.254 92.202 91.9354 92.202C92.6074 92.202 93.1907 92.3467 93.6854 92.636C94.18 92.9253 94.5487 93.2893 94.7914 93.728V92.328H96.0794V100H94.7914V98.572C94.5394 99.02 94.1614 99.3933 93.6574 99.692C93.1627 99.9813 92.584 100.126 91.9214 100.126C91.24 100.126 90.624 99.958 90.0734 99.622C89.5227 99.286 89.0887 98.8147 88.7714 98.208C88.454 97.6013 88.2954 96.9107 88.2954 96.136ZM94.7914 96.15C94.7914 95.5713 94.6747 95.0673 94.4414 94.638C94.208 94.2087 93.8907 93.882 93.4894 93.658C93.0974 93.4247 92.6634 93.308 92.1874 93.308C91.7114 93.308 91.2774 93.42 90.8854 93.644C90.4934 93.868 90.1807 94.1947 89.9474 94.624C89.714 95.0533 89.5974 95.5573 89.5974 96.136C89.5974 96.724 89.714 97.2373 89.9474 97.676C90.1807 98.1053 90.4934 98.4367 90.8854 98.67C91.2774 98.894 91.7114 99.006 92.1874 99.006C92.6634 99.006 93.0974 98.894 93.4894 98.67C93.8907 98.4367 94.208 98.1053 94.4414 97.676C94.6747 97.2373 94.7914 96.7287 94.7914 96.15ZM97.7563 96.136C97.7563 95.352 97.915 94.666 98.2323 94.078C98.5496 93.4807 98.9836 93.0187 99.5343 92.692C100.094 92.3653 100.72 92.202 101.41 92.202C102.008 92.202 102.563 92.342 103.076 92.622C103.59 92.8927 103.982 93.252 104.252 93.7V89.64H105.54V100H104.252V98.558C104 99.0153 103.627 99.3933 103.132 99.692C102.638 99.9813 102.059 100.126 101.396 100.126C100.715 100.126 100.094 99.958 99.5343 99.622C98.9836 99.286 98.5496 98.8147 98.2323 98.208C97.915 97.6013 97.7563 96.9107 97.7563 96.136ZM104.252 96.15C104.252 95.5713 104.136 95.0673 103.902 94.638C103.669 94.2087 103.352 93.882 102.95 93.658C102.558 93.4247 102.124 93.308 101.648 93.308C101.172 93.308 100.738 93.42 100.346 93.644C99.9543 93.868 99.6416 94.1947 99.4083 94.624C99.175 95.0533 99.0583 95.5573 99.0583 96.136C99.0583 96.724 99.175 97.2373 99.4083 97.676C99.6416 98.1053 99.9543 98.4367 100.346 98.67C100.738 98.894 101.172 99.006 101.648 99.006C102.124 99.006 102.558 98.894 102.95 98.67C103.352 98.4367 103.669 98.1053 103.902 97.676C104.136 97.2373 104.252 96.7287 104.252 96.15Z" fill="#5F42A9"/>
</svg>
