<svg width="960" height="1080" viewBox="0 0 960 1080" fill="none" xmlns="http://www.w3.org/2000/svg">
<g clip-path="url(#clip0_132_1828)">
<rect width="960" height="1080" fill="#F8F5FF"/>
<path d="M-110 850.5L347 358L671.5 416L418 1111.5L9 1251.5L-110 850.5Z" fill="#F4EFFF"/>
<path d="M442.704 438.719V542.064L725.501 324.074L442.704 438.719Z" fill="#D0BDFF" stroke="#5F42A9" stroke-miterlimit="10" stroke-linecap="round" stroke-linejoin="round"/>
<path opacity="0.5" d="M384.756 587.064C385.117 587.016 385.472 586.867 385.802 586.61L427.58 554.245C428.981 553.161 429.388 550.541 428.488 548.39C427.59 546.244 425.733 545.375 424.324 546.466L382.546 578.832C381.146 579.916 380.739 582.536 381.638 584.687C382.326 586.328 383.578 587.221 384.756 587.064Z" fill="#5F42A9"/>
<path d="M382.34 548.591C382.7 548.542 383.056 548.395 383.386 548.139L405.822 530.756C407.223 529.672 407.63 527.052 406.73 524.902C405.834 522.755 403.974 521.886 402.566 522.978L380.13 540.361C378.729 541.445 378.322 544.065 379.222 546.215C379.911 547.857 381.161 548.748 382.34 548.591Z" fill="#5F42A9"/>
<path d="M438.192 579.257C438.553 579.209 438.908 579.06 439.238 578.803L479.972 547.244C481.373 546.161 481.78 543.538 480.88 541.39C479.982 539.242 478.12 538.379 476.717 539.466L435.982 571.025C434.581 572.109 434.174 574.729 435.074 576.879C435.762 578.524 437.014 579.414 438.192 579.257Z" fill="#5F42A9"/>
<path d="M442.703 438.719L732.011 320.477L337 361.446L442.703 438.719Z" fill="#D0BDFF" stroke="#5F42A9" stroke-miterlimit="10" stroke-linecap="round" stroke-linejoin="round"/>
<path d="M476.722 460.107L442.704 542.063L515.156 488.544L476.722 460.107Z" fill="#B5A4E0" stroke="#5F42A9" stroke-miterlimit="10" stroke-linecap="round" stroke-linejoin="round"/>
<ellipse cx="573.412" cy="367.01" rx="58.9415" ry="61.0096" fill="#5F42A9"/>
<path d="M476.713 460.107L612.923 560.884L732.003 320.477L476.713 460.107Z" fill="#D0BDFF" stroke="#5F42A9" stroke-miterlimit="10" stroke-linecap="round" stroke-linejoin="round"/>
<path d="M588.894 391.872H560.27C551.682 391.872 545.958 387.578 545.958 377.56V357.523C545.958 347.505 551.682 343.211 560.27 343.211H588.894C597.481 343.211 603.206 347.505 603.206 357.523V377.56C603.206 387.578 597.481 391.872 588.894 391.872Z" stroke="white" stroke-width="1.3" stroke-miterlimit="10" stroke-linecap="round" stroke-linejoin="round"/>
<path d="M588.894 358.954L579.934 366.11C576.986 368.457 572.148 368.457 569.2 366.11L560.27 358.954" stroke="white" stroke-width="1.3" stroke-miterlimit="10" stroke-linecap="round" stroke-linejoin="round"/>
</g>
<defs>
<clipPath id="clip0_132_1828">
<rect width="960" height="1080" fill="white"/>
</clipPath>
</defs>
</svg>
