<svg width="24" height="24" viewBox="0 0 24 24" fill="none" xmlns="http://www.w3.org/2000/svg">
<circle cx="12" cy="12" r="11" fill="white"/>
<path d="M8.66645 9.97768L12.369 12.7546C12.7875 13.0684 13.3771 13.0068 13.7216 12.6131L20.8887 4.42212" stroke="#5F42A9" stroke-width="1.8" stroke-linecap="round"/>
<path d="M22 12.2C22 14.2894 21.3455 16.3263 20.1285 18.0247C18.9114 19.7231 17.1929 20.9976 15.2144 21.6693C13.2358 22.3409 11.0966 22.3759 9.09715 21.7694C7.09769 21.1628 5.33843 19.9452 4.06647 18.2876C2.7945 16.6299 2.07372 14.6155 2.00535 12.5271C1.93699 10.4388 2.52448 8.38155 3.6853 6.64425C4.84613 4.90695 6.52199 3.5769 8.4775 2.84089C10.433 2.10489 12.57 1.99991 14.5882 2.54069" stroke="white" stroke-width="1.8" stroke-linecap="round"/>
</svg>
